<?xml version="1.0" encoding="utf-8"?>
<!-- Generator: Adobe Illustrator 24.2.3, SVG Export Plug-In . SVG Version: 6.00 Build 0)  -->
<svg version="1.1" id="Layer_1" xmlns="http://www.w3.org/2000/svg" xmlns:xlink="http://www.w3.org/1999/xlink" x="0px" y="0px"
	 viewBox="0 0 373 333" style="enable-background:new 0 0 373 333;" xml:space="preserve">
<style type="text/css">
	.st0{filter:url(#Rectangle_4173);}
	.st1{fill:#FFFFFF;}
	.st2{fill:#E4EDEF;}
	.st3{fill:#FCF114;}
	.st4{fill:#1A1A1A;}
	.st5{enable-background:new    ;}
</style>
<filter  filterUnits="userSpaceOnUse" height="357" id="Rectangle_4173" width="397" x="0" y="0">
	<feOffset  dy="4" input="SourceAlpha"></feOffset>
	<feGaussianBlur  result="blur" stdDeviation="4"></feGaussianBlur>
	<feFlood  flood-color="#dbe3e6"></feFlood>
	<feComposite  in2="blur" operator="in"></feComposite>
	<feComposite  in="SourceGraphic" operator="over"></feComposite>
</filter>
<g id="Group_1581" transform="translate(-901 -7652)">
	<g transform="matrix(1, 0, 0, 1, 901, 7652)" class="st0">
		<rect id="Rectangle_4173-2_1_" class="st1" width="373" height="333"/>
	</g>
	<path id="Rectangle_4167" class="st2" d="M948,7819h285c2.2,0,4,1.8,4,4l0,0c0,2.2-1.8,4-4,4H948c-2.2,0-4-1.8-4-4l0,0
		C944,7820.8,945.8,7819,948,7819z"/>
	<path id="Rectangle_4168" class="st2" d="M948,7836h272c2.2,0,4,1.8,4,4l0,0c0,2.2-1.8,4-4,4H948c-2.2,0-4-1.8-4-4l0,0
		C944,7837.8,945.8,7836,948,7836z"/>
	<path id="Rectangle_4169" class="st2" d="M948,7852h264c2.2,0,4,1.8,4,4l0,0c0,2.2-1.8,4-4,4H948c-2.2,0-4-1.8-4-4l0,0
		C944,7853.8,945.8,7852,948,7852z"/>
	<path id="Rectangle_4170" class="st2" d="M948,7870h223c2.2,0,4,1.8,4,4l0,0c0,2.2-1.8,4-4,4H948c-2.2,0-4-1.8-4-4l0,0
		C944,7871.8,945.8,7870,948,7870z"/>
	<g id="Group_1523" transform="translate(97 128)">
		<path id="Rectangle_4167-2" class="st2" d="M851,7757h285c2.2,0,4,1.8,4,4l0,0c0,2.2-1.8,4-4,4H851c-2.2,0-4-1.8-4-4l0,0
			C847,7758.8,848.8,7757,851,7757z"/>
		<path id="Rectangle_4168-2" class="st2" d="M851,7774h272c2.2,0,4,1.8,4,4l0,0c0,2.2-1.8,4-4,4H851c-2.2,0-4-1.8-4-4l0,0
			C847,7775.8,848.8,7774,851,7774z"/>
		<path id="Rectangle_4169-2" class="st2" d="M851,7790h259c2.2,0,4,1.8,4,4l0,0c0,2.2-1.8,4-4,4H851c-2.2,0-4-1.8-4-4l0,0
			C847,7791.8,848.8,7790,851,7790z"/>
		<path id="Rectangle_4170-2" class="st2" d="M851,7807h155c2.2,0,4,1.8,4,4l0,0c0,2.2-1.8,4-4,4H851c-2.2,0-4-1.8-4-4l0,0
			C847,7808.8,848.8,7807,851,7807z"/>
	</g>
	<g id="Group_1522" transform="translate(103 -400)">
		<path id="Rectangle_4174" class="st3" d="M863.5,8118h252c11.9,0,21.5,9.6,21.5,21.5l0,0c0,11.9-9.6,21.5-21.5,21.5h-252
			c-11.9,0-21.5-9.6-21.5-21.5l0,0C842,8127.6,851.6,8118,863.5,8118z"/>
		<circle id="Ellipse_280" class="st1" cx="863" cy="8140" r="15"/>
		<path id="Polygon_1" class="st4" d="M867.9,8139.1c0.5,0.3,0.7,0.9,0.4,1.4c-0.1,0.2-0.2,0.3-0.4,0.4l-6.9,3.8
			c-0.5,0.3-1.1,0.1-1.4-0.4c-0.1-0.1-0.1-0.3-0.1-0.5v-7.6c0-0.6,0.4-1,1-1c0.2,0,0.3,0,0.5,0.1L867.9,8139.1z"/>
		<path id="Rectangle_4175" class="st1" d="M890.5,8137h225c1.4,0,2.5,1.1,2.5,2.5l0,0c0,1.4-1.1,2.5-2.5,2.5h-225
			c-1.4,0-2.5-1.1-2.5-2.5l0,0C888,8138.1,889.1,8137,890.5,8137z"/>
	</g>
	<g class="st5">
		<path class="st4" d="M955.4,7691h2.4l-2.5,7h-2.4l-1.4-4.5l-1.4,4.5h-2.4l-2.6-7h2.5l1.4,4.5l1.5-4.5h2.2l1.5,4.5L955.4,7691z"/>
		<path class="st4" d="M960.9,7696.2h5.3v1.8h-7.7v-7h7.6v1.8h-5.2v0.9h4.2v1.6h-4.2V7696.2z"/>
		<path class="st4" d="M975.9,7698h-2.8l-1.7-2.1h-1.6v2.1h-2.4v-7h5c1,0,1.8,0.2,2.4,0.6c0.6,0.4,0.9,1,0.9,1.8
			c0,0.6-0.2,1-0.5,1.4c-0.3,0.4-0.7,0.7-1.3,0.8L975.9,7698z M969.8,7694.3h2.4c0.7,0,1.1-0.3,1.1-0.8c0-0.5-0.4-0.8-1.1-0.8h-2.4
			V7694.3z"/>
		<path class="st4" d="M980.7,7693.4c0.6,0.1,1.2,0.1,1.6,0.2c0.4,0.1,0.9,0.2,1.2,0.4c0.4,0.2,0.7,0.4,0.9,0.7
			c0.2,0.3,0.3,0.6,0.3,1c0,0.8-0.3,1.4-1,1.8c-0.7,0.4-1.7,0.7-2.9,0.7c-1.8,0-3.4-0.4-4.5-1.3l1.2-1.4c0.9,0.7,2,1,3.4,1
			c1,0,1.5-0.2,1.5-0.5c0-0.2-0.1-0.3-0.4-0.4c-0.2-0.1-0.7-0.1-1.3-0.2c-0.6-0.1-1.1-0.1-1.6-0.2c-0.4-0.1-0.9-0.2-1.3-0.4
			c-0.4-0.2-0.7-0.4-0.9-0.7c-0.2-0.3-0.3-0.6-0.3-1c0-0.7,0.4-1.3,1.1-1.7c0.7-0.4,1.7-0.6,2.8-0.6c1.6,0,2.9,0.3,3.9,1l-1.2,1.4
			c-0.7-0.5-1.7-0.7-2.8-0.7c-1,0-1.5,0.2-1.5,0.5c0,0.2,0.1,0.3,0.4,0.3C979.6,7693.3,980,7693.4,980.7,7693.4z"/>
		<path class="st4" d="M986.4,7695.5c0.2,0.3,0.5,0.5,0.7,0.6c0.3,0.1,0.6,0.2,0.9,0.2c1,0,1.5-0.5,1.5-1.6v-3.7h2.4v3.9
			c0,1-0.3,1.8-1,2.5c-0.7,0.6-1.6,0.9-2.9,0.9c-1.4,0-2.5-0.4-3.2-1.3L986.4,7695.5z"/>
		<path class="st4" d="M999.2,7698l-0.6-1.2h-3.5l-0.6,1.2H992l3.6-7h2.6l3.5,7H999.2z M995.9,7695.2h2l-1-2.2L995.9,7695.2z"/>
		<path class="st4" d="M1010.6,7698l-0.6-1.2h-3.5l-0.6,1.2h-2.5l3.6-7h2.6l3.5,7H1010.6z M1007.2,7695.2h2l-1-2.2L1007.2,7695.2z"
			/>
		<path class="st4" d="M1019.1,7691h2.4v3.7c0,1.1-0.4,2-1.1,2.6s-1.8,0.9-3.1,0.9s-2.4-0.3-3.1-0.9c-0.7-0.6-1.1-1.5-1.1-2.6v-3.7
			h2.4v3.5c0,0.5,0.1,1,0.4,1.3s0.7,0.5,1.3,0.5s1-0.2,1.3-0.5c0.3-0.3,0.4-0.8,0.4-1.3V7691z"/>
		<path class="st4" d="M1027,7691c1.4,0,2.5,0.3,3.3,0.9c0.8,0.6,1.2,1.5,1.2,2.6c0,1.1-0.4,2-1.2,2.6c-0.8,0.6-1.9,0.9-3.3,0.9
			h-4.1v-7H1027z M1026.8,7696.1c0.7,0,1.2-0.1,1.6-0.4s0.6-0.7,0.6-1.2s-0.2-0.9-0.6-1.2s-0.9-0.4-1.6-0.4h-1.4v3.3H1026.8z"/>
		<path class="st4" d="M1034.9,7698h-2.4v-7h2.4V7698z"/>
		<path class="st4" d="M1040.7,7698.2c-1.4,0-2.6-0.3-3.4-1s-1.3-1.6-1.3-2.8s0.4-2.1,1.3-2.8s2-1,3.4-1c1.4,0,2.6,0.3,3.4,1
			s1.3,1.6,1.3,2.8s-0.4,2.1-1.3,2.8S1042.1,7698.2,1040.7,7698.2z M1039.1,7695.8c0.4,0.3,0.9,0.5,1.6,0.5s1.2-0.2,1.6-0.5
			s0.6-0.8,0.6-1.3s-0.2-1-0.6-1.3s-0.9-0.5-1.6-0.5s-1.2,0.2-1.6,0.5s-0.6,0.8-0.6,1.3S1038.7,7695.5,1039.1,7695.8z"/>
	</g>
	<g class="st5">
		<path class="st4" d="M955.4,7793h2.4l-2.5,7h-2.4l-1.4-4.5l-1.4,4.5h-2.4l-2.6-7h2.5l1.4,4.5l1.5-4.5h2.2l1.5,4.5L955.4,7793z"/>
		<path class="st4" d="M960.9,7798.2h5.3v1.8h-7.7v-7h7.6v1.8h-5.2v0.9h4.2v1.6h-4.2V7798.2z"/>
		<path class="st4" d="M975.9,7800h-2.8l-1.7-2.1h-1.6v2.1h-2.4v-7h5c1,0,1.8,0.2,2.4,0.6c0.6,0.4,0.9,1,0.9,1.8
			c0,0.6-0.2,1-0.5,1.4c-0.3,0.4-0.7,0.7-1.3,0.8L975.9,7800z M969.8,7796.3h2.4c0.7,0,1.1-0.3,1.1-0.8c0-0.5-0.4-0.8-1.1-0.8h-2.4
			V7796.3z"/>
		<path class="st4" d="M980.7,7795.4c0.6,0.1,1.2,0.1,1.6,0.2c0.4,0.1,0.9,0.2,1.2,0.4c0.4,0.2,0.7,0.4,0.9,0.7
			c0.2,0.3,0.3,0.6,0.3,1c0,0.8-0.3,1.4-1,1.8c-0.7,0.4-1.7,0.7-2.9,0.7c-1.8,0-3.4-0.4-4.5-1.3l1.2-1.4c0.9,0.7,2,1,3.4,1
			c1,0,1.5-0.2,1.5-0.5c0-0.2-0.1-0.3-0.4-0.4c-0.2-0.1-0.7-0.1-1.3-0.2c-0.6-0.1-1.1-0.1-1.6-0.2c-0.4-0.1-0.9-0.2-1.3-0.4
			c-0.4-0.2-0.7-0.4-0.9-0.7c-0.2-0.3-0.3-0.6-0.3-1c0-0.7,0.4-1.3,1.1-1.7c0.7-0.4,1.7-0.6,2.8-0.6c1.6,0,2.9,0.3,3.9,1l-1.2,1.4
			c-0.7-0.5-1.7-0.7-2.8-0.7c-1,0-1.5,0.2-1.5,0.5c0,0.2,0.1,0.3,0.4,0.3C979.6,7795.3,980,7795.4,980.7,7795.4z"/>
		<path class="st4" d="M986.4,7797.5c0.2,0.3,0.5,0.5,0.7,0.6c0.3,0.1,0.6,0.2,0.9,0.2c1,0,1.5-0.5,1.5-1.6v-3.7h2.4v3.9
			c0,1-0.3,1.8-1,2.5c-0.7,0.6-1.6,0.9-2.9,0.9c-1.4,0-2.5-0.4-3.2-1.3L986.4,7797.5z"/>
		<path class="st4" d="M999.2,7800l-0.6-1.2h-3.5l-0.6,1.2H992l3.6-7h2.6l3.5,7H999.2z M995.9,7797.2h2l-1-2.2L995.9,7797.2z"/>
		<path class="st4" d="M1011.7,7793v1.8h-2.8v5.2h-2.4v-5.2h-2.8v-1.8H1011.7z"/>
		<path class="st4" d="M1014.9,7798.2h5.3v1.8h-7.7v-7h7.6v1.8h-5.2v0.9h4.2v1.6h-4.2V7798.2z"/>
		<path class="st4" d="M1029.9,7800h-2.8l-2-2.7l-1.3,1.2v1.5h-2.4v-7h2.4v3l3-3h2.9l-3,2.8L1029.9,7800z"/>
		<path class="st4" d="M1034.1,7795.4c0.6,0.1,1.2,0.1,1.6,0.2c0.4,0.1,0.9,0.2,1.2,0.4c0.4,0.2,0.7,0.4,0.9,0.7
			c0.2,0.3,0.3,0.6,0.3,1c0,0.8-0.3,1.4-1,1.8c-0.7,0.4-1.7,0.7-2.9,0.7c-1.8,0-3.4-0.4-4.5-1.3l1.2-1.4c0.9,0.7,2,1,3.4,1
			c1,0,1.5-0.2,1.5-0.5c0-0.2-0.1-0.3-0.4-0.4c-0.2-0.1-0.7-0.1-1.3-0.2c-0.6-0.1-1.1-0.1-1.6-0.2c-0.4-0.1-0.9-0.2-1.3-0.4
			c-0.4-0.2-0.7-0.4-0.9-0.7c-0.2-0.3-0.3-0.6-0.3-1c0-0.7,0.4-1.3,1.1-1.7c0.7-0.4,1.7-0.6,2.8-0.6c1.6,0,2.9,0.3,3.9,1l-1.2,1.4
			c-0.7-0.5-1.7-0.7-2.8-0.7c-1,0-1.5,0.2-1.5,0.5c0,0.2,0.1,0.3,0.4,0.3C1033,7795.3,1033.5,7795.4,1034.1,7795.4z"/>
		<path class="st4" d="M1046.4,7793v1.8h-2.8v5.2h-2.4v-5.2h-2.8v-1.8H1046.4z"/>
		<path class="st4" d="M1051.3,7800.2c-1.4,0-2.6-0.3-3.4-1s-1.3-1.6-1.3-2.8s0.4-2.1,1.3-2.8s2-1,3.4-1c1.4,0,2.6,0.3,3.4,1
			s1.3,1.6,1.3,2.8s-0.4,2.1-1.3,2.8S1052.8,7800.2,1051.3,7800.2z M1049.7,7797.8c0.4,0.3,0.9,0.5,1.6,0.5s1.2-0.2,1.6-0.5
			s0.6-0.8,0.6-1.3s-0.2-1-0.6-1.3s-0.9-0.5-1.6-0.5s-1.2,0.2-1.6,0.5s-0.6,0.8-0.6,1.3S1049.3,7797.5,1049.7,7797.8z"/>
		<path class="st4" d="M1066.4,7793h2.4l-2.5,7h-2.4l-1.4-4.5l-1.4,4.5h-2.4l-2.6-7h2.5l1.4,4.5l1.5-4.5h2.2l1.5,4.5L1066.4,7793z"
			/>
		<path class="st4" d="M1075.3,7800l-0.6-1.2h-3.5l-0.6,1.2h-2.5l3.6-7h2.6l3.5,7H1075.3z M1071.9,7797.2h2l-1-2.2L1071.9,7797.2z"
			/>
	</g>
</g>
</svg>
