<?xml version="1.0" encoding="utf-8"?>
<!-- Generator: Adobe Illustrator 24.2.3, SVG Export Plug-In . SVG Version: 6.00 Build 0)  -->
<svg version="1.1" id="Layer_1" xmlns="http://www.w3.org/2000/svg" xmlns:xlink="http://www.w3.org/1999/xlink" x="0px" y="0px"
	 viewBox="0 0 373 333" style="enable-background:new 0 0 373 333;" xml:space="preserve">
<style type="text/css">
	.st0{fill:#FFFFFF;}
	.st1{fill:none;stroke:#E4EDEF;}
	.st2{enable-background:new    ;}
	.st3{fill:#C4C4C4;}
	.st4{fill:#FCF114;}
	.st5{fill:#1A1A1A;}
	.st6{fill:#C6D5D8;}
</style>
<g id="Group_1583" transform="translate(-901 -8469)">
	<g transform="matrix(1, 0, 0, 1, 901, 8469)">
		<rect id="Rectangle_4180-2" class="st0" width="373" height="333"/>
	</g>
	<line id="Line_249" class="st1" x1="939.5" y1="8555.5" x2="1240.5" y2="8555.5"/>
	<g class="st2">
		<path class="st3" d="M985.8,8515.7c0.2,0.3,0.4,0.5,0.7,0.6s0.6,0.2,1.1,0.2c0.7,0,1.2-0.2,1.5-0.6c0.3-0.4,0.5-0.9,0.5-1.6v-3.6
			h0.8v3.7c0,0.4-0.1,0.8-0.2,1.1c-0.1,0.3-0.3,0.6-0.5,0.9c-0.2,0.3-0.5,0.5-0.9,0.6c-0.4,0.1-0.8,0.2-1.3,0.2
			c-1.1,0-1.9-0.4-2.4-1.1L985.8,8515.7z"/>
		<path class="st3" d="M998.9,8517l-0.9-1.7h-4.2l-0.9,1.7H992l3.5-6.3h0.8l3.5,6.3H998.9z M994.1,8514.6h3.5l-1.8-3.2L994.1,8514.6
			z"/>
		<path class="st3" d="M1007.8,8510.7h0.7v6.3h-0.7l-5.3-5.3v5.3h-0.7v-6.3h0.8l5.1,5.2V8510.7z"/>
		<path class="st3" d="M1022.2,8517h-1l-3-3.4l-2.1,1.6v1.7h-0.8v-6.3h0.8v3.7l4.8-3.7h1.1l-3.1,2.5L1022.2,8517z"/>
		<path class="st3" d="M1029.9,8516.3c-0.7,0.6-1.6,0.9-2.8,0.9c-1.2,0-2.1-0.3-2.8-0.9c-0.7-0.6-1-1.4-1-2.4c0-1,0.3-1.8,1-2.4
			c0.7-0.6,1.6-0.9,2.8-0.9c1.2,0,2.1,0.3,2.8,0.9c0.7,0.6,1,1.4,1,2.4C1031,8514.9,1030.6,8515.7,1029.9,8516.3z M1024.9,8515.8
			c0.5,0.5,1.3,0.7,2.2,0.7c0.9,0,1.7-0.2,2.2-0.7s0.8-1.1,0.8-1.9s-0.3-1.5-0.8-1.9s-1.3-0.7-2.2-0.7c-0.9,0-1.7,0.2-2.2,0.7
			c-0.5,0.5-0.8,1.1-0.8,1.9S1024.3,8515.3,1024.9,8515.8z"/>
		<path class="st3" d="M1042,8510.7h0.8l-2.3,6.3h-0.8l-2-5.4l-2,5.4h-0.8l-2.3-6.3h0.8l1.9,5.4l2-5.4h0.8l2,5.4L1042,8510.7z"/>
		<path class="st3" d="M1050.7,8517l-0.9-1.7h-4.2l-0.9,1.7h-0.8l3.5-6.3h0.8l3.5,6.3H1050.7z M1045.9,8514.6h3.5l-1.8-3.2
			L1045.9,8514.6z"/>
		<path class="st3" d="M1054.4,8516.3h4.8v0.7h-5.6v-6.3h0.8V8516.3z"/>
		<path class="st3" d="M1064.3,8513.4c0.5,0,1,0.1,1.3,0.2c0.4,0.1,0.7,0.2,1,0.3c0.3,0.1,0.5,0.3,0.7,0.5c0.2,0.2,0.2,0.5,0.2,0.8
			c0,0.6-0.3,1.1-0.9,1.5c-0.6,0.4-1.4,0.6-2.4,0.6c-1.5,0-2.7-0.4-3.7-1.3l0.5-0.6c0.9,0.8,1.9,1.2,3.2,1.2c0.8,0,1.3-0.1,1.8-0.3
			c0.4-0.2,0.6-0.5,0.6-0.9c0-0.2-0.1-0.3-0.2-0.5c-0.1-0.1-0.3-0.2-0.5-0.3c-0.2-0.1-0.5-0.1-0.8-0.2s-0.7-0.1-1.1-0.1
			c-0.5,0-0.9-0.1-1.2-0.2c-0.4-0.1-0.7-0.2-1-0.3c-0.3-0.1-0.6-0.3-0.8-0.5c-0.2-0.2-0.3-0.5-0.3-0.8c0-0.6,0.3-1,0.9-1.4
			c0.6-0.3,1.4-0.5,2.2-0.5c0.7,0,1.3,0.1,1.8,0.3c0.6,0.2,1,0.5,1.4,0.8l-0.6,0.5c-0.6-0.6-1.5-0.9-2.6-0.9c-0.3,0-0.6,0-0.9,0.1
			s-0.5,0.1-0.8,0.2c-0.2,0.1-0.4,0.2-0.6,0.4c-0.1,0.2-0.2,0.3-0.2,0.5c0,0.2,0.1,0.3,0.2,0.5c0.1,0.1,0.3,0.2,0.6,0.3
			s0.5,0.1,0.8,0.2S1063.9,8513.4,1064.3,8513.4z"/>
		<path class="st3" d="M1076.8,8517h-1l-3-3.4l-2.1,1.6v1.7h-0.8v-6.3h0.8v3.7l4.8-3.7h1.1l-3.1,2.5L1076.8,8517z"/>
		<path class="st3" d="M1079.6,8517h-0.8v-6.3h0.8V8517z"/>
	</g>
	<g class="st2">
		<path class="st3" d="M1165.6,8511.1c0.3-0.5,0.7-0.9,1.2-1.2c0.6-0.3,1.2-0.5,1.9-0.5c0.8,0,1.5,0.2,2,0.5s0.9,0.8,0.9,1.4
			c0,0.3-0.1,0.5-0.2,0.7c-0.1,0.2-0.3,0.4-0.5,0.6c-0.2,0.2-0.5,0.3-0.8,0.4c-0.3,0.1-0.6,0.3-1,0.4c-1.6,0.6-2.5,1.2-2.7,1.8h5.4
			v0.7h-6.3v-0.4c0.1-0.5,0.4-1,1-1.5s1.3-0.9,2.2-1.2c0.3-0.1,0.6-0.2,0.7-0.3c0.2-0.1,0.4-0.2,0.6-0.3c0.2-0.1,0.4-0.2,0.5-0.3
			c0.1-0.1,0.2-0.2,0.3-0.3s0.1-0.2,0.1-0.4c0-0.4-0.2-0.7-0.6-0.9s-0.9-0.3-1.5-0.3c-1.1,0-1.9,0.4-2.5,1.3L1165.6,8511.1z"/>
		<path class="st3" d="M1176.9,8509.5c1.1,0,2,0.3,2.7,0.9c0.6,0.6,1,1.4,1,2.4c0,1-0.3,1.8-1,2.4c-0.6,0.6-1.5,0.9-2.7,0.9
			c-1.3,0-2.3-0.4-3-1.1l0.6-0.4c0.6,0.6,1.3,0.9,2.3,0.9c0.9,0,1.6-0.2,2.1-0.7c0.5-0.5,0.8-1.1,0.8-2c0-0.2,0-0.3,0-0.4
			c-0.3,0.4-0.8,0.7-1.3,0.9c-0.6,0.2-1.2,0.3-1.9,0.3c-0.8,0-1.4-0.2-2-0.5c-0.5-0.4-0.8-0.9-0.8-1.5c0-0.6,0.3-1.2,0.9-1.5
			C1175.2,8509.7,1176,8509.5,1176.9,8509.5z M1176.7,8513.1c0.6,0,1.1-0.1,1.6-0.3c0.5-0.2,1-0.5,1.3-0.9c-0.2-0.5-0.5-0.9-1-1.2
			c-0.5-0.3-1-0.4-1.7-0.4c-0.7,0-1.3,0.1-1.8,0.4c-0.4,0.3-0.7,0.6-0.7,1.1c0,0.5,0.2,0.8,0.6,1.1
			C1175.5,8512.9,1176.1,8513.1,1176.7,8513.1z"/>
		<path class="st3" d="M1183.3,8516c-0.1,0.1-0.2,0.1-0.4,0.1s-0.3,0-0.4-0.1s-0.2-0.2-0.2-0.4c0-0.1,0.1-0.3,0.2-0.4
			c0.1-0.1,0.2-0.1,0.4-0.1s0.3,0,0.4,0.1c0.1,0.1,0.2,0.2,0.2,0.4C1183.5,8515.7,1183.4,8515.9,1183.3,8516z"/>
		<path class="st3" d="M1191.6,8515.3c-0.6,0.6-1.5,0.9-2.7,0.9c-1.1,0-2-0.3-2.7-0.9c-0.6-0.6-1-1.4-1-2.4c0-1,0.3-1.8,1-2.4
			c0.6-0.6,1.5-0.9,2.7-0.9c1.1,0,2,0.3,2.7,0.9c0.6,0.6,1,1.4,1,2.4C1192.6,8513.9,1192.3,8514.7,1191.6,8515.3z M1186.8,8514.8
			c0.5,0.5,1.2,0.7,2.1,0.7c0.9,0,1.6-0.2,2.1-0.7s0.8-1.1,0.8-2c0-0.9-0.3-1.5-0.8-2s-1.2-0.7-2.1-0.7c-0.9,0-1.6,0.2-2.1,0.7
			c-0.5,0.5-0.8,1.1-0.8,2C1186.1,8513.7,1186.3,8514.4,1186.8,8514.8z"/>
		<path class="st3" d="M1198.7,8512c0.8,0,1.4,0.2,2,0.5c0.5,0.4,0.8,0.9,0.8,1.5c0,0.6-0.3,1.2-0.9,1.5c-0.6,0.4-1.4,0.6-2.3,0.6
			c-1.1,0-2-0.3-2.7-0.9c-0.6-0.6-1-1.4-1-2.4c0-1,0.3-1.8,1-2.4c0.6-0.6,1.5-0.9,2.7-0.9c1.3,0,2.3,0.4,3,1.1l-0.6,0.4
			c-0.6-0.6-1.3-0.9-2.3-0.9c-0.9,0-1.6,0.2-2.1,0.7s-0.8,1.1-0.8,2c0,0.2,0,0.3,0,0.5c0.3-0.4,0.8-0.7,1.3-0.9
			C1197.3,8512.1,1198,8512,1198.7,8512z M1198.3,8515.5c0.7,0,1.3-0.1,1.8-0.4c0.4-0.3,0.7-0.6,0.7-1.1c0-0.5-0.2-0.8-0.6-1.1
			c-0.4-0.2-0.9-0.3-1.6-0.3c-0.6,0-1.1,0.1-1.6,0.3c-0.5,0.2-1,0.5-1.3,0.9c0.2,0.5,0.5,0.9,1,1.2
			C1197,8515.4,1197.6,8515.5,1198.3,8515.5z"/>
		<path class="st3" d="M1204.4,8516c-0.1,0.1-0.2,0.1-0.4,0.1s-0.3,0-0.4-0.1s-0.2-0.2-0.2-0.4c0-0.1,0.1-0.3,0.2-0.4
			c0.1-0.1,0.2-0.1,0.4-0.1s0.3,0,0.4,0.1c0.1,0.1,0.2,0.2,0.2,0.4C1204.6,8515.7,1204.5,8515.9,1204.4,8516z"/>
		<path class="st3" d="M1206.7,8511.1c0.3-0.5,0.7-0.9,1.2-1.2c0.6-0.3,1.2-0.5,1.9-0.5c0.8,0,1.5,0.2,2,0.5s0.9,0.8,0.9,1.4
			c0,0.3-0.1,0.5-0.2,0.7c-0.1,0.2-0.3,0.4-0.5,0.6c-0.2,0.2-0.5,0.3-0.8,0.4c-0.3,0.1-0.6,0.3-1,0.4c-1.6,0.6-2.5,1.2-2.7,1.8h5.4
			v0.7h-6.3v-0.4c0.1-0.5,0.4-1,1-1.5s1.3-0.9,2.2-1.2c0.3-0.1,0.6-0.2,0.7-0.3c0.2-0.1,0.4-0.2,0.6-0.3c0.2-0.1,0.4-0.2,0.5-0.3
			c0.1-0.1,0.2-0.2,0.3-0.3s0.1-0.2,0.1-0.4c0-0.4-0.2-0.7-0.6-0.9c-0.4-0.2-0.9-0.3-1.5-0.3c-1.1,0-1.9,0.4-2.5,1.3L1206.7,8511.1z
			"/>
		<path class="st3" d="M1221.2,8515.3c-0.6,0.6-1.5,0.9-2.7,0.9c-1.1,0-2-0.3-2.7-0.9c-0.6-0.6-1-1.4-1-2.4c0-1,0.3-1.8,1-2.4
			c0.6-0.6,1.5-0.9,2.7-0.9c1.1,0,2,0.3,2.7,0.9c0.6,0.6,1,1.4,1,2.4C1222.2,8513.9,1221.9,8514.7,1221.2,8515.3z M1216.4,8514.8
			c0.5,0.5,1.2,0.7,2.1,0.7c0.9,0,1.6-0.2,2.1-0.7s0.8-1.1,0.8-2c0-0.9-0.3-1.5-0.8-2s-1.2-0.7-2.1-0.7c-0.9,0-1.6,0.2-2.1,0.7
			c-0.5,0.5-0.8,1.1-0.8,2C1215.7,8513.7,1215.9,8514.4,1216.4,8514.8z"/>
		<path class="st3" d="M1224.3,8511.1c0.3-0.5,0.7-0.9,1.2-1.2c0.6-0.3,1.2-0.5,1.9-0.5c0.8,0,1.5,0.2,2,0.5s0.9,0.8,0.9,1.4
			c0,0.3-0.1,0.5-0.2,0.7c-0.1,0.2-0.3,0.4-0.5,0.6c-0.2,0.2-0.5,0.3-0.8,0.4c-0.3,0.1-0.6,0.3-1,0.4c-1.6,0.6-2.5,1.2-2.7,1.8h5.4
			v0.7h-6.3v-0.4c0.1-0.5,0.4-1,1-1.5s1.3-0.9,2.2-1.2c0.3-0.1,0.6-0.2,0.7-0.3c0.2-0.1,0.4-0.2,0.6-0.3c0.2-0.1,0.4-0.2,0.5-0.3
			c0.1-0.1,0.2-0.2,0.3-0.3s0.1-0.2,0.1-0.4c0-0.4-0.2-0.7-0.6-0.9s-0.9-0.3-1.5-0.3c-1.1,0-1.9,0.4-2.5,1.3L1224.3,8511.1z"/>
		<path class="st3" d="M1238.8,8515.3c-0.6,0.6-1.5,0.9-2.7,0.9c-1.1,0-2-0.3-2.7-0.9c-0.6-0.6-1-1.4-1-2.4c0-1,0.3-1.8,1-2.4
			c0.6-0.6,1.5-0.9,2.7-0.9c1.1,0,2,0.3,2.7,0.9c0.6,0.6,1,1.4,1,2.4C1239.8,8513.9,1239.5,8514.7,1238.8,8515.3z M1234,8514.8
			c0.5,0.5,1.2,0.7,2.1,0.7c0.9,0,1.6-0.2,2.1-0.7c0.5-0.5,0.8-1.1,0.8-2c0-0.9-0.3-1.5-0.8-2c-0.5-0.5-1.2-0.7-2.1-0.7
			c-0.9,0-1.6,0.2-2.1,0.7s-0.8,1.1-0.8,2C1233.2,8513.7,1233.5,8514.4,1234,8514.8z"/>
	</g>
	<circle id="Ellipse_290" class="st4" cx="954" cy="8513" r="15"/>
	<g class="st2">
		<path class="st5" d="M946.3,8626.9v0.7l-5.7,8.6h5.9v0.8h-7.1v-0.7l5.7-8.7h-5.5v-0.8H946.3z"/>
		<path class="st5" d="M950.9,8629.7c1,0,1.7,0.3,2.2,0.8c0.2-0.6,0.6-0.9,1-0.9c0.2,0,0.4,0,0.6,0.1v0.8c-0.5,0-1,0-1.4,0.2
			c0.3,0.4,0.5,0.9,0.5,1.5c0,0.8-0.3,1.4-0.8,1.9c-0.5,0.5-1.2,0.7-2,0.7c-0.5,0-0.9-0.1-1.3-0.2c-0.4,0.3-0.5,0.6-0.5,0.8
			c0,0.2,0.1,0.3,0.2,0.4c0.1,0.1,0.4,0.1,0.8,0.2l2,0.1c0.8,0,1.4,0.2,1.8,0.5c0.4,0.3,0.5,0.7,0.5,1.4c0,0.8-0.4,1.4-1.2,1.8
			c-0.7,0.3-1.5,0.4-2.4,0.4c-2.1,0-3.1-0.6-3.1-1.8c0-0.6,0.4-1.2,1.2-1.8c-0.5-0.1-0.7-0.4-0.7-0.9c0-0.2,0.1-0.5,0.2-0.7
			c0.1-0.2,0.4-0.4,0.7-0.7c-0.5-0.3-0.8-0.7-1-1.4c-0.1-0.2-0.1-0.4-0.1-0.7c0-0.8,0.3-1.4,0.8-1.9
			C949.3,8629.9,950,8629.7,950.9,8629.7z M953.5,8637.9c0-0.6-0.4-0.9-1.3-1l-2.5-0.1c-0.6,0.4-0.9,0.9-0.9,1.4
			c0,0.8,0.8,1.2,2.3,1.2C952.7,8639.4,953.5,8638.9,953.5,8637.9z M952.9,8632.3c0-1.2-0.6-1.8-1.9-1.8c-0.6,0-1.1,0.2-1.5,0.5
			c-0.4,0.3-0.6,0.7-0.6,1.3s0.2,1,0.5,1.3c0.3,0.3,0.8,0.5,1.5,0.5c0.6,0,1.1-0.2,1.4-0.5C952.7,8633.2,952.9,8632.8,952.9,8632.3z
			"/>
		<path class="st5" d="M958.6,8637.2c-2.1,0-3.2-1.2-3.2-3.7c0-1.2,0.3-2.1,0.9-2.8c0.6-0.7,1.4-1,2.5-1c1,0,1.8,0.3,2.3,0.9
			c0.5,0.6,0.8,1.5,0.8,2.6C961.9,8635.9,960.8,8637.2,958.6,8637.2z M958.7,8636.4c1.5,0,2.2-1,2.2-3c0-1-0.2-1.7-0.5-2.2
			c-0.4-0.4-0.9-0.7-1.6-0.7c-0.8,0-1.3,0.2-1.8,0.7s-0.6,1.2-0.6,2.2C956.3,8635.4,957.1,8636.4,958.7,8636.4z"/>
		<path class="st5" d="M968.5,8626.4h0.9v10.6h-0.8l-0.1-0.8c-0.8,0.6-1.6,1-2.5,1c-1.8,0-2.7-1.2-2.7-3.7c0-1.3,0.3-2.3,0.8-2.9
			c0.6-0.6,1.3-0.9,2.2-0.9c0.8,0,1.5,0.2,2.1,0.7V8626.4z M968.5,8635.3v-4.1c-0.7-0.5-1.4-0.7-2.1-0.7c-1.4,0-2.1,1-2.1,3.1
			c0,1,0.2,1.7,0.5,2.2c0.3,0.5,0.8,0.7,1.5,0.7c0.4,0,0.8-0.1,1.2-0.3C967.9,8635.9,968.2,8635.7,968.5,8635.3z"/>
		<path class="st5" d="M977.7,8632.2v4.8h-0.9v-4.7c0-0.6-0.1-1-0.4-1.3c-0.2-0.3-0.6-0.4-1.1-0.4c-0.4,0-0.9,0.1-1.3,0.3
			c-0.4,0.2-0.8,0.4-1.1,0.7v5.4h-0.9v-7.2h0.8l0.1,0.9c0.9-0.7,1.8-1,2.7-1C976.9,8629.7,977.7,8630.5,977.7,8632.2z"/>
		<path class="st5" d="M979.8,8627.4c0-0.5,0.3-0.7,0.8-0.7s0.8,0.2,0.8,0.7s-0.3,0.7-0.8,0.7S979.8,8627.9,979.8,8627.4z
			 M980.1,8629.8h0.9v7.2h-0.9V8629.8z"/>
		<path class="st5" d="M986.2,8637.2c-0.6,0-1.1-0.1-1.5-0.3c-0.4-0.2-0.8-0.5-1-0.8c-0.2-0.4-0.4-0.8-0.5-1.2
			c-0.1-0.4-0.2-0.9-0.2-1.4c0-1.2,0.3-2.2,0.9-2.8c0.6-0.6,1.4-0.9,2.4-0.9c0.9,0,1.6,0.3,2.1,0.8c0.5,0.5,0.7,1.3,0.7,2.2
			c0,0.4,0,0.6-0.1,0.9h-5c0,1,0.2,1.7,0.6,2.1c0.4,0.4,0.9,0.6,1.7,0.6c0.5,0,0.9-0.1,1.2-0.3s0.5-0.6,0.6-1l0.9,0.2
			c-0.1,0.7-0.5,1.2-0.9,1.5C987.5,8637,986.9,8637.2,986.2,8637.2z M984,8632.9h4.1c0-1.6-0.6-2.3-1.9-2.3c-0.6,0-1.1,0.2-1.6,0.6
			C984.2,8631.5,984,8632.1,984,8632.9z"/>
		<path class="st5" d="M998.9,8629.8v0.7l-4.3,5.7h4.5v0.8h-5.6v-0.7l4.3-5.7h-4.2v-0.8H998.9z"/>
		<path class="st5" d="M1006.6,8637.2c-2.1,0-3.2-1.2-3.2-3.7c0-1.2,0.3-2.1,0.9-2.8c0.6-0.7,1.4-1,2.5-1c1,0,1.8,0.3,2.3,0.9
			c0.5,0.6,0.8,1.5,0.8,2.6C1009.9,8635.9,1008.8,8637.2,1006.6,8637.2z M1006.7,8636.4c1.5,0,2.2-1,2.2-3c0-1-0.2-1.7-0.5-2.2
			c-0.4-0.4-0.9-0.7-1.6-0.7c-0.8,0-1.3,0.2-1.8,0.7s-0.6,1.2-0.6,2.2C1004.4,8635.4,1005.2,8636.4,1006.7,8636.4z"/>
		<path class="st5" d="M1012.8,8636.4l-0.1,0.6h-0.8v-10.6h0.9v4.3c0.8-0.7,1.6-1,2.5-1c1.7,0,2.6,1.2,2.6,3.5c0,1.3-0.3,2.3-0.9,3
			c-0.6,0.6-1.3,1-2.2,1C1014.3,8637.2,1013.6,8636.9,1012.8,8636.4z M1012.9,8631.5v4c0.7,0.6,1.4,0.9,2.1,0.9
			c1.4,0,2.1-1.1,2.1-3.2c0-1-0.1-1.7-0.4-2.1c-0.3-0.4-0.8-0.6-1.4-0.6c-0.4,0-0.8,0.1-1.2,0.3S1013.2,8631.2,1012.9,8631.5z"/>
		<path class="st5" d="M1019.8,8627.4c0-0.5,0.3-0.7,0.8-0.7s0.8,0.2,0.8,0.7s-0.3,0.7-0.8,0.7S1019.8,8627.9,1019.8,8627.4z
			 M1020,8629.8h0.9v7.2h-0.9V8629.8z"/>
		<path class="st5" d="M1026.1,8637.2c-0.6,0-1.1-0.1-1.5-0.3c-0.4-0.2-0.8-0.5-1-0.8c-0.2-0.4-0.4-0.8-0.5-1.2
			c-0.1-0.4-0.2-0.9-0.2-1.4c0-1.2,0.3-2.2,0.9-2.8c0.6-0.6,1.4-0.9,2.4-0.9c0.9,0,1.6,0.3,2.1,0.8c0.5,0.5,0.7,1.3,0.7,2.2
			c0,0.4,0,0.6-0.1,0.9h-5c0,1,0.2,1.7,0.6,2.1c0.4,0.4,0.9,0.6,1.7,0.6c0.5,0,0.9-0.1,1.2-0.3s0.5-0.6,0.6-1l0.9,0.2
			c-0.1,0.7-0.5,1.2-0.9,1.5C1027.5,8637,1026.9,8637.2,1026.1,8637.2z M1023.9,8632.9h4.1c0-1.6-0.6-2.3-1.9-2.3
			c-0.6,0-1.1,0.2-1.6,0.6C1024.2,8631.5,1024,8632.1,1023.9,8632.9z"/>
		<path class="st5" d="M1034.4,8636l0.2,0.7c-0.4,0.3-1,0.4-1.6,0.4s-1.1-0.2-1.4-0.5c-0.3-0.3-0.5-0.8-0.5-1.5v-4.6h-1.1v-0.8h1.1
			v-2.1l0.9-0.1v2.2h2v0.8h-2v4.5c0,0.4,0.1,0.8,0.2,1c0.2,0.2,0.5,0.3,0.9,0.3C1033.6,8636.4,1034,8636.3,1034.4,8636z"/>
		<path class="st5" d="M1041.8,8632.2v4.8h-0.9v-4.7c0-0.6-0.1-1-0.4-1.3c-0.2-0.3-0.6-0.4-1.1-0.4c-0.4,0-0.9,0.1-1.3,0.3
			c-0.4,0.2-0.8,0.4-1.1,0.7v5.4h-0.9v-7.2h0.8l0.1,0.9c0.9-0.7,1.8-1,2.7-1C1041.1,8629.7,1041.8,8630.5,1041.8,8632.2z"/>
		<path class="st5" d="M1043.9,8627.4c0-0.5,0.3-0.7,0.8-0.7s0.8,0.2,0.8,0.7s-0.3,0.7-0.8,0.7S1043.9,8627.9,1043.9,8627.4z
			 M1044.2,8629.8h0.9v7.2h-0.9V8629.8z"/>
		<path class="st5" d="M1050.3,8637.2c-1.1,0-1.9-0.3-2.4-1s-0.8-1.6-0.8-2.7c0-1.2,0.3-2.2,0.9-2.8c0.6-0.6,1.4-1,2.5-1
			c0.8,0,1.4,0.2,1.8,0.6s0.7,1,0.8,1.8l-0.9,0.1c-0.1-1.1-0.7-1.7-1.8-1.7c-0.6,0-1.2,0.2-1.7,0.7c-0.4,0.4-0.7,1.2-0.7,2.2
			c0,1.1,0.2,1.9,0.6,2.3c0.4,0.4,1,0.7,1.7,0.7c1.1,0,1.7-0.5,1.9-1.6l0.9,0.2c-0.1,0.7-0.4,1.3-0.9,1.7
			C1051.7,8637,1051.1,8637.2,1050.3,8637.2z"/>
		<path class="st5" d="M1060.5,8638.8l0.6,0.3c-0.1,0.3-0.4,0.6-0.6,0.7s-0.6,0.3-0.9,0.3c-0.4,0-0.7-0.1-0.9-0.3
			c-0.2-0.2-0.4-0.5-0.4-0.9c0-0.6,0.4-1.3,1.1-1.9c-0.3-0.1-0.4-0.4-0.4-0.8c-0.6,0.6-1.4,0.9-2.4,0.9c-0.4,0-0.8-0.1-1.1-0.2
			c-0.3-0.1-0.5-0.3-0.7-0.5s-0.2-0.4-0.3-0.6c-0.1-0.2-0.1-0.4-0.1-0.6c0-1.6,1.2-2.4,3.5-2.4c0.1,0,0.4,0,0.9,0v-0.7
			c0-0.6-0.1-1-0.3-1.3c-0.2-0.3-0.6-0.4-1.2-0.4c-0.5,0-0.9,0.1-1.2,0.3c-0.3,0.2-0.4,0.5-0.5,1l-0.9-0.2c0.2-1.3,1.1-1.9,2.6-1.9
			c0.9,0,1.5,0.2,1.9,0.6c0.4,0.4,0.6,1,0.6,1.9v3.7c0,0.2,0,0.4,0.1,0.4s0.2,0.1,0.3,0.1c0.1,0,0.3,0,0.4-0.1l0.1,0.6
			c-0.4,0.2-0.7,0.4-1.1,0.8c-0.3,0.4-0.5,0.7-0.5,1.1c0,0.4,0.2,0.6,0.6,0.6C1060,8639.4,1060.3,8639.2,1060.5,8638.8z
			 M1058.8,8635.4v-1.8c-0.2,0-0.5,0-0.9,0c-0.6,0-1.1,0.1-1.6,0.2c-0.6,0.2-0.9,0.6-0.9,1.3c0,0.9,0.5,1.3,1.4,1.3
			c0.4,0,0.8-0.1,1.1-0.3C1058.2,8636,1058.6,8635.7,1058.8,8635.4z"/>
		<path class="st5" d="M1062.1,8638.8l-0.7-0.1l0.7-2.9h1.1L1062.1,8638.8z"/>
		<path class="st5" d="M1069.3,8640h-0.9v-10.1h0.8l0.1,0.9c0.8-0.7,1.7-1,2.6-1c1.7,0,2.6,1.2,2.6,3.5c0,1.3-0.3,2.3-0.9,3
			c-0.6,0.6-1.3,1-2.2,1c-0.7,0-1.4-0.3-2.1-0.8V8640z M1069.4,8631.5v4c0.7,0.6,1.4,0.9,2.1,0.9c1.4,0,2.1-1.1,2.1-3.2
			c0-1-0.1-1.7-0.4-2.1c-0.3-0.4-0.8-0.6-1.4-0.6c-0.4,0-0.8,0.1-1.2,0.3S1069.7,8631.2,1069.4,8631.5z"/>
		<path class="st5" d="M1079.8,8629.7h0.2v1c-0.4-0.1-0.9,0-1.4,0.1c-0.5,0.1-0.9,0.4-1.2,0.7v5.5h-0.9v-7.2h0.8l0.1,1
			c0.3-0.4,0.7-0.7,1-0.9C1078.8,8629.8,1079.2,8629.7,1079.8,8629.7z"/>
		<path class="st5" d="M1086,8629.8v0.7l-4.3,5.7h4.5v0.8h-5.6v-0.7l4.3-5.7h-4.2v-0.8H1086z"/>
		<path class="st5" d="M1090.3,8637.2c-0.6,0-1.1-0.1-1.5-0.3c-0.4-0.2-0.8-0.5-1-0.8s-0.4-0.8-0.5-1.2c-0.1-0.4-0.2-0.9-0.2-1.4
			c0-1.2,0.3-2.2,0.9-2.8c0.6-0.6,1.4-0.9,2.4-0.9c0.9,0,1.6,0.3,2.1,0.8c0.5,0.5,0.7,1.3,0.7,2.2c0,0.4,0,0.6-0.1,0.9h-5
			c0,1,0.2,1.7,0.6,2.1c0.4,0.4,0.9,0.6,1.7,0.6c0.5,0,0.9-0.1,1.2-0.3s0.5-0.6,0.6-1l0.9,0.2c-0.1,0.7-0.5,1.2-0.9,1.5
			C1091.6,8637,1091,8637.2,1090.3,8637.2z M1088.1,8632.9h4.1c0-1.6-0.6-2.3-1.9-2.3c-0.6,0-1.1,0.2-1.6,0.6
			C1088.4,8631.5,1088.1,8632.1,1088.1,8632.9z"/>
		<path class="st5" d="M1097.4,8629.7c0.8,0,1.4,0.2,1.8,0.5s0.6,0.9,0.7,1.6l-0.9,0.1c-0.1-0.5-0.3-0.9-0.5-1.1
			c-0.2-0.2-0.6-0.3-1.1-0.3c-1,0-1.5,0.4-1.5,1.2c0,0.4,0.1,0.6,0.4,0.8c0.2,0.2,0.7,0.3,1.3,0.5c0.4,0.1,0.6,0.2,0.8,0.2
			c0.1,0,0.3,0.1,0.6,0.2c0.4,0.1,0.6,0.4,0.8,0.6c0.2,0.3,0.2,0.6,0.3,1.1c0,0.6-0.2,1.1-0.7,1.5s-1.1,0.5-2,0.5
			c-1.7,0-2.6-0.7-2.8-2.2l0.9-0.2c0.1,0.5,0.3,0.9,0.6,1.2s0.7,0.4,1.3,0.4c1.1,0,1.7-0.4,1.7-1.2c0-0.4-0.1-0.6-0.4-0.8
			c-0.3-0.2-0.7-0.3-1.3-0.5l-0.4-0.1l-0.5-0.1l-0.4-0.1c-0.2-0.1-0.3-0.1-0.4-0.2c0,0-0.1-0.1-0.2-0.1s-0.2-0.2-0.3-0.2
			c-0.1-0.1-0.1-0.1-0.2-0.2c-0.1-0.4-0.2-0.7-0.2-1c0-0.7,0.2-1.2,0.7-1.5C1096.1,8629.9,1096.7,8629.7,1097.4,8629.7z"/>
		<path class="st5" d="M1103.4,8637.1l-2.6-7.2h1l2.1,6l2.2-6h1l-2.9,7.6c-0.4,1-0.7,1.7-1.1,2.1c-0.4,0.4-0.8,0.6-1.4,0.6
			c-0.5,0-0.9-0.1-1.3-0.3l0.1-0.7c0.4,0.1,0.8,0.2,1.2,0.2c0.4,0,0.7-0.2,1-0.5C1102.9,8638.5,1103.1,8637.9,1103.4,8637.1z"/>
		<path class="st5" d="M1108.4,8626.4h0.9v4.4l1.3-0.6v0.9l-1.3,0.6v5.3h-0.9v-4.9l-1.2,0.6v-0.9l1.2-0.6V8626.4z"/>
		<path class="st5" d="M1116.9,8632.2v3.7c0,0.2,0,0.4,0.1,0.4s0.2,0.1,0.3,0.1c0.1,0,0.3,0,0.4-0.1l0.1,0.6
			c-0.3,0.1-0.6,0.2-0.9,0.2c-0.6,0-0.9-0.3-0.9-0.9c-0.6,0.6-1.4,0.9-2.4,0.9c-0.4,0-0.8-0.1-1.1-0.2c-0.3-0.1-0.5-0.3-0.7-0.5
			c-0.1-0.2-0.2-0.4-0.3-0.6c-0.1-0.2-0.1-0.4-0.1-0.6c0-1.6,1.2-2.4,3.5-2.4c0.1,0,0.4,0,0.9,0v-0.7c0-0.6-0.1-1-0.3-1.3
			c-0.2-0.3-0.6-0.4-1.2-0.4c-0.5,0-0.9,0.1-1.2,0.3c-0.3,0.2-0.4,0.5-0.5,1l-0.9-0.2c0.2-1.3,1.1-1.9,2.6-1.9
			c0.9,0,1.5,0.2,1.9,0.6C1116.7,8630.7,1116.9,8631.3,1116.9,8632.2z M1115.9,8635.4v-1.8c-0.2,0-0.5,0-0.9,0
			c-0.6,0-1.1,0.1-1.6,0.2c-0.6,0.2-0.9,0.6-0.9,1.3c0,0.9,0.5,1.3,1.4,1.3c0.4,0,0.8-0.1,1.1-0.3
			C1115.4,8636,1115.7,8635.7,1115.9,8635.4z"/>
		<path class="st5" d="M1120.4,8631.6v5.4h-0.9v-7.2h0.8l0.1,0.9c0.9-0.7,1.8-1,2.5-1c0.9,0,1.5,0.3,1.8,1c0.9-0.7,1.8-1,2.6-1
			c0.7,0,1.2,0.2,1.5,0.6s0.5,1,0.5,1.9v4.8h-0.9v-4.7c0-0.6-0.1-1.1-0.3-1.3c-0.2-0.3-0.5-0.4-1-0.4c-0.3,0-0.7,0.1-1.1,0.3
			c-0.4,0.2-0.8,0.4-1.1,0.7c0,0.2,0,0.4,0,0.7v4.8h-0.9v-4.7c0-0.6-0.1-1.1-0.3-1.3c-0.2-0.3-0.5-0.4-1-0.4c-0.4,0-0.8,0.1-1.2,0.3
			C1121,8631.1,1120.6,8631.3,1120.4,8631.6z"/>
		<path class="st5" d="M1140.6,8632.2v4.8h-0.9v-4.7c0-0.6-0.1-1-0.3-1.3c-0.2-0.3-0.6-0.4-1.1-0.4c-0.4,0-0.9,0.1-1.3,0.3
			c-0.4,0.2-0.8,0.4-1.1,0.7v5.4h-0.9v-7.2h0.8l0.1,0.9c0.9-0.7,1.8-1,2.7-1C1139.8,8629.7,1140.6,8630.5,1140.6,8632.2z"/>
		<path class="st5" d="M1147.9,8632.2v3.7c0,0.2,0,0.4,0.1,0.4s0.2,0.1,0.3,0.1c0.1,0,0.3,0,0.4-0.1l0.1,0.6
			c-0.3,0.1-0.6,0.2-0.9,0.2c-0.6,0-0.9-0.3-0.9-0.9c-0.6,0.6-1.4,0.9-2.4,0.9c-0.4,0-0.8-0.1-1.1-0.2c-0.3-0.1-0.5-0.3-0.7-0.5
			s-0.2-0.4-0.3-0.6c-0.1-0.2-0.1-0.4-0.1-0.6c0-1.6,1.2-2.4,3.5-2.4c0.1,0,0.4,0,0.9,0v-0.7c0-0.6-0.1-1-0.3-1.3
			c-0.2-0.3-0.6-0.4-1.2-0.4c-0.5,0-0.9,0.1-1.2,0.3c-0.3,0.2-0.4,0.5-0.5,1l-0.9-0.2c0.2-1.3,1.1-1.9,2.6-1.9
			c0.9,0,1.5,0.2,1.9,0.6C1147.7,8630.7,1147.9,8631.3,1147.9,8632.2z M1147,8635.4v-1.8c-0.2,0-0.5,0-0.9,0c-0.6,0-1.1,0.1-1.6,0.2
			c-0.6,0.2-0.9,0.6-0.9,1.3c0,0.9,0.5,1.3,1.4,1.3c0.4,0,0.8-0.1,1.1-0.3C1146.4,8636,1146.7,8635.7,1147,8635.4z"/>
		<path class="st5" d="M1152.6,8629.7c0.8,0,1.4,0.2,1.8,0.5s0.6,0.9,0.7,1.6l-0.9,0.1c-0.1-0.5-0.3-0.9-0.5-1.1s-0.6-0.3-1.1-0.3
			c-1,0-1.5,0.4-1.5,1.2c0,0.4,0.1,0.6,0.4,0.8s0.7,0.3,1.4,0.5c0.4,0.1,0.6,0.2,0.8,0.2c0.1,0,0.3,0.1,0.6,0.2
			c0.4,0.1,0.6,0.4,0.8,0.6s0.2,0.6,0.3,1.1c0,0.6-0.2,1.1-0.7,1.5s-1.1,0.5-2,0.5c-1.7,0-2.6-0.7-2.8-2.2l0.9-0.2
			c0.1,0.5,0.3,0.9,0.6,1.2s0.7,0.4,1.3,0.4c1.1,0,1.7-0.4,1.7-1.2c0-0.4-0.1-0.6-0.4-0.8c-0.3-0.2-0.7-0.3-1.3-0.5l-0.4-0.1
			l-0.5-0.1l-0.4-0.1c-0.2-0.1-0.3-0.1-0.4-0.2c0,0-0.1-0.1-0.2-0.1s-0.2-0.2-0.3-0.2c-0.1-0.1-0.1-0.1-0.2-0.2
			c-0.1-0.4-0.2-0.7-0.2-1c0-0.7,0.2-1.2,0.7-1.5C1151.3,8629.9,1151.9,8629.7,1152.6,8629.7z"/>
		<path class="st5" d="M1161.7,8629.8v0.7l-4.3,5.7h4.5v0.8h-5.6v-0.7l4.3-5.7h-4.2v-0.8H1161.7z"/>
		<path class="st5" d="M1168.8,8638.8l0.6,0.3c-0.1,0.3-0.4,0.6-0.6,0.7c-0.3,0.2-0.6,0.3-0.9,0.3c-0.4,0-0.7-0.1-0.9-0.3
			s-0.4-0.5-0.4-0.9c0-0.6,0.4-1.3,1.1-1.9c-0.3-0.1-0.4-0.4-0.4-0.8c-0.6,0.6-1.4,0.9-2.4,0.9c-0.4,0-0.8-0.1-1.1-0.2
			c-0.3-0.1-0.5-0.3-0.7-0.5c-0.1-0.2-0.2-0.4-0.3-0.6c-0.1-0.2-0.1-0.4-0.1-0.6c0-1.6,1.2-2.4,3.5-2.4c0.1,0,0.4,0,0.9,0v-0.7
			c0-0.6-0.1-1-0.3-1.3c-0.2-0.3-0.6-0.4-1.2-0.4c-0.5,0-0.9,0.1-1.2,0.3c-0.3,0.2-0.4,0.5-0.5,1l-0.9-0.2c0.2-1.3,1.1-1.9,2.6-1.9
			c0.9,0,1.5,0.2,1.9,0.6c0.4,0.4,0.6,1,0.6,1.9v3.7c0,0.2,0,0.4,0.1,0.4s0.2,0.1,0.3,0.1c0.1,0,0.3,0,0.4-0.1l0.1,0.6
			c-0.4,0.2-0.7,0.4-1.1,0.8c-0.3,0.4-0.5,0.7-0.5,1.1c0,0.4,0.2,0.6,0.6,0.6C1168.3,8639.4,1168.6,8639.2,1168.8,8638.8z
			 M1167.1,8635.4v-1.8c-0.2,0-0.5,0-0.9,0c-0.6,0-1.1,0.1-1.6,0.2c-0.6,0.2-0.9,0.6-0.9,1.3c0,0.9,0.5,1.3,1.4,1.3
			c0.4,0,0.8-0.1,1.1-0.3C1166.5,8636,1166.8,8635.7,1167.1,8635.4z"/>
		<path class="st5" d="M1176.5,8637.2c-2.1,0-3.2-1.2-3.2-3.7c0-1.2,0.3-2.1,0.9-2.8c0.6-0.7,1.4-1,2.5-1c1,0,1.8,0.3,2.3,0.9
			c0.5,0.6,0.8,1.5,0.8,2.6C1179.8,8635.9,1178.7,8637.2,1176.5,8637.2z M1176.6,8636.4c1.5,0,2.2-1,2.2-3c0-1-0.2-1.7-0.5-2.2
			c-0.4-0.4-0.9-0.7-1.6-0.7c-0.8,0-1.3,0.2-1.8,0.7s-0.6,1.2-0.6,2.2C1174.3,8635.4,1175.1,8636.4,1176.6,8636.4z"/>
		<path class="st5" d="M1184.9,8626.5l0,0.8c-0.3-0.1-0.7-0.2-1-0.2c-0.7,0-1.1,0.4-1.1,1.3v1.4h2v0.8h-2v6.4h-0.9v-6.4h-1.1v-0.8
			h1.1v-1.3c0-1.5,0.6-2.2,1.9-2.2C1184.2,8626.3,1184.6,8626.4,1184.9,8626.5z"/>
		<path class="st5" d="M1188.4,8637.2c-0.6,0-1.1-0.1-1.5-0.3c-0.4-0.2-0.8-0.5-1-0.8c-0.2-0.4-0.4-0.8-0.5-1.2
			c-0.1-0.4-0.2-0.9-0.2-1.4c0-1.2,0.3-2.2,0.9-2.8c0.6-0.6,1.4-0.9,2.4-0.9c0.9,0,1.6,0.3,2.1,0.8c0.5,0.5,0.7,1.3,0.7,2.2
			c0,0.4,0,0.6-0.1,0.9h-5c0,1,0.2,1.7,0.6,2.1c0.4,0.4,0.9,0.6,1.7,0.6c0.5,0,0.9-0.1,1.2-0.3s0.5-0.6,0.6-1l0.9,0.2
			c-0.1,0.7-0.5,1.2-0.9,1.5C1189.8,8637,1189.2,8637.2,1188.4,8637.2z M1186.2,8632.9h4.1c0-1.6-0.6-2.3-1.9-2.3
			c-0.6,0-1.1,0.2-1.6,0.6C1186.5,8631.5,1186.3,8632.1,1186.2,8632.9z"/>
		<path class="st5" d="M1196.6,8629.7h0.2v1c-0.4-0.1-0.9,0-1.4,0.1c-0.5,0.1-0.9,0.4-1.2,0.7v5.5h-0.9v-7.2h0.8l0.1,1
			c0.3-0.4,0.7-0.7,1-0.9C1195.6,8629.8,1196.1,8629.7,1196.6,8629.7z"/>
		<path class="st5" d="M1201.8,8636l0.2,0.7c-0.4,0.3-1,0.4-1.6,0.4c-0.6,0-1.1-0.2-1.4-0.5c-0.3-0.3-0.5-0.8-0.5-1.5v-4.6h-1.1
			v-0.8h1.1v-2.1l0.9-0.1v2.2h2v0.8h-2v4.5c0,0.4,0.1,0.8,0.2,1c0.2,0.2,0.5,0.3,0.9,0.3C1200.9,8636.4,1201.4,8636.3,1201.8,8636z"
			/>
		<path class="st5" d="M1207.4,8638.8l0.6,0.3c-0.1,0.3-0.4,0.6-0.6,0.7s-0.6,0.3-0.9,0.3c-0.4,0-0.7-0.1-0.9-0.3s-0.4-0.5-0.4-0.9
			c0-0.6,0.3-1.2,1-1.8h-0.1c-0.6,0-1.1-0.1-1.5-0.3c-0.4-0.2-0.8-0.5-1-0.8s-0.4-0.8-0.5-1.2c-0.1-0.4-0.2-0.9-0.2-1.4
			c0-1.2,0.3-2.2,0.9-2.8c0.6-0.6,1.4-0.9,2.4-0.9c0.9,0,1.6,0.3,2.1,0.8c0.5,0.5,0.7,1.3,0.7,2.2c0,0.4,0,0.6-0.1,0.9h-5
			c0,1,0.2,1.7,0.6,2.1c0.4,0.4,0.9,0.6,1.7,0.6c0.5,0,0.9-0.1,1.2-0.3s0.5-0.6,0.6-1l0.9,0.2c-0.2,0.7-0.6,1.3-1.2,1.8
			c-0.9,0.6-1.4,1.3-1.4,1.9c0,0.4,0.2,0.6,0.6,0.6C1207,8639.4,1207.2,8639.2,1207.4,8638.8z M1203.8,8632.9h4.1
			c0-1.6-0.6-2.3-1.9-2.3c-0.6,0-1.1,0.2-1.6,0.6C1204,8631.5,1203.8,8632.1,1203.8,8632.9z"/>
		<path class="st5" d="M1219.9,8632.2v4.8h-0.9v-4.7c0-0.6-0.1-1-0.3-1.3c-0.2-0.3-0.6-0.4-1.1-0.4c-0.4,0-0.9,0.1-1.3,0.3
			c-0.4,0.2-0.8,0.4-1.1,0.7v5.4h-0.9v-7.2h0.8l0.1,0.9c0.9-0.7,1.8-1,2.7-1C1219.1,8629.7,1219.9,8630.5,1219.9,8632.2z"/>
		<path class="st5" d="M1227.2,8632.2v3.7c0,0.2,0,0.4,0.1,0.4s0.2,0.1,0.3,0.1c0.1,0,0.3,0,0.4-0.1l0.1,0.6
			c-0.3,0.1-0.6,0.2-0.9,0.2c-0.6,0-0.9-0.3-0.9-0.9c-0.6,0.6-1.4,0.9-2.4,0.9c-0.4,0-0.8-0.1-1.1-0.2c-0.3-0.1-0.5-0.3-0.7-0.5
			s-0.2-0.4-0.3-0.6c-0.1-0.2-0.1-0.4-0.1-0.6c0-1.6,1.2-2.4,3.5-2.4c0.1,0,0.4,0,0.9,0v-0.7c0-0.6-0.1-1-0.3-1.3
			c-0.2-0.3-0.6-0.4-1.2-0.4c-0.5,0-0.9,0.1-1.2,0.3c-0.3,0.2-0.4,0.5-0.5,1l-0.9-0.2c0.2-1.3,1.1-1.9,2.6-1.9
			c0.9,0,1.5,0.2,1.9,0.6C1227,8630.7,1227.2,8631.3,1227.2,8632.2z M1226.3,8635.4v-1.8c-0.2,0-0.5,0-0.9,0c-0.6,0-1.1,0.1-1.6,0.2
			c-0.6,0.2-0.9,0.6-0.9,1.3c0,0.9,0.5,1.3,1.4,1.3c0.4,0,0.8-0.1,1.1-0.3C1225.7,8636,1226,8635.7,1226.3,8635.4z"/>
	</g>
	<g class="st2">
		<path class="st5" d="M943.2,8709h-2.7v-10.1h2.9c1.7,0,2.9,0.4,3.8,1.3c0.8,0.8,1.3,2.1,1.3,3.7c0,1.6-0.4,2.9-1.3,3.8
			C946.2,8708.5,944.9,8709,943.2,8709z M941.4,8699.7v8.5h1.8c1.4,0,2.4-0.4,3.1-1.1c0.7-0.7,1.1-1.8,1.1-3.1c0-1.6-0.3-2.7-1-3.3
			c-0.7-0.6-1.7-1-3.1-1H941.4z"/>
		<path class="st5" d="M953.2,8709.2c-2.1,0-3.2-1.2-3.2-3.7c0-1.2,0.3-2.1,0.9-2.8c0.6-0.7,1.4-1,2.5-1c1,0,1.8,0.3,2.3,0.9
			c0.5,0.6,0.8,1.5,0.8,2.6C956.5,8707.9,955.4,8709.2,953.2,8709.2z M953.3,8708.4c1.5,0,2.2-1,2.2-3c0-1-0.2-1.7-0.5-2.2
			c-0.4-0.4-0.9-0.7-1.6-0.7c-0.8,0-1.3,0.2-1.8,0.7s-0.6,1.2-0.6,2.2C950.9,8707.4,951.7,8708.4,953.3,8708.4z"/>
		<path class="st5" d="M958.5,8698.4h0.9v4.4l1.3-0.6v0.9l-1.3,0.6v5.3h-0.9v-4.9l-1.2,0.6v-0.9l1.2-0.6V8698.4z"/>
		<path class="st5" d="M967.7,8710.8l0.6,0.3c-0.1,0.3-0.4,0.6-0.6,0.7s-0.6,0.3-0.9,0.3c-0.4,0-0.7-0.1-0.9-0.3
			c-0.2-0.2-0.4-0.5-0.4-0.9c0-0.6,0.4-1.3,1.1-1.9c-0.3-0.1-0.4-0.4-0.4-0.8c-0.6,0.6-1.4,0.9-2.4,0.9c-0.4,0-0.8-0.1-1.1-0.2
			c-0.3-0.1-0.5-0.3-0.7-0.5s-0.2-0.4-0.3-0.6c-0.1-0.2-0.1-0.4-0.1-0.6c0-1.6,1.2-2.4,3.5-2.4c0.1,0,0.4,0,0.9,0v-0.7
			c0-0.6-0.1-1-0.3-1.3c-0.2-0.3-0.6-0.4-1.2-0.4c-0.5,0-0.9,0.1-1.2,0.3c-0.3,0.2-0.4,0.5-0.5,1l-0.9-0.2c0.2-1.3,1.1-1.9,2.6-1.9
			c0.9,0,1.5,0.2,1.9,0.6c0.4,0.4,0.6,1,0.6,1.9v3.7c0,0.2,0,0.4,0.1,0.4s0.2,0.1,0.3,0.1c0.1,0,0.3,0,0.4-0.1l0.1,0.6
			c-0.4,0.2-0.7,0.4-1.1,0.8c-0.3,0.4-0.5,0.7-0.5,1.1c0,0.4,0.2,0.6,0.6,0.6C967.3,8711.4,967.5,8711.2,967.7,8710.8z M966,8707.4
			v-1.8c-0.2,0-0.5,0-0.9,0c-0.6,0-1.1,0.1-1.6,0.2c-0.6,0.2-0.9,0.6-0.9,1.3c0,0.9,0.5,1.3,1.4,1.3c0.4,0,0.8-0.1,1.1-0.3
			C965.5,8708,965.8,8707.7,966,8707.4z"/>
		<path class="st5" d="M972.1,8709.2c-1.1,0-1.9-0.3-2.4-1s-0.8-1.6-0.8-2.7c0-1.2,0.3-2.2,0.9-2.8c0.6-0.6,1.4-1,2.5-1
			c0.8,0,1.4,0.2,1.8,0.6s0.7,1,0.8,1.8l-0.9,0.1c-0.1-1.1-0.7-1.7-1.8-1.7c-0.6,0-1.2,0.2-1.7,0.7c-0.4,0.4-0.7,1.2-0.7,2.2
			c0,1.1,0.2,1.9,0.6,2.3c0.4,0.4,1,0.7,1.7,0.7c1.1,0,1.7-0.5,1.9-1.6l0.9,0.2c-0.1,0.7-0.4,1.3-0.9,1.7
			C973.5,8709,972.9,8709.2,972.1,8709.2z"/>
		<path class="st5" d="M981.5,8701.8v0.7l-4.3,5.7h4.5v0.8h-5.6v-0.7l4.3-5.7h-4.2v-0.8H981.5z"/>
		<path class="st5" d="M987.9,8704.2v3.7c0,0.2,0,0.4,0.1,0.4s0.2,0.1,0.3,0.1c0.1,0,0.3,0,0.4-0.1l0.1,0.6
			c-0.3,0.1-0.6,0.2-0.9,0.2c-0.6,0-0.9-0.3-0.9-0.9c-0.6,0.6-1.4,0.9-2.4,0.9c-0.4,0-0.8-0.1-1.1-0.2c-0.3-0.1-0.5-0.3-0.7-0.5
			s-0.2-0.4-0.3-0.6c-0.1-0.2-0.1-0.4-0.1-0.6c0-1.6,1.2-2.4,3.5-2.4c0.1,0,0.4,0,0.9,0v-0.7c0-0.6-0.1-1-0.3-1.3
			c-0.2-0.3-0.6-0.4-1.2-0.4c-0.5,0-0.9,0.1-1.2,0.3c-0.3,0.2-0.4,0.5-0.5,1l-0.9-0.2c0.2-1.3,1.1-1.9,2.6-1.9
			c0.9,0,1.5,0.2,1.9,0.6C987.7,8702.7,987.9,8703.3,987.9,8704.2z M986.9,8707.4v-1.8c-0.2,0-0.5,0-0.9,0c-0.6,0-1.1,0.1-1.6,0.2
			c-0.6,0.2-0.9,0.6-0.9,1.3c0,0.9,0.5,1.3,1.4,1.3c0.4,0,0.8-0.1,1.1-0.3C986.4,8708,986.7,8707.7,986.9,8707.4z"/>
		<path class="st5" d="M991.4,8703.6v5.4h-0.9v-7.2h0.8l0.1,0.9c0.9-0.7,1.8-1,2.5-1c0.9,0,1.5,0.3,1.8,1c0.9-0.7,1.8-1,2.6-1
			c0.7,0,1.2,0.2,1.5,0.6s0.5,1,0.5,1.9v4.8h-0.9v-4.7c0-0.6-0.1-1.1-0.3-1.3c-0.2-0.3-0.5-0.4-1-0.4c-0.3,0-0.7,0.1-1.1,0.3
			c-0.4,0.2-0.8,0.4-1.1,0.7c0,0.2,0,0.4,0,0.7v4.8h-0.9v-4.7c0-0.6-0.1-1.1-0.3-1.3c-0.2-0.3-0.5-0.4-1-0.4c-0.4,0-0.8,0.1-1.2,0.3
			C992,8703.1,991.6,8703.3,991.4,8703.6z"/>
		<path class="st5" d="M1004,8709.1l-2.6-7.2h1l2.1,6l2.2-6h1l-2.9,7.6c-0.4,1-0.7,1.7-1.1,2.1c-0.4,0.4-0.8,0.6-1.4,0.6
			c-0.5,0-0.9-0.1-1.3-0.3l0.1-0.7c0.4,0.1,0.8,0.2,1.2,0.2c0.4,0,0.7-0.2,1-0.5C1003.5,8710.5,1003.7,8709.9,1004,8709.1z"/>
		<path class="st5" d="M1015.7,8708l0.2,0.7c-0.4,0.3-1,0.4-1.6,0.4s-1.1-0.2-1.4-0.5c-0.3-0.3-0.5-0.8-0.5-1.5v-4.6h-1.1v-0.8h1.1
			v-2.1l0.9-0.1v2.2h2v0.8h-2v4.5c0,0.4,0.1,0.8,0.2,1c0.2,0.2,0.5,0.3,0.9,0.3C1014.8,8708.4,1015.3,8708.3,1015.7,8708z"/>
		<path class="st5" d="M1019.9,8709.2c-0.6,0-1.1-0.1-1.5-0.3c-0.4-0.2-0.8-0.5-1-0.8c-0.2-0.4-0.4-0.8-0.5-1.2
			c-0.1-0.4-0.2-0.9-0.2-1.4c0-1.2,0.3-2.2,0.9-2.8c0.6-0.6,1.4-0.9,2.4-0.9c0.9,0,1.6,0.3,2.1,0.8c0.5,0.5,0.7,1.3,0.7,2.2
			c0,0.4,0,0.6-0.1,0.9h-5c0,1,0.2,1.7,0.6,2.1c0.4,0.4,0.9,0.6,1.7,0.6c0.5,0,0.9-0.1,1.2-0.3s0.5-0.6,0.6-1l0.9,0.2
			c-0.1,0.7-0.5,1.2-0.9,1.5C1021.2,8709,1020.6,8709.2,1019.9,8709.2z M1017.7,8704.9h4.1c0-1.6-0.6-2.3-1.9-2.3
			c-0.6,0-1.1,0.2-1.6,0.6C1018,8703.5,1017.7,8704.1,1017.7,8704.9z"/>
		<path class="st5" d="M1029.1,8701.8v0.7l-4.3,5.7h4.5v0.8h-5.6v-0.7l4.3-5.7h-4.2v-0.8H1029.1z M1025.7,8699.5
			c0-0.5,0.3-0.7,0.8-0.7c0.5,0,0.8,0.2,0.8,0.7c0,0.5-0.3,0.7-0.8,0.7C1026,8700.2,1025.7,8700,1025.7,8699.5z"/>
		<path class="st5" d="M1038.8,8698.4h0.9v10.6h-0.8l-0.1-0.8c-0.8,0.6-1.6,1-2.5,1c-1.8,0-2.7-1.2-2.7-3.7c0-1.3,0.3-2.3,0.8-2.9
			c0.6-0.6,1.3-0.9,2.2-0.9c0.8,0,1.5,0.2,2.1,0.7V8698.4z M1038.8,8707.3v-4.1c-0.7-0.5-1.4-0.7-2.1-0.7c-1.4,0-2.1,1-2.1,3.1
			c0,1,0.2,1.7,0.5,2.2c0.3,0.5,0.8,0.7,1.5,0.7c0.4,0,0.8-0.1,1.2-0.3C1038.1,8707.9,1038.5,8707.7,1038.8,8707.3z"/>
		<path class="st5" d="M1044.9,8709.2c-2.1,0-3.2-1.2-3.2-3.7c0-1.2,0.3-2.1,0.9-2.8c0.6-0.7,1.4-1,2.5-1c1,0,1.8,0.3,2.3,0.9
			c0.5,0.6,0.8,1.5,0.8,2.6C1048.2,8707.9,1047.1,8709.2,1044.9,8709.2z M1045,8708.4c1.5,0,2.2-1,2.2-3c0-1-0.2-1.7-0.5-2.2
			c-0.4-0.4-0.9-0.7-1.6-0.7c-0.8,0-1.3,0.2-1.8,0.7s-0.6,1.2-0.6,2.2C1042.6,8707.4,1043.4,8708.4,1045,8708.4z"/>
		<path class="st5" d="M1054.8,8698.4h0.9v10.6h-0.8l-0.1-0.8c-0.8,0.6-1.6,1-2.5,1c-1.8,0-2.7-1.2-2.7-3.7c0-1.3,0.3-2.3,0.8-2.9
			c0.6-0.6,1.3-0.9,2.2-0.9c0.8,0,1.5,0.2,2.1,0.7V8698.4z M1054.8,8707.3v-4.1c-0.7-0.5-1.4-0.7-2.1-0.7c-1.4,0-2.1,1-2.1,3.1
			c0,1,0.2,1.7,0.5,2.2c0.3,0.5,0.8,0.7,1.5,0.7c0.4,0,0.8-0.1,1.2-0.3C1054.2,8707.9,1054.5,8707.7,1054.8,8707.3z"/>
		<path class="st5" d="M1063.1,8704.2v3.7c0,0.2,0,0.4,0.1,0.4s0.2,0.1,0.3,0.1c0.1,0,0.3,0,0.4-0.1l0.1,0.6
			c-0.3,0.1-0.6,0.2-0.9,0.2c-0.6,0-0.9-0.3-0.9-0.9c-0.6,0.6-1.4,0.9-2.4,0.9c-0.4,0-0.8-0.1-1.1-0.2c-0.3-0.1-0.5-0.3-0.7-0.5
			s-0.2-0.4-0.3-0.6c-0.1-0.2-0.1-0.4-0.1-0.6c0-1.6,1.2-2.4,3.5-2.4c0.1,0,0.4,0,0.9,0v-0.7c0-0.6-0.1-1-0.3-1.3
			c-0.2-0.3-0.6-0.4-1.2-0.4c-0.5,0-0.9,0.1-1.2,0.3c-0.3,0.2-0.4,0.5-0.5,1l-0.9-0.2c0.2-1.3,1.1-1.9,2.6-1.9
			c0.9,0,1.5,0.2,1.9,0.6C1062.9,8702.7,1063.1,8703.3,1063.1,8704.2z M1062.2,8707.4v-1.8c-0.2,0-0.5,0-0.9,0
			c-0.6,0-1.1,0.1-1.6,0.2c-0.6,0.2-0.9,0.6-0.9,1.3c0,0.9,0.5,1.3,1.4,1.3c0.4,0,0.8-0.1,1.1-0.3
			C1061.6,8708,1061.9,8707.7,1062.2,8707.4z"/>
		<path class="st5" d="M1069,8708l0.2,0.7c-0.4,0.3-1,0.4-1.6,0.4s-1.1-0.2-1.4-0.5c-0.3-0.3-0.5-0.8-0.5-1.5v-4.6h-1.1v-0.8h1.1
			v-2.1l0.9-0.1v2.2h2v0.8h-2v4.5c0,0.4,0.1,0.8,0.2,1c0.2,0.2,0.5,0.3,0.9,0.3C1068.1,8708.4,1068.5,8708.3,1069,8708z"/>
		<path class="st5" d="M1070.6,8698.4h0.9v6.9l3.4-3.5h1.1l-2.5,2.6l2.7,4.6h-1l-2.4-3.9l-1.3,1.3v2.6h-0.9V8698.4z"/>
		<path class="st5" d="M1080.2,8709.2c-2.1,0-3.2-1.2-3.2-3.7c0-1.2,0.3-2.1,0.9-2.8c0.6-0.7,1.4-1,2.5-1c1,0,1.8,0.3,2.3,0.9
			c0.5,0.6,0.8,1.5,0.8,2.6C1083.5,8707.9,1082.4,8709.2,1080.2,8709.2z M1080.3,8708.4c1.5,0,2.2-1,2.2-3c0-1-0.2-1.7-0.5-2.2
			c-0.4-0.4-0.9-0.7-1.6-0.7c-0.8,0-1.3,0.2-1.8,0.7s-0.6,1.2-0.6,2.2C1078,8707.4,1078.8,8708.4,1080.3,8708.4z"/>
		<path class="st5" d="M1089.4,8702.9l-1.6,6.1h-1.1l-2.3-7.2h1l1.9,6.2l1.7-6.2h1l1.7,6.2l1.9-6.2h0.9l-2.3,7.2h-1.1L1089.4,8702.9
			z"/>
		<path class="st5" d="M1098.6,8709.2c-0.6,0-1.1-0.1-1.5-0.3c-0.4-0.2-0.8-0.5-1-0.8s-0.4-0.8-0.5-1.2c-0.1-0.4-0.2-0.9-0.2-1.4
			c0-1.2,0.3-2.2,0.9-2.8c0.6-0.6,1.4-0.9,2.4-0.9c0.9,0,1.6,0.3,2.1,0.8c0.5,0.5,0.7,1.3,0.7,2.2c0,0.4,0,0.6-0.1,0.9h-5
			c0,1,0.2,1.7,0.6,2.1c0.4,0.4,0.9,0.6,1.7,0.6c0.5,0,0.9-0.1,1.2-0.3s0.5-0.6,0.6-1l0.9,0.2c-0.1,0.7-0.5,1.2-0.9,1.5
			C1099.9,8709,1099.3,8709.2,1098.6,8709.2z M1096.3,8704.9h4.1c0-1.6-0.6-2.3-1.9-2.3c-0.6,0-1.1,0.2-1.6,0.6
			C1096.6,8703.5,1096.4,8704.1,1096.3,8704.9z"/>
		<path class="st5" d="M1106.4,8699.4c0-0.5,0.3-0.7,0.8-0.7s0.8,0.2,0.8,0.7s-0.3,0.7-0.8,0.7S1106.4,8699.9,1106.4,8699.4z
			 M1106.7,8701.8h0.9v7.2h-0.9V8701.8z"/>
		<path class="st5" d="M1115.8,8704.2v4.8h-0.9v-4.7c0-0.6-0.1-1-0.4-1.3c-0.2-0.3-0.6-0.4-1.1-0.4c-0.4,0-0.9,0.1-1.3,0.3
			c-0.4,0.2-0.8,0.4-1.1,0.7v5.4h-0.9v-7.2h0.8l0.1,0.9c0.9-0.7,1.8-1,2.7-1C1115.1,8701.7,1115.8,8702.5,1115.8,8704.2z"/>
		<path class="st5" d="M1121.5,8698.5l0,0.8c-0.3-0.1-0.7-0.2-1-0.2c-0.7,0-1.1,0.4-1.1,1.3v1.4h2v0.8h-2v6.4h-0.9v-6.4h-1.1v-0.8
			h1.1v-1.3c0-1.5,0.6-2.2,1.9-2.2C1120.8,8698.3,1121.2,8698.4,1121.5,8698.5z"/>
		<path class="st5" d="M1125,8709.2c-2.1,0-3.2-1.2-3.2-3.7c0-1.2,0.3-2.1,0.9-2.8c0.6-0.7,1.4-1,2.5-1c1,0,1.8,0.3,2.3,0.9
			c0.5,0.6,0.8,1.5,0.8,2.6C1128.2,8707.9,1127.1,8709.2,1125,8709.2z M1125,8708.4c1.5,0,2.2-1,2.2-3c0-1-0.2-1.7-0.5-2.2
			c-0.4-0.4-0.9-0.7-1.6-0.7c-0.8,0-1.3,0.2-1.8,0.7c-0.4,0.5-0.6,1.2-0.6,2.2C1122.7,8707.4,1123.5,8708.4,1125,8708.4z"/>
		<path class="st5" d="M1133.6,8701.7h0.2v1c-0.4-0.1-0.9,0-1.4,0.1c-0.5,0.1-0.9,0.4-1.2,0.7v5.5h-0.9v-7.2h0.8l0.1,1
			c0.3-0.4,0.7-0.7,1-0.9C1132.5,8701.8,1133,8701.7,1133.6,8701.7z"/>
		<path class="st5" d="M1136.1,8703.6v5.4h-0.9v-7.2h0.8l0.1,0.9c0.9-0.7,1.8-1,2.5-1c0.9,0,1.5,0.3,1.8,1c0.9-0.7,1.8-1,2.6-1
			c0.7,0,1.2,0.2,1.5,0.6s0.5,1,0.5,1.9v4.8h-0.9v-4.7c0-0.6-0.1-1.1-0.3-1.3c-0.2-0.3-0.5-0.4-1-0.4c-0.3,0-0.7,0.1-1.1,0.3
			c-0.4,0.2-0.8,0.4-1.1,0.7c0,0.2,0,0.4,0,0.7v4.8h-0.9v-4.7c0-0.6-0.1-1.1-0.3-1.3c-0.2-0.3-0.5-0.4-1-0.4c-0.4,0-0.8,0.1-1.2,0.3
			C1136.8,8703.1,1136.4,8703.3,1136.1,8703.6z"/>
		<path class="st5" d="M1152.3,8704.2v3.7c0,0.2,0,0.4,0.1,0.4s0.2,0.1,0.3,0.1c0.1,0,0.3,0,0.4-0.1l0.1,0.6
			c-0.3,0.1-0.6,0.2-0.9,0.2c-0.6,0-0.9-0.3-0.9-0.9c-0.6,0.6-1.4,0.9-2.4,0.9c-0.4,0-0.8-0.1-1.1-0.2c-0.3-0.1-0.5-0.3-0.7-0.5
			s-0.2-0.4-0.3-0.6c-0.1-0.2-0.1-0.4-0.1-0.6c0-1.6,1.2-2.4,3.5-2.4c0.1,0,0.4,0,0.9,0v-0.7c0-0.6-0.1-1-0.3-1.3
			c-0.2-0.3-0.6-0.4-1.2-0.4c-0.5,0-0.9,0.1-1.2,0.3c-0.3,0.2-0.4,0.5-0.5,1l-0.9-0.2c0.2-1.3,1.1-1.9,2.6-1.9
			c0.9,0,1.5,0.2,1.9,0.6C1152.1,8702.7,1152.3,8703.3,1152.3,8704.2z M1151.4,8707.4v-1.8c-0.2,0-0.5,0-0.9,0
			c-0.6,0-1.1,0.1-1.6,0.2c-0.6,0.2-0.9,0.6-0.9,1.3c0,0.9,0.5,1.3,1.4,1.3c0.4,0,0.8-0.1,1.1-0.3
			C1150.8,8708,1151.1,8707.7,1151.4,8707.4z"/>
		<path class="st5" d="M1157.5,8709.2c-1.1,0-1.9-0.3-2.4-1s-0.8-1.6-0.8-2.7c0-1.2,0.3-2.2,0.9-2.8c0.6-0.6,1.4-1,2.5-1
			c0.8,0,1.4,0.2,1.8,0.6c0.5,0.4,0.7,1,0.8,1.8l-0.9,0.1c-0.1-1.1-0.7-1.7-1.8-1.7c-0.6,0-1.2,0.2-1.7,0.7
			c-0.4,0.4-0.7,1.2-0.7,2.2c0,1.1,0.2,1.9,0.6,2.3c0.4,0.4,1,0.7,1.7,0.7c1.1,0,1.7-0.5,1.9-1.6l0.9,0.2c-0.1,0.7-0.4,1.3-0.9,1.7
			S1158.2,8709.2,1157.5,8709.2z"/>
		<path class="st5" d="M1161.3,8712.1c-0.6,0-1-0.1-1.2-0.2l0.1-0.8c0.4,0.1,0.7,0.2,1,0.2c0.6,0,1-0.4,1-1.2v-8.3h0.9v8.3
			C1163.2,8711.5,1162.6,8712.1,1161.3,8712.1z M1162,8699.4c0-0.5,0.3-0.7,0.8-0.7c0.5,0,0.8,0.2,0.8,0.7s-0.3,0.7-0.8,0.7
			C1162.2,8700.1,1162,8699.9,1162,8699.4z"/>
		<path class="st5" d="M1168.3,8709.2c-0.6,0-1.1-0.1-1.5-0.3c-0.4-0.2-0.8-0.5-1-0.8c-0.2-0.4-0.4-0.8-0.5-1.2
			c-0.1-0.4-0.2-0.9-0.2-1.4c0-1.2,0.3-2.2,0.9-2.8c0.6-0.6,1.4-0.9,2.4-0.9c0.9,0,1.6,0.3,2.1,0.8c0.5,0.5,0.7,1.3,0.7,2.2
			c0,0.4,0,0.6-0.1,0.9h-5c0,1,0.2,1.7,0.6,2.1c0.4,0.4,0.9,0.6,1.7,0.6c0.5,0,0.9-0.1,1.2-0.3s0.5-0.6,0.6-1l0.9,0.2
			c-0.1,0.7-0.5,1.2-0.9,1.5C1169.6,8709,1169,8709.2,1168.3,8709.2z M1166.1,8704.9h4.1c0-1.6-0.6-2.3-1.9-2.3
			c-0.6,0-1.1,0.2-1.6,0.6C1166.4,8703.5,1166.1,8704.1,1166.1,8704.9z"/>
		<path class="st5" d="M1172.6,8710.8l-0.7-0.1l0.7-2.9h1.1L1172.6,8710.8z"/>
		<path class="st5" d="M1178.9,8698.4h0.9v6.9l3.4-3.5h1.1l-2.5,2.6l2.7,4.6h-1l-2.4-3.9l-1.3,1.3v2.6h-0.9V8698.4z"/>
		<path class="st5" d="M1189.5,8708l0.2,0.7c-0.4,0.3-1,0.4-1.6,0.4s-1.1-0.2-1.4-0.5s-0.5-0.8-0.5-1.5v-4.6h-1.1v-0.8h1.1v-2.1
			l0.9-0.1v2.2h2v0.8h-2v4.5c0,0.4,0.1,0.8,0.2,1c0.2,0.2,0.5,0.3,0.9,0.3C1188.7,8708.4,1189.1,8708.3,1189.5,8708z"/>
		<path class="st5" d="M1193.8,8709.2c-2.1,0-3.2-1.2-3.2-3.7c0-1.2,0.3-2.1,0.9-2.8c0.6-0.7,1.4-1,2.5-1c1,0,1.8,0.3,2.3,0.9
			c0.5,0.6,0.8,1.5,0.8,2.6C1197,8707.9,1196,8709.2,1193.8,8709.2z M1193.8,8708.4c1.5,0,2.2-1,2.2-3c0-1-0.2-1.7-0.5-2.2
			c-0.4-0.4-0.9-0.7-1.6-0.7c-0.8,0-1.3,0.2-1.8,0.7s-0.6,1.2-0.6,2.2C1191.5,8707.4,1192.3,8708.4,1193.8,8708.4z M1194.3,8698.5
			h1.2l-2,2.5l-0.7-0.2L1194.3,8698.5z"/>
		<path class="st5" d="M1202.4,8701.7h0.2v1c-0.4-0.1-0.9,0-1.4,0.1c-0.5,0.1-0.9,0.4-1.2,0.7v5.5h-0.9v-7.2h0.8l0.1,1
			c0.3-0.4,0.7-0.7,1-0.9S1201.8,8701.7,1202.4,8701.7z"/>
		<path class="st5" d="M1206.5,8709.2c-0.6,0-1.1-0.1-1.5-0.3c-0.4-0.2-0.8-0.5-1-0.8c-0.2-0.4-0.4-0.8-0.5-1.2
			c-0.1-0.4-0.2-0.9-0.2-1.4c0-1.2,0.3-2.2,0.9-2.8c0.6-0.6,1.4-0.9,2.4-0.9c0.9,0,1.6,0.3,2.1,0.8c0.5,0.5,0.7,1.3,0.7,2.2
			c0,0.4,0,0.6-0.1,0.9h-5c0,1,0.2,1.7,0.6,2.1c0.4,0.4,0.9,0.6,1.7,0.6c0.5,0,0.9-0.1,1.2-0.3s0.5-0.6,0.6-1l0.9,0.2
			c-0.1,0.7-0.5,1.2-0.9,1.5C1207.8,8709,1207.2,8709.2,1206.5,8709.2z M1204.3,8704.9h4.1c0-1.6-0.6-2.3-1.9-2.3
			c-0.6,0-1.1,0.2-1.6,0.6C1204.6,8703.5,1204.3,8704.1,1204.3,8704.9z"/>
	</g>
	<g class="st2">
		<path class="st5" d="M941.2,8736h-0.9v-10.1h0.8l0.1,0.9c0.8-0.7,1.7-1,2.6-1c1.7,0,2.6,1.2,2.6,3.5c0,1.3-0.3,2.3-0.9,3
			c-0.6,0.6-1.3,1-2.2,1c-0.7,0-1.4-0.3-2.1-0.8V8736z M941.2,8727.5v4c0.7,0.6,1.4,0.9,2.1,0.9c1.4,0,2.1-1.1,2.1-3.2
			c0-1-0.1-1.7-0.4-2.1c-0.3-0.4-0.8-0.6-1.4-0.6c-0.4,0-0.8,0.1-1.2,0.3S941.5,8727.2,941.2,8727.5z"/>
		<path class="st5" d="M951.1,8733.2c-2.1,0-3.2-1.2-3.2-3.7c0-1.2,0.3-2.1,0.9-2.8c0.6-0.7,1.4-1,2.5-1c1,0,1.8,0.3,2.3,0.9
			c0.5,0.6,0.8,1.5,0.8,2.6C954.3,8731.9,953.3,8733.2,951.1,8733.2z M951.1,8732.4c1.5,0,2.2-1,2.2-3c0-1-0.2-1.7-0.5-2.2
			c-0.4-0.4-0.9-0.7-1.6-0.7c-0.8,0-1.3,0.2-1.8,0.7s-0.6,1.2-0.6,2.2C948.8,8731.4,949.6,8732.4,951.1,8732.4z"/>
		<path class="st5" d="M960.3,8726.9l-1.6,6.1h-1.1l-2.3-7.2h1l1.9,6.2l1.7-6.2h1l1.7,6.2l1.9-6.2h0.9l-2.3,7.2h-1.1L960.3,8726.9z"
			/>
		<path class="st5" d="M966.4,8723.4c0-0.5,0.3-0.7,0.8-0.7s0.8,0.2,0.8,0.7s-0.3,0.7-0.8,0.7S966.4,8723.9,966.4,8723.4z
			 M966.7,8725.8h0.9v7.2h-0.9V8725.8z"/>
		<path class="st5" d="M972.8,8733.2c-0.6,0-1.1-0.1-1.5-0.3c-0.4-0.2-0.8-0.5-1-0.8c-0.2-0.4-0.4-0.8-0.5-1.2
			c-0.1-0.4-0.2-0.9-0.2-1.4c0-1.2,0.3-2.2,0.9-2.8c0.6-0.6,1.4-0.9,2.4-0.9c0.9,0,1.6,0.3,2.1,0.8c0.5,0.5,0.7,1.3,0.7,2.2
			c0,0.4,0,0.6-0.1,0.9h-5c0,1,0.2,1.7,0.6,2.1c0.4,0.4,0.9,0.6,1.7,0.6c0.5,0,0.9-0.1,1.2-0.3s0.5-0.6,0.6-1l0.9,0.2
			c-0.1,0.7-0.5,1.2-0.9,1.5C974.1,8733,973.5,8733.2,972.8,8733.2z M970.6,8728.9h4.1c0-1.6-0.6-2.3-1.9-2.3
			c-0.6,0-1.1,0.2-1.6,0.6C970.8,8727.5,970.6,8728.1,970.6,8728.9z"/>
		<path class="st5" d="M982.3,8722.4h0.9v10.6h-0.8l-0.1-0.8c-0.8,0.6-1.6,1-2.5,1c-1.8,0-2.7-1.2-2.7-3.7c0-1.3,0.3-2.3,0.8-2.9
			c0.6-0.6,1.3-0.9,2.2-0.9c0.8,0,1.5,0.2,2.1,0.7V8722.4z M982.3,8731.3v-4.1c-0.7-0.5-1.4-0.7-2.1-0.7c-1.4,0-2.1,1-2.1,3.1
			c0,1,0.2,1.7,0.5,2.2c0.3,0.5,0.8,0.7,1.5,0.7c0.4,0,0.8-0.1,1.2-0.3C981.7,8731.9,982,8731.7,982.3,8731.3z"/>
		<path class="st5" d="M990.3,8725.8v0.7l-4.3,5.7h4.5v0.8h-5.6v-0.7l4.3-5.7H985v-0.8H990.3z"/>
		<path class="st5" d="M997.4,8734.8l0.6,0.3c-0.1,0.3-0.4,0.6-0.6,0.7s-0.6,0.3-0.9,0.3c-0.4,0-0.7-0.1-0.9-0.3
			c-0.2-0.2-0.4-0.5-0.4-0.9c0-0.6,0.4-1.3,1.1-1.9c-0.3-0.1-0.4-0.4-0.4-0.8c-0.6,0.6-1.4,0.9-2.4,0.9c-0.4,0-0.8-0.1-1.1-0.2
			c-0.3-0.1-0.5-0.3-0.7-0.5s-0.2-0.4-0.3-0.6c-0.1-0.2-0.1-0.4-0.1-0.6c0-1.6,1.2-2.4,3.5-2.4c0.1,0,0.4,0,0.9,0v-0.7
			c0-0.6-0.1-1-0.3-1.3c-0.2-0.3-0.6-0.4-1.2-0.4c-0.5,0-0.9,0.1-1.2,0.3c-0.3,0.2-0.4,0.5-0.5,1l-0.9-0.2c0.2-1.3,1.1-1.9,2.6-1.9
			c0.9,0,1.5,0.2,1.9,0.6c0.4,0.4,0.6,1,0.6,1.9v3.7c0,0.2,0,0.4,0.1,0.4s0.2,0.1,0.3,0.1c0.1,0,0.3,0,0.4-0.1l0.1,0.6
			c-0.4,0.2-0.7,0.4-1.1,0.8c-0.3,0.4-0.5,0.7-0.5,1.1c0,0.4,0.2,0.6,0.6,0.6C997,8735.4,997.2,8735.2,997.4,8734.8z M995.8,8731.4
			v-1.8c-0.2,0-0.5,0-0.9,0c-0.6,0-1.1,0.1-1.6,0.2c-0.6,0.2-0.9,0.6-0.9,1.3c0,0.9,0.5,1.3,1.4,1.3c0.4,0,0.8-0.1,1.1-0.3
			C995.2,8732,995.5,8731.7,995.8,8731.4z"/>
		<path class="st5" d="M1005.2,8733.2c-2.1,0-3.2-1.2-3.2-3.7c0-1.2,0.3-2.1,0.9-2.8c0.6-0.7,1.4-1,2.5-1c1,0,1.8,0.3,2.3,0.9
			c0.5,0.6,0.8,1.5,0.8,2.6C1008.5,8731.9,1007.4,8733.2,1005.2,8733.2z M1005.3,8732.4c1.5,0,2.2-1,2.2-3c0-1-0.2-1.7-0.5-2.2
			c-0.4-0.4-0.9-0.7-1.6-0.7c-0.8,0-1.3,0.2-1.8,0.7s-0.6,1.2-0.6,2.2C1002.9,8731.4,1003.7,8732.4,1005.3,8732.4z"/>
		<path class="st5" d="M1019.5,8728.2v4.8h-0.9v-4.7c0-0.6-0.1-1-0.4-1.3c-0.2-0.3-0.6-0.4-1.1-0.4c-0.4,0-0.9,0.1-1.3,0.3
			c-0.4,0.2-0.8,0.4-1.1,0.7v5.4h-0.9v-7.2h0.8l0.1,0.9c0.9-0.7,1.8-1,2.7-1C1018.7,8725.7,1019.5,8726.5,1019.5,8728.2z"/>
		<path class="st5" d="M1026.8,8728.2v3.7c0,0.2,0,0.4,0.1,0.4s0.2,0.1,0.3,0.1c0.1,0,0.3,0,0.4-0.1l0.1,0.6
			c-0.3,0.1-0.6,0.2-0.9,0.2c-0.6,0-0.9-0.3-0.9-0.9c-0.6,0.6-1.4,0.9-2.4,0.9c-0.4,0-0.8-0.1-1.1-0.2c-0.3-0.1-0.5-0.3-0.7-0.5
			s-0.2-0.4-0.3-0.6c-0.1-0.2-0.1-0.4-0.1-0.6c0-1.6,1.2-2.4,3.5-2.4c0.1,0,0.4,0,0.9,0v-0.7c0-0.6-0.1-1-0.3-1.3
			c-0.2-0.3-0.6-0.4-1.2-0.4c-0.5,0-0.9,0.1-1.2,0.3c-0.3,0.2-0.4,0.5-0.5,1l-0.9-0.2c0.2-1.3,1.1-1.9,2.6-1.9
			c0.9,0,1.5,0.2,1.9,0.6C1026.6,8726.7,1026.8,8727.3,1026.8,8728.2z M1025.9,8731.4v-1.8c-0.2,0-0.5,0-0.9,0
			c-0.6,0-1.1,0.1-1.6,0.2c-0.6,0.2-0.9,0.6-0.9,1.3c0,0.9,0.5,1.3,1.4,1.3c0.4,0,0.8-0.1,1.1-0.3
			C1025.3,8732,1025.6,8731.7,1025.9,8731.4z"/>
		<path class="st5" d="M1031.5,8725.7c0.8,0,1.4,0.2,1.8,0.5s0.6,0.9,0.7,1.6l-0.9,0.1c-0.1-0.5-0.3-0.9-0.5-1.1
			c-0.2-0.2-0.6-0.3-1.1-0.3c-1,0-1.5,0.4-1.5,1.2c0,0.4,0.1,0.6,0.4,0.8c0.2,0.2,0.7,0.3,1.4,0.5c0.4,0.1,0.6,0.2,0.8,0.2
			c0.1,0,0.3,0.1,0.6,0.2c0.4,0.1,0.6,0.4,0.8,0.6c0.2,0.3,0.2,0.6,0.3,1.1c0,0.6-0.2,1.1-0.7,1.5s-1.1,0.5-2,0.5
			c-1.7,0-2.6-0.7-2.8-2.2l0.9-0.2c0.1,0.5,0.3,0.9,0.6,1.2s0.7,0.4,1.3,0.4c1.1,0,1.7-0.4,1.7-1.2c0-0.4-0.1-0.6-0.4-0.8
			c-0.3-0.2-0.7-0.3-1.3-0.5l-0.4-0.1l-0.5-0.1l-0.4-0.1c-0.2-0.1-0.3-0.1-0.4-0.2c0,0-0.1-0.1-0.2-0.1s-0.2-0.2-0.3-0.2
			c-0.1-0.1-0.1-0.1-0.2-0.2c-0.1-0.4-0.2-0.7-0.2-1c0-0.7,0.2-1.2,0.7-1.5C1030.2,8725.9,1030.8,8725.7,1031.5,8725.7z"/>
		<path class="st5" d="M1042.8,8732l0.2,0.7c-0.4,0.3-1,0.4-1.6,0.4s-1.1-0.2-1.4-0.5c-0.3-0.3-0.5-0.8-0.5-1.5v-4.6h-1.1v-0.8h1.1
			v-2.1l0.9-0.1v2.2h2v0.8h-2v4.5c0,0.4,0.1,0.8,0.2,1c0.2,0.2,0.5,0.3,0.9,0.3C1042,8732.4,1042.4,8732.3,1042.8,8732z"/>
		<path class="st5" d="M1047.7,8725.7h0.2v1c-0.4-0.1-0.9,0-1.4,0.1c-0.5,0.1-0.9,0.4-1.2,0.7v5.5h-0.9v-7.2h0.8l0.1,1
			c0.3-0.4,0.7-0.7,1-0.9C1046.7,8725.8,1047.2,8725.7,1047.7,8725.7z"/>
		<path class="st5" d="M1051.9,8733.2c-2.1,0-3.2-1.2-3.2-3.7c0-1.2,0.3-2.1,0.9-2.8c0.6-0.7,1.4-1,2.5-1c1,0,1.8,0.3,2.3,0.9
			c0.5,0.6,0.8,1.5,0.8,2.6C1055.2,8731.9,1054.1,8733.2,1051.9,8733.2z M1052,8732.4c1.5,0,2.2-1,2.2-3c0-1-0.2-1.7-0.5-2.2
			c-0.4-0.4-0.9-0.7-1.6-0.7c-0.8,0-1.3,0.2-1.8,0.7s-0.6,1.2-0.6,2.2C1049.6,8731.4,1050.4,8732.4,1052,8732.4z"/>
		<path class="st5" d="M1059.9,8733.2c-1.1,0-1.9-0.3-2.4-1s-0.8-1.6-0.8-2.7c0-1.2,0.3-2.2,0.9-2.8c0.6-0.6,1.4-1,2.5-1
			c0.8,0,1.4,0.2,1.8,0.6s0.7,1,0.8,1.8l-0.9,0.1c-0.1-1.1-0.7-1.7-1.8-1.7c-0.6,0-1.2,0.2-1.7,0.7c-0.4,0.4-0.7,1.2-0.7,2.2
			c0,1.1,0.2,1.9,0.6,2.3c0.4,0.4,1,0.7,1.7,0.7c1.1,0,1.7-0.5,1.9-1.6l0.9,0.2c-0.1,0.7-0.4,1.3-0.9,1.7
			C1061.3,8733,1060.7,8733.2,1059.9,8733.2z"/>
		<path class="st5" d="M1070.4,8728.2v4.8h-0.9v-4.7c0-0.6-0.1-1-0.4-1.3c-0.2-0.3-0.6-0.4-1.1-0.4c-0.4,0-0.9,0.1-1.3,0.3
			c-0.4,0.2-0.8,0.4-1.1,0.7v5.4h-0.9v-10.6h0.9v4.3c0.9-0.7,1.8-1,2.6-1C1069.7,8725.7,1070.4,8726.5,1070.4,8728.2z"/>
		<path class="st5" d="M1077,8734.8l0.6,0.3c-0.1,0.3-0.4,0.6-0.6,0.7s-0.6,0.3-0.9,0.3c-0.4,0-0.7-0.1-0.9-0.3
			c-0.2-0.2-0.4-0.5-0.4-0.9c0-0.6,0.3-1.2,1-1.8h-0.1c-0.6,0-1.1-0.1-1.5-0.3c-0.4-0.2-0.8-0.5-1-0.8c-0.2-0.4-0.4-0.8-0.5-1.2
			c-0.1-0.4-0.2-0.9-0.2-1.4c0-1.2,0.3-2.2,0.9-2.8c0.6-0.6,1.4-0.9,2.4-0.9c0.9,0,1.6,0.3,2.1,0.8c0.5,0.5,0.7,1.3,0.7,2.2
			c0,0.4,0,0.6-0.1,0.9h-5c0,1,0.2,1.7,0.6,2.1c0.4,0.4,0.9,0.6,1.7,0.6c0.5,0,0.9-0.1,1.2-0.3s0.5-0.6,0.6-1l0.9,0.2
			c-0.2,0.7-0.6,1.3-1.2,1.8c-0.9,0.6-1.4,1.3-1.4,1.9c0,0.4,0.2,0.6,0.6,0.6C1076.5,8735.4,1076.8,8735.2,1077,8734.8z
			 M1073.4,8728.9h4.1c0-1.6-0.6-2.3-1.9-2.3c-0.6,0-1.1,0.2-1.6,0.6C1073.6,8727.5,1073.4,8728.1,1073.4,8728.9z"/>
		<path class="st5" d="M1087.6,8726.9l-1.6,6.1h-1.1l-2.3-7.2h1l1.9,6.2l1.7-6.2h1l1.7,6.2l1.9-6.2h0.9l-2.3,7.2h-1.1L1087.6,8726.9
			z"/>
		<path class="st5" d="M1093.8,8723.4c0-0.5,0.3-0.7,0.8-0.7s0.8,0.2,0.8,0.7s-0.3,0.7-0.8,0.7S1093.8,8723.9,1093.8,8723.4z
			 M1094,8725.8h0.9v7.2h-0.9V8725.8z"/>
		<path class="st5" d="M1101.6,8734.8l0.6,0.3c-0.1,0.3-0.4,0.6-0.6,0.7s-0.6,0.3-0.9,0.3c-0.4,0-0.7-0.1-0.9-0.3
			c-0.2-0.2-0.4-0.5-0.4-0.9c0-0.6,0.3-1.2,1-1.8h-0.1c-0.6,0-1.1-0.1-1.5-0.3c-0.4-0.2-0.8-0.5-1-0.8c-0.2-0.4-0.4-0.8-0.5-1.2
			c-0.1-0.4-0.2-0.9-0.2-1.4c0-1.2,0.3-2.2,0.9-2.8c0.6-0.6,1.4-0.9,2.4-0.9c0.9,0,1.6,0.3,2.1,0.8c0.5,0.5,0.7,1.3,0.7,2.2
			c0,0.4,0,0.6-0.1,0.9h-5c0,1,0.2,1.7,0.6,2.1c0.4,0.4,0.9,0.6,1.7,0.6c0.5,0,0.9-0.1,1.2-0.3s0.5-0.6,0.6-1l0.9,0.2
			c-0.2,0.7-0.6,1.3-1.2,1.8c-0.9,0.6-1.4,1.3-1.4,1.9c0,0.4,0.2,0.6,0.6,0.6C1101.1,8735.4,1101.4,8735.2,1101.6,8734.8z
			 M1097.9,8728.9h4.1c0-1.6-0.6-2.3-1.9-2.3c-0.6,0-1.1,0.2-1.6,0.6C1098.2,8727.5,1098,8728.1,1097.9,8728.9z"/>
		<path class="st5" d="M1107.8,8733.2c-1.1,0-1.9-0.3-2.4-1s-0.8-1.6-0.8-2.7c0-1.2,0.3-2.2,0.9-2.8c0.6-0.6,1.4-1,2.5-1
			c0.8,0,1.4,0.2,1.8,0.6c0.5,0.4,0.7,1,0.8,1.8l-0.9,0.1c-0.1-1.1-0.7-1.7-1.8-1.7c-0.6,0-1.2,0.2-1.7,0.7
			c-0.4,0.4-0.7,1.2-0.7,2.2c0,1.1,0.2,1.9,0.6,2.3c0.4,0.4,1,0.7,1.7,0.7c1.1,0,1.7-0.5,1.9-1.6l0.9,0.2c-0.1,0.7-0.4,1.3-0.9,1.7
			S1108.5,8733.2,1107.8,8733.2z"/>
		<path class="st5" d="M1115.3,8733.2c-0.6,0-1.1-0.1-1.5-0.3c-0.4-0.2-0.8-0.5-1-0.8s-0.4-0.8-0.5-1.2c-0.1-0.4-0.2-0.9-0.2-1.4
			c0-1.2,0.3-2.2,0.9-2.8c0.6-0.6,1.4-0.9,2.4-0.9c0.9,0,1.6,0.3,2.1,0.8c0.5,0.5,0.7,1.3,0.7,2.2c0,0.4,0,0.6-0.1,0.9h-5
			c0,1,0.2,1.7,0.6,2.1s0.9,0.6,1.7,0.6c0.5,0,0.9-0.1,1.2-0.3s0.5-0.6,0.6-1l0.9,0.2c-0.1,0.7-0.5,1.2-0.9,1.5
			C1116.6,8733,1116,8733.2,1115.3,8733.2z M1113.1,8728.9h4.1c0-1.6-0.6-2.3-1.9-2.3c-0.6,0-1.1,0.2-1.6,0.6
			C1113.3,8727.5,1113.1,8728.1,1113.1,8728.9z"/>
		<path class="st5" d="M1119.3,8736.1c-0.6,0-1-0.1-1.2-0.2l0.1-0.8c0.4,0.1,0.7,0.2,1,0.2c0.6,0,1-0.4,1-1.2v-8.3h0.9v8.3
			C1121.1,8735.5,1120.5,8736.1,1119.3,8736.1z M1119.9,8723.4c0-0.5,0.3-0.7,0.8-0.7s0.8,0.2,0.8,0.7s-0.3,0.7-0.8,0.7
			S1119.9,8723.9,1119.9,8723.4z"/>
		<path class="st5" d="M1123,8726.9c0-0.5,0.3-0.8,0.8-0.8s0.8,0.3,0.8,0.8c0,0.5-0.3,0.8-0.8,0.8S1123,8727.4,1123,8726.9z
			 M1123,8732.4c0-0.5,0.3-0.8,0.8-0.8s0.8,0.3,0.8,0.8s-0.3,0.8-0.8,0.8S1123,8732.9,1123,8732.4z"/>
	</g>
	<g class="st2">
		<path class="st5" d="M943.1,8597.1h-1.7v3.9h-0.9v-10.1h3.1c1.2,0,2,0.3,2.6,0.8c0.5,0.5,0.8,1.3,0.8,2.2
			C946.9,8596,945.7,8597.1,943.1,8597.1z M941.4,8591.7v4.6h1.7c0.7,0,1.3-0.1,1.7-0.3c0.8-0.3,1.2-1,1.2-2.2
			c0-0.9-0.3-1.5-0.8-1.8c-0.5-0.3-1.3-0.4-2.5-0.4H941.4z"/>
		<path class="st5" d="M953.2,8596.2v3.7c0,0.2,0,0.4,0.1,0.4s0.2,0.1,0.3,0.1c0.1,0,0.3,0,0.4-0.1l0.1,0.6
			c-0.3,0.1-0.6,0.2-0.9,0.2c-0.6,0-0.9-0.3-0.9-0.9c-0.6,0.6-1.4,0.9-2.4,0.9c-0.4,0-0.8-0.1-1.1-0.2c-0.3-0.1-0.5-0.3-0.7-0.5
			s-0.2-0.4-0.3-0.6c-0.1-0.2-0.1-0.4-0.1-0.6c0-1.6,1.2-2.4,3.5-2.4c0.1,0,0.4,0,0.9,0v-0.7c0-0.6-0.1-1-0.3-1.3
			c-0.2-0.3-0.6-0.4-1.2-0.4c-0.5,0-0.9,0.1-1.2,0.3c-0.3,0.2-0.4,0.5-0.5,1l-0.9-0.2c0.2-1.3,1.1-1.9,2.6-1.9
			c0.9,0,1.5,0.2,1.9,0.6C953,8594.7,953.2,8595.3,953.2,8596.2z M952.2,8599.4v-1.8c-0.2,0-0.5,0-0.9,0c-0.6,0-1.1,0.1-1.6,0.2
			c-0.6,0.2-0.9,0.6-0.9,1.3c0,0.9,0.5,1.3,1.4,1.3c0.4,0,0.8-0.1,1.1-0.3C951.7,8600,952,8599.7,952.2,8599.4z"/>
		<path class="st5" d="M961.5,8596.2v4.8h-0.9v-4.7c0-0.6-0.1-1-0.4-1.3c-0.2-0.3-0.6-0.4-1.1-0.4c-0.4,0-0.9,0.1-1.3,0.3
			c-0.4,0.2-0.8,0.4-1.1,0.7v5.4h-0.9v-7.2h0.8l0.1,0.9c0.9-0.7,1.8-1,2.7-1C960.7,8593.7,961.5,8594.5,961.5,8596.2z"/>
		<path class="st5" d="M963.6,8591.4c0-0.5,0.3-0.7,0.8-0.7s0.8,0.2,0.8,0.7s-0.3,0.7-0.8,0.7S963.6,8591.9,963.6,8591.4z
			 M963.9,8593.8h0.9v7.2h-0.9V8593.8z"/>
		<path class="st5" d="M970,8601.2c-0.6,0-1.1-0.1-1.5-0.3c-0.4-0.2-0.8-0.5-1-0.8c-0.2-0.4-0.4-0.8-0.5-1.2
			c-0.1-0.4-0.2-0.9-0.2-1.4c0-1.2,0.3-2.2,0.9-2.8c0.6-0.6,1.4-0.9,2.4-0.9c0.9,0,1.6,0.3,2.1,0.8c0.5,0.5,0.7,1.3,0.7,2.2
			c0,0.4,0,0.6-0.1,0.9h-5c0,1,0.2,1.7,0.6,2.1c0.4,0.4,0.9,0.6,1.7,0.6c0.5,0,0.9-0.1,1.2-0.3s0.5-0.6,0.6-1l0.9,0.2
			c-0.1,0.7-0.5,1.2-0.9,1.5C971.3,8601,970.7,8601.2,970,8601.2z M967.8,8596.9h4.1c0-1.6-0.6-2.3-1.9-2.3c-0.6,0-1.1,0.2-1.6,0.6
			C968,8595.5,967.8,8596.1,967.8,8596.9z"/>
	</g>
	<g class="st2">
		<path class="st6" d="M942,8655.1h-1.6v4.6h1.6v1.4h-3.3v-7.4h3.3V8655.1z"/>
		<path class="st6" d="M947.6,8660.2c-1.3,0-2.3-0.3-3.1-0.9c-0.8-0.6-1.1-1.4-1.1-2.5c0-1.1,0.4-1.9,1.1-2.5
			c0.8-0.6,1.8-0.9,3.1-0.9c1.3,0,2.3,0.3,3.1,0.9c0.8,0.6,1.1,1.4,1.1,2.5c0,1.1-0.4,1.9-1.1,2.5
			C950,8659.9,948.9,8660.2,947.6,8660.2z M946.2,8658.1c0.4,0.3,0.8,0.4,1.4,0.4c0.6,0,1.1-0.1,1.4-0.4s0.5-0.7,0.5-1.2
			c0-0.5-0.2-0.9-0.5-1.2c-0.4-0.3-0.8-0.4-1.4-0.4c-0.6,0-1.1,0.1-1.4,0.4c-0.4,0.3-0.5,0.7-0.5,1.2
			C945.7,8657.4,945.9,8657.8,946.2,8658.1z"/>
		<path class="st6" d="M958.1,8653.7c0.9,0,1.7,0.2,2.2,0.6s0.8,0.9,0.8,1.7s-0.3,1.3-0.8,1.7c-0.5,0.4-1.3,0.6-2.2,0.6h-2.2v1.8
			h-2.2v-6.3H958.1z M958,8656.8c0.6,0,1-0.3,1-0.8c0-0.5-0.3-0.7-1-0.7h-2v1.5H958z"/>
		<path class="st6" d="M965.1,8660h-2.2v-6.3h2.2V8660z"/>
		<path class="st6" d="M970.8,8655.9c0.6,0,1.1,0.1,1.5,0.2s0.8,0.2,1.1,0.3c0.3,0.2,0.6,0.4,0.8,0.6c0.2,0.3,0.3,0.6,0.3,0.9
			c0,0.7-0.3,1.2-0.9,1.6c-0.6,0.4-1.5,0.6-2.6,0.6c-1.7,0-3-0.4-4.1-1.2l1.1-1.3c0.8,0.6,1.8,0.9,3,0.9c0.9,0,1.3-0.2,1.3-0.5
			c0-0.2-0.1-0.3-0.3-0.3c-0.2-0.1-0.6-0.1-1.2-0.2c-0.5,0-1-0.1-1.4-0.2s-0.8-0.2-1.1-0.4c-0.4-0.2-0.6-0.4-0.8-0.6
			c-0.2-0.3-0.3-0.6-0.3-0.9c0-0.7,0.3-1.2,1-1.6c0.7-0.4,1.5-0.6,2.6-0.6c1.4,0,2.6,0.3,3.5,0.9l-1,1.3c-0.7-0.4-1.5-0.7-2.5-0.7
			c-0.9,0-1.4,0.1-1.4,0.4c0,0.1,0.1,0.2,0.4,0.3C969.8,8655.8,970.2,8655.8,970.8,8655.9z"/>
		<path class="st6" d="M983.1,8653.7v1.3l-4,3.4h4.2v1.6h-7.3v-1.3l4-3.4h-3.9v-1.6H983.1z"/>
		<path class="st6" d="M995.1,8653.7v1.3l-4,3.4h4.2v1.6h-7.3v-1.3l4-3.4h-3.9v-1.6H995.1z"/>
		<path class="st6" d="M1002.9,8660l-0.5-1.1h-3.1l-0.5,1.1h-2.3l3.2-6.3h2.4l3.2,6.3H1002.9z M999.9,8657.5h1.8l-0.9-1.9
			L999.9,8657.5z"/>
		<path class="st6" d="M1014.4,8660h-2.6l-1.8-2.5l-1.2,1.1v1.4h-2.2v-6.3h2.2v2.7l2.7-2.7h2.7l-2.7,2.5L1014.4,8660z"/>
		<path class="st6" d="M1023.5,8660h-2.5l-1.5-1.9h-1.5v1.9h-2.2v-6.3h4.5c0.9,0,1.6,0.2,2.2,0.6s0.8,0.9,0.8,1.7
			c0,0.5-0.1,0.9-0.4,1.3c-0.3,0.3-0.7,0.6-1.2,0.8L1023.5,8660z M1018,8656.7h2.1c0.6,0,1-0.2,1-0.7c0-0.5-0.3-0.7-1-0.7h-2.1
			V8656.7z"/>
		<path class="st6" d="M1027.4,8658.4h4.8v1.6h-6.9v-6.3h6.8v1.6h-4.7v0.8h3.8v1.5h-3.8V8658.4z"/>
		<path class="st6" d="M1037.6,8655.9c0.6,0,1.1,0.1,1.5,0.2s0.8,0.2,1.1,0.3c0.3,0.2,0.6,0.4,0.8,0.6c0.2,0.3,0.3,0.6,0.3,0.9
			c0,0.7-0.3,1.2-0.9,1.6c-0.6,0.4-1.5,0.6-2.6,0.6c-1.7,0-3-0.4-4.1-1.2l1.1-1.3c0.8,0.6,1.8,0.9,3,0.9c0.9,0,1.3-0.2,1.3-0.5
			c0-0.2-0.1-0.3-0.3-0.3c-0.2-0.1-0.6-0.1-1.2-0.2c-0.5,0-1-0.1-1.4-0.2s-0.8-0.2-1.1-0.4c-0.4-0.2-0.6-0.4-0.8-0.6
			c-0.2-0.3-0.3-0.6-0.3-0.9c0-0.7,0.3-1.2,1-1.6c0.7-0.4,1.5-0.6,2.6-0.6c1.4,0,2.6,0.3,3.5,0.9l-1,1.3c-0.7-0.4-1.5-0.7-2.5-0.7
			c-0.9,0-1.4,0.1-1.4,0.4c0,0.1,0.1,0.2,0.4,0.3C1036.6,8655.8,1037,8655.8,1037.6,8655.9z"/>
		<path class="st6" d="M1042.7,8655.1v-1.4h3.3v7.4h-3.3v-1.4h1.6v-4.6H1042.7z"/>
	</g>
	<g class="st2">
		<path class="st6" d="M983,8595.1h-1.6v4.6h1.6v1.4h-3.3v-7.4h3.3V8595.1z"/>
		<path class="st6" d="M987,8600h-2.2v-6.3h2.2V8600z"/>
		<path class="st6" d="M995.8,8593.7h2.3v6.3H996v-3.7l-2.3,2.8h-0.1l-2.3-2.8v3.7h-2.1v-6.3h2.4l2.1,2.7L995.8,8593.7z"/>
		<path class="st6" d="M1002.6,8600h-2.2v-6.3h2.2V8600z"/>
		<path class="st6" d="M1011.8,8601.3l0.3,0.4c-0.3,0.4-0.7,0.6-1.4,0.6c-0.4,0-0.8-0.1-1.1-0.3s-0.4-0.5-0.4-0.8
			c0-0.3,0.1-0.5,0.3-0.7s0.4-0.4,0.8-0.5h-5.6v-6.3h6.8v1.6h-4.7v0.8h3.8v1.5h-3.8v0.9h4.8v1.6c-0.3,0.1-0.5,0.3-0.7,0.4
			c-0.2,0.2-0.3,0.4-0.3,0.6c0,0.1,0.1,0.3,0.2,0.4s0.2,0.1,0.4,0.1C1011.5,8601.5,1011.7,8601.5,1011.8,8601.3z"/>
		<path class="st6" d="M1024.4,8600h-2.6l-1.8-2.5l-1.2,1.1v1.4h-2.2v-6.3h2.2v2.7l2.7-2.7h2.7l-2.7,2.5L1024.4,8600z"/>
		<path class="st6" d="M1028.1,8598.3h4v1.7h-6.2v-6.3h2.2V8598.3z"/>
		<path class="st6" d="M1036,8600h-2.2v-6.3h2.2V8600z"/>
		<path class="st6" d="M1040.3,8598.4h4.8v1.6h-6.9v-6.3h6.8v1.6h-4.7v0.8h3.8v1.5h-3.8V8598.4z"/>
		<path class="st6" d="M1052.6,8593.7h2.1v6.3h-1.9l-3.7-3.8v3.8h-2.1v-6.3h2.3l3.2,3.4V8593.7z"/>
		<path class="st6" d="M1063.5,8593.7v1.7h-2.5v4.6h-2.2v-4.6h-2.5v-1.7H1063.5z"/>
		<path class="st6" d="M1070,8600l-0.5-1.1h-3.1l-0.5,1.1h-2.3l3.2-6.3h2.4l3.2,6.3H1070z M1067,8597.5h1.8l-0.9-1.9L1067,8597.5z"
			/>
		<path class="st6" d="M1073.5,8595.1v-1.4h3.3v7.4h-3.3v-1.4h1.6v-4.6H1073.5z"/>
	</g>
	<g class="st2">
		<path class="st6" d="M942,8752.1h-1.6v4.6h1.6v1.4h-3.3v-7.4h3.3V8752.1z"/>
		<path class="st6" d="M952.5,8750.7h2.2l-2.3,6.3h-2.2l-1.3-4l-1.3,4h-2.2l-2.3-6.3h2.2l1.2,4l1.3-4h2l1.3,4L952.5,8750.7z"/>
		<path class="st6" d="M955.5,8750.7h2.4l1.6,2.5l1.6-2.5h2.4l-2.9,4.2v2.1h-2.2v-2.1L955.5,8750.7z"/>
		<path class="st6" d="M971.6,8750.7h2.3v6.3h-2.2v-3.7l-2.3,2.8h-0.1l-2.3-2.8v3.7H965v-6.3h2.4l2.1,2.7L971.6,8750.7z"/>
		<path class="st6" d="M978.3,8757h-2.2v-6.3h2.2V8757z"/>
		<path class="st6" d="M982.6,8755.4h4.8v1.6h-6.9v-6.3h6.8v1.6h-4.7v0.8h3.8v1.5h-3.8V8755.4z"/>
		<path class="st6" d="M994.9,8750.7h2.1v6.3h-1.9l-3.7-3.8v3.8h-2.1v-6.3h2.3l3.2,3.4V8750.7z M995.7,8748.4l-2.2,1.6H992l1.2-1.6
			H995.7z"/>
		<path class="st6" d="M1009.2,8750.7v1.3l-4,3.4h4.2v1.6h-7.3v-1.3l4-3.4h-3.9v-1.6H1009.2z"/>
		<path class="st6" d="M1016.9,8757l-0.5-1.1h-3.1l-0.5,1.1h-2.3l3.2-6.3h2.4l3.2,6.3H1016.9z M1013.9,8754.5h1.8l-0.9-1.9
			L1013.9,8754.5z"/>
		<path class="st6" d="M1023.5,8755.3h4v1.7h-6.2v-2.1l-1,0.4v-1.3l1-0.4v-2.9h2.2v1.9l1.8-0.8v1.3l-1.8,0.8V8755.3z"/>
		<path class="st6" d="M1037.4,8758.3l0.3,0.4c-0.3,0.4-0.7,0.6-1.4,0.6c-0.4,0-0.8-0.1-1.1-0.3s-0.4-0.5-0.4-0.8
			c0-0.3,0.1-0.5,0.3-0.7s0.4-0.4,0.8-0.5h-0.9l-0.5-1.1h-3.1l-0.5,1.1h-2.3l3.2-6.3h2.4l3.2,6.3c-0.3,0.1-0.5,0.3-0.7,0.4
			c-0.2,0.2-0.3,0.4-0.3,0.6c0,0.1,0.1,0.3,0.2,0.4s0.2,0.1,0.4,0.1C1037.1,8758.5,1037.3,8758.5,1037.4,8758.3z M1031.9,8754.5h1.8
			l-0.9-1.9L1031.9,8754.5z"/>
		<path class="st6" d="M1042.1,8755.5c0.8,0,1.4-0.3,1.8-0.9l1.8,1c-0.3,0.5-0.8,0.9-1.4,1.2c-0.6,0.3-1.4,0.5-2.2,0.5
			c-1.2,0-2.2-0.3-2.9-0.9c-0.7-0.6-1.1-1.4-1.1-2.5c0-1.1,0.4-1.9,1.1-2.5s1.7-0.9,3-0.9c0.8,0,1.5,0.2,2.2,0.5
			c0.6,0.3,1.1,0.7,1.4,1.2l-1.8,0.9c-0.4-0.6-1-0.9-1.7-0.9c-0.6,0-1,0.1-1.4,0.4c-0.3,0.3-0.5,0.7-0.5,1.2c0,0.5,0.2,0.9,0.5,1.2
			C1041,8755.3,1041.5,8755.5,1042.1,8755.5z"/>
		<path class="st6" d="M1054.2,8750.7v1.3l-4,3.4h4.2v1.6h-7.3v-1.3l4-3.4h-3.9v-1.6H1054.2z"/>
		<path class="st6" d="M1061.8,8750.7h2.1v6.3h-1.9l-3.7-3.8v3.8h-2.1v-6.3h2.3l3.2,3.4V8750.7z"/>
		<path class="st6" d="M1068.3,8757h-2.2v-6.3h2.2V8757z"/>
		<path class="st6" d="M1078.2,8757h-2.6l-1.8-2.5l-1.2,1.1v1.4h-2.2v-6.3h2.2v2.7l2.7-2.7h2.7l-2.7,2.5L1078.2,8757z"/>
		<path class="st6" d="M1081.8,8757h-2.2v-6.3h2.2V8757z"/>
		<path class="st6" d="M1083.7,8752.1v-1.4h3.3v7.4h-3.3v-1.4h1.6v-4.6H1083.7z"/>
	</g>
	<g id="Group_1531" transform="translate(930.064 8515.385)">
		<g id="Group_1528" transform="translate(32.974)">
			<g id="Group_1527">
				<path id="Path_3068" d="M-9-8c-1.6,0-3,1.3-3,3s1.3,3,3,3s3-1.3,3-3c0,0,0,0,0,0C-6.1-6.7-7.4-8-9-8z"/>
			</g>
		</g>
		<g id="Group_1530" transform="translate(31 6.581)">
			<g id="Group_1529">
				<path id="Path_3069" d="M-3.4-6.7C-4.2-7.5-5.3-8-6.4-8h-1.3c-1.1,0-2.2,0.5-3,1.3c-0.8,0.8-1.3,1.9-1.3,3
					c0,0.2,0.1,0.3,0.3,0.3c0,0,0,0,0,0h9.2c0.2,0,0.3-0.1,0.3-0.3l0,0C-2.1-4.8-2.6-5.9-3.4-6.7z"/>
			</g>
		</g>
	</g>
</g>
</svg>
