<?xml version="1.0" encoding="utf-8"?>
<!-- Generator: Adobe Illustrator 24.2.3, SVG Export Plug-In . SVG Version: 6.00 Build 0)  -->
<svg version="1.1" id="Layer_1" xmlns="http://www.w3.org/2000/svg" xmlns:xlink="http://www.w3.org/1999/xlink" x="0px" y="0px"
	 viewBox="0 0 373 333" style="enable-background:new 0 0 373 333;" xml:space="preserve">
<style type="text/css">
	.st0{fill:#FFFFFF;}
	.st1{fill:#E4EDEF;}
	.st2{fill:#FCF114;}
	.st3{enable-background:new    ;}
	.st4{fill:#1A1A1A;}
</style>
<g id="Group_1580" transform="translate(-901 -7240)">
	<g transform="matrix(1, 0, 0, 1, 901, 7240)">
		<rect id="Rectangle_4166-2" class="st0" width="373" height="333"/>
	</g>
	<g id="Group_1519" transform="translate(97 -430)">
		<path id="Rectangle_4167" class="st1" d="M851,7757h285c2.2,0,4,1.8,4,4l0,0c0,2.2-1.8,4-4,4H851c-2.2,0-4-1.8-4-4l0,0
			C847,7758.8,848.8,7757,851,7757z"/>
		<path id="Rectangle_4168" class="st1" d="M851,7774h272c2.2,0,4,1.8,4,4l0,0c0,2.2-1.8,4-4,4H851c-2.2,0-4-1.8-4-4l0,0
			C847,7775.8,848.8,7774,851,7774z"/>
		<path id="Rectangle_4169" class="st1" d="M851,7790h264c2.2,0,4,1.8,4,4l0,0c0,2.2-1.8,4-4,4H851c-2.2,0-4-1.8-4-4l0,0
			C847,7791.8,848.8,7790,851,7790z"/>
		<path id="Rectangle_4170" class="st1" d="M851,7807h155c2.2,0,4,1.8,4,4l0,0c0,2.2-1.8,4-4,4H851c-2.2,0-4-1.8-4-4l0,0
			C847,7808.8,848.8,7807,851,7807z"/>
	</g>
	<g id="Group_1520" transform="translate(97 -289)">
		<path id="Rectangle_4167-2" class="st1" d="M851,7757h285c2.2,0,4,1.8,4,4l0,0c0,2.2-1.8,4-4,4H851c-2.2,0-4-1.8-4-4l0,0
			C847,7758.8,848.8,7757,851,7757z"/>
		<path id="Rectangle_4168-2" class="st1" d="M851,7774h272c2.2,0,4,1.8,4,4l0,0c0,2.2-1.8,4-4,4H851c-2.2,0-4-1.8-4-4l0,0
			C847,7775.8,848.8,7774,851,7774z"/>
		<path id="Rectangle_4169-2" class="st1" d="M851,7790h264c2.2,0,4,1.8,4,4l0,0c0,2.2-1.8,4-4,4H851c-2.2,0-4-1.8-4-4l0,0
			C847,7791.8,848.8,7790,851,7790z"/>
		<path id="Rectangle_4170-2" class="st1" d="M851,7807h155c2.2,0,4,1.8,4,4l0,0c0,2.2-1.8,4-4,4H851c-2.2,0-4-1.8-4-4l0,0
			C847,7808.8,848.8,7807,851,7807z"/>
	</g>
	<path id="Rectangle_4185" class="st2" d="M959,7279h61c8.3,0,15,6.7,15,15l0,0c0,8.3-6.7,15-15,15h-61c-8.3,0-15-6.7-15-15l0,0
		C944,7285.7,950.7,7279,959,7279z"/>
	<path id="Rectangle_4186" class="st2" d="M959,7420h61c8.3,0,15,6.7,15,15l0,0c0,8.3-6.7,15-15,15h-61c-8.3,0-15-6.7-15-15l0,0
		C944,7426.7,950.7,7420,959,7420z"/>
	<g class="st3">
		<path class="st4" d="M961.7,7293.4c0.6,0.1,1.2,0.1,1.6,0.2c0.4,0.1,0.9,0.2,1.2,0.4c0.4,0.2,0.7,0.4,0.9,0.7
			c0.2,0.3,0.3,0.6,0.3,1c0,0.8-0.3,1.4-1,1.8c-0.7,0.4-1.7,0.7-2.9,0.7c-1.8,0-3.4-0.4-4.5-1.3l1.2-1.4c0.9,0.7,2,1,3.4,1
			c1,0,1.5-0.2,1.5-0.5c0-0.2-0.1-0.3-0.4-0.4c-0.2-0.1-0.7-0.1-1.3-0.2c-0.6-0.1-1.1-0.1-1.6-0.2c-0.4-0.1-0.9-0.2-1.3-0.4
			c-0.4-0.2-0.7-0.4-0.9-0.7c-0.2-0.3-0.3-0.6-0.3-1c0-0.7,0.4-1.3,1.1-1.7c0.7-0.4,1.7-0.6,2.8-0.6c1.6,0,2.9,0.3,3.9,1l-1.2,1.4
			c-0.7-0.5-1.7-0.7-2.8-0.7c-1,0-1.5,0.2-1.5,0.5c0,0.2,0.1,0.3,0.4,0.3C960.6,7293.3,961,7293.4,961.7,7293.4z"/>
		<path class="st4" d="M969.1,7296.2h5.3v1.8h-7.7v-7h7.6v1.8h-5.2v0.9h4.2v1.6h-4.2V7296.2z"/>
		<path class="st4" d="M984.1,7298h-2.8l-2-2.7l-1.3,1.2v1.5h-2.4v-7h2.4v3l3-3h2.9l-3,2.8L984.1,7298z"/>
		<path class="st4" d="M988.3,7296.3c0.9,0,1.5-0.3,2-1l2,1.1c-0.3,0.6-0.8,1-1.6,1.3c-0.7,0.3-1.5,0.5-2.5,0.5
			c-1.4,0-2.4-0.3-3.3-1c-0.8-0.7-1.2-1.6-1.2-2.7c0-1.2,0.4-2.1,1.2-2.7c0.8-0.7,1.9-1,3.3-1c0.9,0,1.7,0.2,2.4,0.5
			c0.7,0.3,1.2,0.8,1.5,1.3l-2,1c-0.4-0.7-1.1-1-1.9-1c-0.6,0-1.1,0.2-1.5,0.5c-0.4,0.3-0.6,0.8-0.6,1.3s0.2,1,0.6,1.3
			C987.2,7296.2,987.7,7296.3,988.3,7296.3z"/>
		<path class="st4" d="M993.9,7295.5c0.2,0.3,0.5,0.5,0.7,0.6c0.3,0.1,0.6,0.2,0.9,0.2c1,0,1.5-0.5,1.5-1.6v-3.7h2.4v3.9
			c0,1-0.3,1.8-1,2.5c-0.7,0.6-1.6,0.9-2.9,0.9c-1.4,0-2.5-0.4-3.2-1.3L993.9,7295.5z"/>
		<path class="st4" d="M1006.7,7298l-0.6-1.2h-3.5l-0.6,1.2h-2.5l3.6-7h2.6l3.5,7H1006.7z M1003.4,7295.2h2l-1-2.2L1003.4,7295.2z"
			/>
		<path class="st4" d="M1013.6,7298v-4.6c-0.5,0.3-1.2,0.5-2,0.7v-1.9c0.5-0.1,0.9-0.2,1.4-0.4c0.5-0.2,0.9-0.5,1.2-0.8h1.8v7
			H1013.6z"/>
	</g>
	<g class="st3">
		<path class="st4" d="M961.7,7434.4c0.6,0.1,1.2,0.1,1.6,0.2c0.4,0.1,0.9,0.2,1.2,0.4c0.4,0.2,0.7,0.4,0.9,0.7
			c0.2,0.3,0.3,0.6,0.3,1c0,0.8-0.3,1.4-1,1.8c-0.7,0.4-1.7,0.7-2.9,0.7c-1.8,0-3.4-0.4-4.5-1.3l1.2-1.4c0.9,0.7,2,1,3.4,1
			c1,0,1.5-0.2,1.5-0.5c0-0.2-0.1-0.3-0.4-0.4c-0.2-0.1-0.7-0.1-1.3-0.2c-0.6-0.1-1.1-0.1-1.6-0.2c-0.4-0.1-0.9-0.2-1.3-0.4
			c-0.4-0.2-0.7-0.4-0.9-0.7c-0.2-0.3-0.3-0.6-0.3-1c0-0.7,0.4-1.3,1.1-1.7c0.7-0.4,1.7-0.6,2.8-0.6c1.6,0,2.9,0.3,3.9,1l-1.2,1.4
			c-0.7-0.5-1.7-0.7-2.8-0.7c-1,0-1.5,0.2-1.5,0.5c0,0.2,0.1,0.3,0.4,0.3C960.6,7434.3,961,7434.4,961.7,7434.4z"/>
		<path class="st4" d="M969.1,7437.2h5.3v1.8h-7.7v-7h7.6v1.8h-5.2v0.9h4.2v1.6h-4.2V7437.2z"/>
		<path class="st4" d="M984.1,7439h-2.8l-2-2.7l-1.3,1.2v1.5h-2.4v-7h2.4v3l3-3h2.9l-3,2.8L984.1,7439z"/>
		<path class="st4" d="M988.4,7437.3c0.9,0,1.5-0.3,2-1l2,1.1c-0.3,0.6-0.8,1-1.6,1.3c-0.7,0.3-1.5,0.5-2.5,0.5
			c-1.4,0-2.4-0.3-3.3-1c-0.8-0.7-1.2-1.6-1.2-2.7c0-1.2,0.4-2.1,1.2-2.7c0.8-0.7,1.9-1,3.3-1c0.9,0,1.7,0.2,2.4,0.5
			c0.7,0.3,1.2,0.8,1.5,1.3l-2,1c-0.4-0.7-1.1-1-1.9-1c-0.6,0-1.1,0.2-1.5,0.5c-0.4,0.3-0.6,0.8-0.6,1.3s0.2,1,0.6,1.3
			C987.2,7437.2,987.7,7437.3,988.4,7437.3z"/>
		<path class="st4" d="M993.9,7436.5c0.2,0.3,0.5,0.5,0.7,0.6c0.3,0.1,0.6,0.2,0.9,0.2c1,0,1.5-0.5,1.5-1.6v-3.7h2.4v3.9
			c0,1-0.3,1.8-1,2.5c-0.7,0.6-1.6,0.9-2.9,0.9c-1.4,0-2.5-0.4-3.2-1.3L993.9,7436.5z"/>
		<path class="st4" d="M1006.7,7439l-0.6-1.2h-3.5l-0.6,1.2h-2.5l3.6-7h2.6l3.5,7H1006.7z M1003.4,7436.2h2l-1-2.2L1003.4,7436.2z"
			/>
		<path class="st4" d="M1011.7,7433.3c0.4-0.4,1-0.8,1.6-1.1c0.7-0.3,1.4-0.4,2.3-0.4c0.4,0,0.9,0,1.3,0.1c0.4,0.1,0.8,0.2,1.1,0.4
			c0.4,0.2,0.6,0.4,0.8,0.7s0.3,0.6,0.3,1c0,1.1-0.9,1.8-2.6,2.3c-1.2,0.4-1.9,0.7-2.1,0.9h4.9v1.8h-7.7v-1c0.1-0.7,0.4-1.3,1-1.9
			s1.4-1,2.4-1.2c0.7-0.2,1.2-0.4,1.4-0.5c0.2-0.1,0.2-0.2,0.2-0.3c0-0.2-0.1-0.3-0.4-0.4c-0.2-0.1-0.5-0.1-0.9-0.1
			c-0.9,0-1.7,0.4-2.5,1.1L1011.7,7433.3z"/>
	</g>
</g>
</svg>
