<?xml version="1.0" standalone="no"?>
<!DOCTYPE svg PUBLIC "-//W3C//DTD SVG 1.1//EN" "http://www.w3.org/Graphics/SVG/1.1/DTD/svg11.dtd" >
<svg xmlns="http://www.w3.org/2000/svg">
<metadata>Generated by IcoMoon</metadata>
<defs>
<font id="icomoon" horiz-adv-x="1024">
<font-face units-per-em="1024" ascent="960" descent="-64" />
<missing-glyph horiz-adv-x="1024" />
<glyph unicode="&#x20;" horiz-adv-x="512" d="" />
<glyph unicode="&#xe900;" glyph-name="align-center" horiz-adv-x="1479" d="M1194.667 539.022h-910.222c-34.133 0-56.889 22.756-56.889 56.889s22.756 56.889 56.889 56.889h910.222c34.133 0 56.889-22.756 56.889-56.889s-22.756-56.889-56.889-56.889zM1422.222 846.222h-1365.333c-34.133 0-56.889 22.756-56.889 56.889s22.756 56.889 56.889 56.889h1365.333c34.133 0 56.889-22.756 56.889-56.889s-22.756-56.889-56.889-56.889zM1422.222 243.2h-1365.333c-34.133 0-56.889 22.756-56.889 56.889s22.756 56.889 56.889 56.889h1365.333c34.133 0 56.889-22.756 56.889-56.889s-22.756-56.889-56.889-56.889zM1194.667-64h-910.222c-34.133 0-56.889 22.756-56.889 56.889s22.756 56.889 56.889 56.889h910.222c34.133 0 56.889-22.756 56.889-56.889s-22.756-56.889-56.889-56.889z" />
<glyph unicode="&#xe901;" glyph-name="box" horiz-adv-x="929" d="M862.316 752.713l-327.514 186.559c-41.457 24.874-95.352 24.874-136.81 0l-331.66-186.559c-41.457-24.874-66.332-70.478-66.332-116.081v-377.263c0-49.749 24.874-91.206 66.332-116.081l327.514-186.559c20.729-12.437 45.603-16.583 66.332-16.583 24.874 0 45.603 4.146 66.332 16.583l327.514 186.559c41.457 24.874 66.332 70.478 66.332 116.081v377.263c8.291 45.603-16.583 91.206-58.040 116.081zM439.449 868.794c8.291 4.146 16.583 8.291 24.874 8.291s16.583-4.146 24.874-8.291l310.931-178.267-335.806-194.85-339.951 194.85 315.077 178.267zM107.789 213.765c-16.583 8.291-24.874 29.020-24.874 45.603v360.68l339.951-194.85v-389.7l-315.077 178.267zM820.858 213.765l-315.077-178.267v389.7l339.951 194.85v-360.68c0-16.583-12.437-37.312-24.874-45.603z" />
<glyph unicode="&#xe902;" glyph-name="briefcase" horiz-adv-x="1110" d="M807.094 743.094v65.576c0 85.754-65.576 151.33-151.33 151.33h-201.773c-85.754 0-151.33-65.576-151.33-151.33v-65.576h-302.66v-807.094h1109.754v807.094h-302.66zM403.547 808.67c0 30.266 20.177 50.443 50.443 50.443h201.773c30.266 0 50.443-20.177 50.443-50.443v-65.576h-302.66v65.576zM706.207 642.207v-605.32h-302.66v605.32h302.66zM100.887 642.207h201.773v-605.32h-201.773v605.32zM1008.867 36.887h-201.773v605.32h201.773v-605.32z" />
<glyph unicode="&#xe903;" glyph-name="ellipse" d="M512-64c-285.257 0-512 226.743-512 512s226.743 512 512 512c285.257 0 512-226.743 512-512s-226.743-512-512-512zM512 886.857c-241.371 0-438.857-197.486-438.857-438.857s197.486-438.857 438.857-438.857 438.857 197.486 438.857 438.857-197.486 438.857-438.857 438.857z" />
<glyph unicode="&#xe904;" glyph-name="facebook" horiz-adv-x="592" d="M369.778-64h-199.111c-17.067 0-28.444 11.378-28.444 28.444v358.4h-113.778c-17.067 0-28.444 11.378-28.444 28.444v193.422c0 17.067 11.378 28.444 28.444 28.444h113.778v113.778c0 153.6 125.156 273.067 273.067 273.067h142.222c17.067 0 28.444-11.378 28.444-28.444v-193.422c0-17.067-11.378-28.444-28.444-28.444h-142.222c-11.378 0-17.067-11.378-17.067-22.756v-113.778h164.978c11.378 0 17.067-5.689 22.756-11.378s5.689-17.067 5.689-22.756l-45.511-193.422c-11.378-11.378-22.756-22.756-34.133-22.756h-113.778v-358.4c0-17.067-17.067-28.444-28.444-28.444zM199.111-7.111h142.222v358.4c0 17.067 11.378 28.444 28.444 28.444h125.156l34.133 136.533h-159.289c-17.067 0-28.444 11.378-28.444 28.444v142.222c0 45.511 34.133 79.644 73.956 79.644h113.778v136.533h-113.778c-119.467 0-216.178-96.711-216.178-216.178v-142.222c0-17.067-11.378-28.444-28.444-28.444h-113.778v-136.533h113.778c17.067 0 28.444-11.378 28.444-28.444v-358.4z" />
<glyph unicode="&#xe905;" glyph-name="headphones" d="M512 960c-279.273 0-512-232.727-512-512v-372.364c0-79.792 59.844-139.636 139.636-139.636h53.195c79.792 0 139.636 59.844 139.636 139.636v159.584c0 79.792-59.844 139.636-139.636 139.636h-126.338v73.143c0 246.026 199.481 445.506 445.506 445.506s445.506-199.481 445.506-445.506v-73.143h-126.338c-79.792 0-139.636-59.844-139.636-139.636v-159.584c0-79.792 59.844-139.636 139.636-139.636h53.195c79.792 0 139.636 59.844 139.636 139.636v372.364c0 279.273-232.727 512-512 512zM192.831 308.364c39.896 0 73.143-33.247 73.143-73.143v-159.584c0-39.896-33.247-73.143-73.143-73.143h-53.195c-39.896 0-73.143 33.247-73.143 73.143v232.727h126.338zM957.506 75.636c0-39.896-33.247-73.143-73.143-73.143h-53.195c-39.896 0-73.143 33.247-73.143 73.143v159.584c0 39.896 33.247 73.143 73.143 73.143h126.338v-232.727z" />
<glyph unicode="&#xe906;" glyph-name="instagram" d="M709.177-62.066h-398.222c-170.667 0-312.889 142.222-312.889 312.889v398.222c0 170.667 142.222 312.889 312.889 312.889h398.222c170.667 0 312.889-142.222 312.889-312.889v-398.222c0-176.356-136.533-312.889-312.889-312.889zM310.955 905.045c-142.222 0-256-113.778-256-256v-398.222c0-142.222 113.778-256 256-256h398.222c142.222 0 256 113.778 256 256v398.222c0 142.222-113.778 256-256 256h-398.222zM510.066 233.756c-108.089 0-199.111 79.644-216.178 187.733-17.067 119.467 68.267 233.244 187.733 250.311 22.756 5.689 45.511 5.689 62.578 0 96.711-17.067 170.667-91.022 182.044-182.044v0c11.378-56.889-5.689-113.778-39.822-164.978s-85.333-79.644-142.222-91.022c-11.378 0-22.756 0-34.133 0zM510.066 614.912c-5.689 0-17.067 0-22.756 0-91.022-11.378-147.911-96.711-136.533-182.044 11.378-91.022 96.711-147.911 182.044-136.533 45.511 5.689 79.644 28.444 108.089 62.578s34.133 79.644 28.444 119.467v0c-11.378 73.956-68.267 125.156-136.533 136.533-5.689 0-11.378 0-22.756 0zM771.755 683.179c-17.067 0-28.444 11.378-28.444 28.444s11.378 28.444 28.444 28.444v0c17.067 0 28.444-11.378 28.444-28.444s-11.378-28.444-28.444-28.444z" />
<glyph unicode="&#xe907;" glyph-name="plus" d="M1024 474.947h-489.952v485.053h-48.995v-485.053h-485.053v-48.995h485.053v-489.952h48.995v489.952h489.952z" />
<glyph unicode="&#xe908;" glyph-name="smile" d="M512-64c-283.927 0-512 228.073-512 512s228.073 512 512 512 512-228.073 512-512-228.073-512-512-512zM512 866.909c-232.727 0-418.909-186.182-418.909-418.909s186.182-418.909 418.909-418.909c232.727 0 418.909 186.182 418.909 418.909s-186.182 418.909-418.909 418.909zM512 168.727c-88.436 4.655-172.218 41.891-223.418 111.709l74.473 60.509c37.236-46.545 93.091-74.473 153.6-74.473 55.855 0 111.709 27.927 148.945 74.473l74.473-60.509c-60.509-69.818-139.636-107.055-228.073-111.709z" />
<glyph unicode="&#xe909;" glyph-name="sunrise" horiz-adv-x="995" d="M514.073 450.073c-145.101 8.291-269.474-103.644-277.765-252.891 0-8.291 0-16.583 0-29.020l82.915 4.146c0 4.146 0 12.437 0 16.583 4.146 99.498 91.206 178.267 190.704 174.121s178.267-91.206 174.121-190.704l82.915-4.146c8.291 149.247-103.644 273.619-252.891 281.911zM123.869 508.316l59.815 57.419 63.16-65.796-59.815-57.419-63.16 65.796zM0 184.745h78.769v-82.915h-78.769v82.915zM916.211 184.745h78.769v-82.915h-78.769v82.915zM754.633 498.315l63.142 65.815 59.831-57.402-63.142-65.815-59.831 57.402zM0 18.915h994.98v-82.915h-994.98v82.915zM476.761 831.482v-232.162h82.915v198.996l91.206-95.352 58.040 58.040-149.247 157.538v12.437h-12.437l-16.583 16.583c-8.291 8.291-16.583 12.437-29.020 12.437s-20.729-4.146-29.020-12.437l-178.267-186.559 58.040-58.040 124.372 128.518z" />
<glyph unicode="&#xe90a;" glyph-name="user-check" horiz-adv-x="1305" d="M619.163 421.805h-361.972c-138.121 4.763-252.428-104.781-257.191-242.902v-242.902h95.256v242.902c4.763 85.73 76.205 152.409 161.935 147.647h366.735c85.73 0 157.172-61.916 157.172-147.647v-242.902h95.256v247.665c-4.763 133.358-119.070 242.902-257.191 238.14zM438.177 521.823c119.070 0 219.088 100.019 219.088 219.088s-100.019 219.088-219.088 219.088-219.088-100.019-219.088-219.088 100.019-219.088 219.088-219.088zM438.177 864.744c66.679 0 123.833-57.153 123.833-123.833s-57.153-123.833-123.833-123.833-123.833 57.153-123.833 123.833 57.153 123.833 123.833 123.833zM1233.563 655.181l-161.935-161.935-61.916 61.916-66.679-66.679 128.595-133.358 233.377 228.614z" />
<glyph unicode="&#xe90b;" glyph-name="video" horiz-adv-x="1536" d="M1472 64c-12.8 0-25.6 6.4-38.4 12.8l-448 320c-12.8 12.8-25.6 32-25.6 51.2s12.8 38.4 25.6 51.2l448 320c19.2 12.8 44.8 12.8 64 6.4 25.6-12.8 38.4-32 38.4-57.6v-640c0-25.6-12.8-44.8-32-57.6-12.8-6.4-19.2-6.4-32-6.4zM1132.8 448l275.2-198.4v396.8l-275.2-198.4zM896-64h-704c-108.8 0-192 83.2-192 192v640c0 108.8 83.2 192 192 192h704c108.8 0 192-83.2 192-192v-640c0-108.8-83.2-192-192-192zM192 832c-38.4 0-64-25.6-64-64v-640c0-38.4 25.6-64 64-64h704c38.4 0 64 25.6 64 64v640c0 38.4-25.6 64-64 64h-704z" />
<glyph unicode="&#xe90c;" glyph-name="watch" horiz-adv-x="701" d="M701.37 455.014c0 101.699-49.096 189.37-122.74 252.493l-14.027 143.781c-3.507 59.616-56.11 108.712-119.233 108.712h-189.37c-63.123 0-115.726-49.096-122.74-112.219l-10.521-140.274c-77.151-63.123-122.74-154.301-122.74-252.493s45.589-189.37 119.233-248.986l14.027-157.808c7.014-63.123 56.11-112.219 122.74-112.219 0 0 0 0 0 0h189.37c0 0 0 0 0 0 63.123 0 115.726 49.096 122.74 112.219l14.027 157.808c73.644 59.616 119.233 147.288 119.233 248.986zM203.397 844.274c3.507 24.548 24.548 45.589 52.603 45.589h189.37c0 0 0 0 0 0 28.055 0 49.096-21.041 52.603-45.589l7.014-87.671c-45.589 21.041-98.192 35.068-154.301 35.068s-108.712-14.027-154.301-35.068l7.014 87.671zM70.137 455.014c0 143.781 126.247 263.014 280.548 263.014s280.548-119.233 280.548-263.014-126.247-263.014-280.548-263.014-280.548 119.233-280.548 263.014zM494.466 51.726c-3.507-28.055-24.548-49.096-52.603-45.589h-185.863c-28.055 0-49.096 21.041-52.603 45.589l-10.521 105.205c45.589-21.041 101.699-35.068 157.808-35.068s108.712 14.027 154.301 35.068l-10.521-105.205zM438.356 405.918l-52.603 56.11v115.726h-70.137v-143.781l73.644-77.151z" />
<glyph unicode="&#xe90d;" glyph-name="youtube" horiz-adv-x="1426" d="M1398.797 785.987c0 0 0 0 0 0-20.078 73.621-73.621 127.163-147.242 153.935-180.706 13.386-361.412 20.078-535.425 20.078-20.078 0-428.34 0-542.118-26.771-73.621-20.078-127.163-80.314-147.242-153.935-20.078-107.085-26.771-220.863-26.771-334.641s6.693-227.556 26.771-341.333c20.078-66.928 73.621-120.471 140.549-140.549 107.085-26.771 522.039-26.771 542.118-26.771s428.34 0 542.118 26.771c73.621 20.078 127.163 73.621 140.549 147.242 20.078 107.085 26.771 220.863 26.771 327.948 13.386 120.471 0 234.248-20.078 348.026zM1331.869 130.092c-13.386-46.85-46.85-87.007-93.699-100.392-87.007-20.078-408.261-26.771-522.039-26.771s-441.725 6.693-522.039 26.771c-46.85 13.386-80.314 46.85-93.699 93.699-26.771 107.085-33.464 214.17-33.464 321.255s6.693 214.17 26.771 321.255c13.386 46.85 46.85 87.007 93.699 100.392 87.007 20.078 408.261 26.771 528.732 26.771 13.386 0 33.464 0 46.85 0 160.627 0 321.255-6.693 475.19-26.771 46.85-13.386 87.007-53.542 93.699-100.392 20.078-107.085 26.771-214.17 26.771-321.255s-6.693-214.17-26.771-314.562zM950.379 478.118l-354.719 200.784c-13.386 6.693-20.078 6.693-33.464 0s-20.078-20.078-20.078-26.771v-401.569c0-13.386 6.693-20.078 13.386-26.771 6.693 0 13.386-6.693 20.078-6.693s13.386 0 13.386 6.693l354.719 200.784c13.386 6.693 20.078 20.078 20.078 26.771s-6.693 20.078-13.386 26.771zM609.046 304.105v287.791l254.327-147.242-254.327-140.549z" />
<glyph unicode="&#xe90e;" glyph-name="close" d="M624 448l376 376c32 32 32 80 0 112s-80 32-112 0l-376-376-376 376c-32 32-80 32-112 0s-32-80 0-112l376-376-376-376c-32-32-32-80 0-112 16-16 40-24 56-24s40 8 56 24l376 376 376-376c16-16 40-24 56-24s40 8 56 24c32 32 32 80 0 112l-376 376z" />
<glyph unicode="&#xe90f;" glyph-name="arrow-right" d="M1017.6 422.4c6.4 12.8 6.4 32 0 51.2-6.4 6.4-6.4 12.8-12.8 19.2l-448 448c-25.6 25.6-64 25.6-89.6 0s-25.6-64 0-89.6l339.2-339.2h-742.4c-38.4 0-64-25.6-64-64s25.6-64 64-64h742.4l-339.2-339.2c-25.6-25.6-25.6-64 0-89.6 12.8-12.8 25.6-19.2 44.8-19.2s32 6.4 44.8 19.2l448 448c6.4 6.4 12.8 12.8 12.8 19.2z" />
<glyph unicode="&#xe910;" glyph-name="linkedin" horiz-adv-x="1075" d="M1049.6-64h-204.8c-15.36 0-25.6 10.24-25.6 25.6v358.4c0 40.96-35.84 76.8-76.8 76.8s-76.8-35.84-76.8-76.8v-358.4c0-15.36-10.24-25.6-25.6-25.6h-204.8c-15.36 0-25.6 10.24-25.6 25.6v358.4c0 184.32 148.48 332.8 332.8 332.8s332.8-148.48 332.8-332.8v-358.4c0-15.36-10.24-25.6-25.6-25.6zM870.4-12.8h153.6v332.8c0 153.6-128 281.6-281.6 281.6s-281.6-128-281.6-281.6v-332.8h153.6v332.8c0 71.68 56.32 128 128 128s128-56.32 128-128v-332.8zM230.4-64h-204.8c-15.36 0-25.6 10.24-25.6 25.6v614.4c0 15.36 10.24 25.6 25.6 25.6h204.8c15.36 0 25.6-10.24 25.6-25.6v-614.4c0-15.36-10.24-25.6-25.6-25.6zM51.2-12.8h153.6v563.2h-153.6v-563.2zM128 704c-71.68 0-128 56.32-128 128s56.32 128 128 128 128-56.32 128-128-56.32-128-128-128zM128 908.8c-40.96 0-76.8-35.84-76.8-76.8s35.84-76.8 76.8-76.8 76.8 35.84 76.8 76.8-35.84 76.8-76.8 76.8z" />
<glyph unicode="&#xe911;" glyph-name="book-open" horiz-adv-x="1186" d="M646.737-64h-107.789c0 59.284-48.505 107.789-107.789 107.789h-431.158v916.211h377.263c150.905 0 269.474-118.568 269.474-269.474v-754.526zM107.789 151.579h323.368c37.726 0 75.453-10.779 107.789-26.947v565.895c0 91.621-70.063 161.684-161.684 161.684h-269.474v-700.632zM646.737-64h-107.789v754.526c0 150.905 118.568 269.474 269.474 269.474h377.263v-916.211h-431.158c-59.284 0-107.789-48.505-107.789-107.789zM808.421 852.211c-91.621 0-161.684-70.063-161.684-161.684v-565.895c32.337 16.168 70.063 26.947 107.789 26.947h323.368v700.632h-269.474z" />
<glyph unicode="&#xe912;" glyph-name="users" horiz-adv-x="1293" d="M970.105-64h-107.789v107.789c0 91.621-70.063 161.684-161.684 161.684h-431.158c-91.621 0-161.684-70.063-161.684-161.684v-107.789h-107.789v107.789c0 150.905 118.568 269.474 269.474 269.474h431.158c150.905 0 269.474-118.568 269.474-269.474v-107.789zM485.053 421.053c-150.905 0-269.474 118.568-269.474 269.474s118.568 269.474 269.474 269.474 269.474-118.568 269.474-269.474-118.568-269.474-269.474-269.474zM485.053 852.211c-91.621 0-161.684-70.063-161.684-161.684s70.063-161.684 161.684-161.684 161.684 70.063 161.684 161.684-70.063 161.684-161.684 161.684zM1293.474-64h-107.789v107.789c0 75.453-48.505 140.126-118.568 156.295l26.947 102.4c118.568-32.337 199.411-140.126 204.8-258.695v-107.789zM873.095 431.832l-26.947 102.4c59.284 16.168 102.4 59.284 118.568 118.568 21.558 86.232-32.337 172.463-118.568 199.411l26.947 102.4c145.516-37.726 231.747-183.242 194.021-328.758-21.558-97.011-97.011-172.463-194.021-194.021z" />
<glyph unicode="&#xe913;" glyph-name="message-square" d="M51.2-64c-5.12 0-15.36 0-20.48 5.12-20.48 5.12-30.72 25.6-30.72 46.080v819.2c0 87.040 66.56 153.6 153.6 153.6h716.8c87.040 0 153.6-66.56 153.6-153.6v-512c0-87.040-66.56-153.6-153.6-153.6h-593.92l-189.44-189.44c-10.24-10.24-20.48-15.36-35.84-15.36zM153.6 857.6c-30.72 0-51.2-20.48-51.2-51.2v-696.32l117.76 117.76c10.24 10.24 20.48 15.36 35.84 15.36h614.4c30.72 0 51.2 20.48 51.2 51.2v512c0 30.72-20.48 51.2-51.2 51.2h-716.8z" />
<glyph unicode="&#xe914;" glyph-name="star" d="M776.533 21.333c-8.533 0-12.8 0-21.333 4.267l-243.2 128-243.2-128c-12.8-8.533-29.867-4.267-46.933 4.267-12.8 8.533-21.333 25.6-17.067 42.667l46.933 273.067-196.267 187.733c-12.8 12.8-17.067 29.867-12.8 42.667 4.267 17.067 17.067 25.6 34.133 29.867l273.067 38.4 123.733 247.467c12.8 29.867 64 29.867 76.8 0l123.733-247.467 273.067-38.4c12.8 0 25.6-12.8 34.133-29.867 4.267-17.067 0-34.133-12.8-42.667l-196.267-192 46.933-273.067c4.267-17.067-4.267-34.133-17.067-42.667-8.533-4.267-17.067-4.267-25.6-4.267zM174.933 533.333l149.333-149.333c12.8-8.533 17.067-21.333 17.067-34.133l-34.133-209.067 187.733 98.133c12.8 8.533 25.6 8.533 38.4 0l187.733-98.133-38.4 209.067c-4.267 12.8 4.267 29.867 12.8 38.4l149.333 149.333-209.067 29.867c-12.8 0-25.6 12.8-34.133 21.333l-89.6 187.733-93.867-187.733c-4.267-12.8-17.067-21.333-29.867-21.333l-213.333-34.133z" />
<glyph unicode="&#xe915;" glyph-name="check" horiz-adv-x="1429" d="M473.791-64c-15.284 0-38.209 7.642-45.851 22.925l-405.015 405.015c-22.925 22.925-22.925 68.776 0 91.701s68.776 22.925 91.701 0l359.164-359.164 840.597 840.597c22.925 22.925 68.776 22.925 91.701 0s22.925-68.776 0-91.701l-886.448-886.448c-15.284-15.284-30.567-22.925-45.851-22.925z" />
<glyph unicode="&#xe916;" glyph-name="minus" horiz-adv-x="24883" d="M0 960h24883.2v-1024h-24883.2v1024z" />
<glyph unicode="&#xe917;" glyph-name="quote" horiz-adv-x="1410" d="M958.926-64l-114.187 174.35 4.911 3.683c131.376 82.264 218.552 176.806 259.070 281.17-15.962-8.595-36.835-12.278-63.847-12.278-85.947 0-159.616 28.24-218.552 82.264-60.163 55.252-89.631 125.237-89.631 206.273 0 82.264 30.695 151.022 92.086 206.273 60.163 54.024 137.516 82.264 230.83 82.264 105.592 0 191.54-36.835 255.386-108.048 62.619-71.213 94.542-158.388 94.542-259.070 0-111.731-39.29-230.83-115.415-353.612s-187.856-223.463-330.283-300.815l-4.911-2.456zM861.928 106.667l101.909-153.477c138.743 76.125 246.791 174.35 320.46 293.448 74.897 120.326 112.959 236.969 112.959 346.245 0 98.225-30.695 182.945-92.086 251.703-60.163 68.758-143.655 103.137-245.564 103.137-89.631 0-164.528-27.012-223.463-79.808-57.707-52.796-87.175-119.098-87.175-196.451 0-78.58 28.24-144.882 84.719-196.451 56.48-52.796 127.693-79.808 211.185-79.808 34.379 0 58.935 7.367 71.213 20.873l9.823-6.139c-36.835-112.959-125.237-214.868-263.981-303.271zM222.235-64l-114.187 174.35 4.911 3.683c132.604 88.403 219.779 182.945 259.070 281.17-15.962-7.367-36.835-12.278-63.847-12.278-85.947 0-159.616 28.24-218.552 82.264-60.163 55.252-89.631 125.237-89.631 206.273 0 82.264 30.695 151.022 92.086 206.273 60.163 54.024 137.516 82.264 230.83 82.264 105.592 0 191.54-36.835 255.386-108.048 62.619-71.213 94.542-158.388 94.542-259.070 0-111.731-39.29-230.83-115.415-353.612s-187.856-223.463-330.283-300.815l-4.911-2.456zM125.237 107.894l101.909-154.705c138.743 76.125 246.791 174.35 320.46 293.448 74.897 120.326 112.959 236.969 112.959 346.245 0 98.225-30.695 182.945-92.086 251.703-60.163 68.758-143.655 103.137-245.564 103.137-89.631 0-164.528-27.012-223.463-79.808-57.707-51.568-87.175-117.871-87.175-196.451s28.24-144.882 84.719-196.451c56.48-52.796 127.693-79.808 211.185-79.808 34.379 0 57.707 7.367 71.213 20.873l9.823-6.139c-34.379-106.82-124.010-208.729-263.981-302.043z" />
<glyph unicode="&#xe918;" glyph-name="edit" horiz-adv-x="1072" d="M1018.639-65.126h-482.513c-32.168 0-53.613 21.445-53.613 53.613s21.445 53.613 53.613 53.613h482.513c32.168 0 53.613-21.445 53.613-53.613s-21.445-53.613-53.613-53.613zM53.613-65.126c-16.084 0-26.806 5.361-37.529 16.084-16.084 10.723-21.445 32.168-16.084 48.251l53.613 214.45c0 10.723 5.361 16.084 16.084 26.806l670.157 670.157c64.335 64.335 171.56 64.335 235.895 0s64.335-171.56 0-235.895l-670.157-670.157c-5.361-5.361-16.084-10.723-26.806-16.084l-214.45-53.613c0 0-5.361 0-10.723 0zM155.476 176.131l-26.806-112.586 112.586 26.806 659.435 659.435c21.445 21.445 21.445 58.974 0 85.78-21.445 21.445-64.335 21.445-85.78 0v0l-659.435-659.435zM777.382 873.094v0 0z" />
<glyph unicode="&#xe919;" glyph-name="check-circle" horiz-adv-x="1043" d="M512.093-64.884c0 0 0 0 0 0-283.927 0-512 228.073-512 512 0 139.636 51.2 265.309 148.945 363.055s228.073 148.945 363.055 148.945c69.818 0 144.291-13.964 209.455-46.545 23.273-9.309 32.582-37.236 23.273-60.509s-37.236-32.582-60.509-23.273c-55.855 23.273-111.709 37.236-172.218 37.236 0 0 0 0 0 0-232.727 0-418.909-186.182-418.909-418.909s186.182-418.909 418.909-418.909c0 0 0 0 0 0 111.709 0 218.764 41.891 297.891 121.018s121.018 186.182 121.018 297.891v41.891c0 27.927 18.618 46.545 46.545 46.545s46.545-18.618 46.545-46.545v-41.891c0-134.982-51.2-265.309-148.945-363.055s-228.073-148.945-363.055-148.945zM512.093 307.479c-13.964 0-23.273 4.655-32.582 13.964l-139.636 139.636c-18.618 18.618-18.618 46.545 0 65.164s46.545 18.618 65.164 0l107.055-107.055 432.873 432.873c18.618 18.618 46.545 18.618 65.164 0s18.618-46.545 0-65.164l-465.455-465.455c-9.309-9.309-18.618-13.964-32.582-13.964z" />
<glyph unicode="&#xe91a;" glyph-name="align-left" horiz-adv-x="1463" d="M1097.143 521.143h-1024c-43.886 0-73.143 29.257-73.143 73.143s29.257 73.143 73.143 73.143h1024c43.886 0 73.143-29.257 73.143-73.143s-29.257-73.143-73.143-73.143zM1389.714 813.714h-1316.571c-43.886 0-73.143 29.257-73.143 73.143s29.257 73.143 73.143 73.143h1316.571c43.886 0 73.143-29.257 73.143-73.143s-29.257-73.143-73.143-73.143zM1389.714 228.571h-1316.571c-43.886 0-73.143 29.257-73.143 73.143s29.257 73.143 73.143 73.143h1316.571c43.886 0 73.143-29.257 73.143-73.143s-29.257-73.143-73.143-73.143zM1097.143-64h-1024c-43.886 0-73.143 29.257-73.143 73.143s29.257 73.143 73.143 73.143h1024c43.886 0 73.143-29.257 73.143-73.143s-29.257-73.143-73.143-73.143z" />
<glyph unicode="&#xe91b;" glyph-name="layout" d="M870.4 960h-716.8c-87.040 0-153.6-66.56-153.6-153.6v-716.8c0-87.040 66.56-153.6 153.6-153.6h716.8c87.040 0 153.6 66.56 153.6 153.6v716.8c0 87.040-66.56 153.6-153.6 153.6zM153.6 857.6h716.8c30.72 0 51.2-20.48 51.2-51.2v-153.6h-819.2v153.6c0 30.72 20.48 51.2 51.2 51.2zM102.4 89.6v460.8h204.8v-512h-153.6c-30.72 0-51.2 20.48-51.2 51.2zM870.4 38.4h-460.8v512h512v-460.8c0-30.72-20.48-51.2-51.2-51.2z" />
<glyph unicode="&#xe91c;" glyph-name="x" d="M743.226 448l231.226 231.226c66.065 66.065 66.065 165.161 0 231.226s-165.161 66.065-231.226 0l-231.226-231.226-231.226 231.226c-66.065 66.065-165.161 66.065-231.226 0s-66.065-165.161 0-231.226l231.226-231.226-231.226-231.226c-66.065-66.065-66.065-165.161 0-231.226 33.032-33.032 66.065-49.548 115.613-49.548s82.581 16.516 115.613 49.548l231.226 231.226 231.226-231.226c33.032-33.032 82.581-49.548 115.613-49.548s82.581 16.516 115.613 49.548c66.065 66.065 66.065 165.161 0 231.226l-231.226 231.226z" />
<glyph unicode="&#xe91d;" glyph-name="check-bold" horiz-adv-x="1319" d="M485.966-64v0c-52.068 0-86.78 17.356-121.492 52.068l-312.407 312.407c-69.424 69.424-69.424 173.559 0 242.983s173.559 69.424 242.983 0l190.915-190.915 555.39 555.39c69.424 69.424 173.559 69.424 242.983 0s69.424-173.559 0-242.983l-676.881-676.881c-34.712-34.712-86.78-52.068-121.492-52.068z" />
<glyph unicode="&#xe91e;" glyph-name="headphones--bold" d="M512 960c-281.6 0-512-230.4-512-512v-358.4c0-87.040 66.56-153.6 153.6-153.6h51.2c87.040 0 153.6 66.56 153.6 153.6v153.6c0 87.040-66.56 153.6-153.6 153.6h-102.4v51.2c0 225.28 184.32 409.6 409.6 409.6s409.6-184.32 409.6-409.6v-51.2h-102.4c-87.040 0-153.6-66.56-153.6-153.6v-153.6c0-87.040 66.56-153.6 153.6-153.6h51.2c87.040 0 153.6 66.56 153.6 153.6v358.4c0 281.6-230.4 512-512 512zM204.8 294.4c30.72 0 51.2-20.48 51.2-51.2v-153.6c0-30.72-20.48-51.2-51.2-51.2h-51.2c-30.72 0-51.2 20.48-51.2 51.2v204.8h102.4zM921.6 89.6c0-30.72-20.48-51.2-51.2-51.2h-51.2c-30.72 0-51.2 20.48-51.2 51.2v153.6c0 30.72 20.48 51.2 51.2 51.2h102.4v-204.8z" />
<glyph unicode="&#xe91f;" glyph-name="mail" horiz-adv-x="1252" d="M1080.889 960h-910.222c0 0 0 0 0 0-96.711 0-170.667-73.956-170.667-170.667v-682.667c0-91.022 73.956-170.667 170.667-170.667h910.222c91.022 0 170.667 73.956 170.667 170.667v682.667c0 96.711-73.956 170.667-170.667 170.667zM170.667 846.222h910.222c22.756 0 39.822-11.378 51.2-34.133l-506.311-352.711-506.311 352.711c11.378 22.756 28.444 34.133 51.2 34.133zM1080.889 49.778h-910.222c-34.133 0-56.889 28.444-56.889 56.889v574.578l477.867-335.644c11.378-5.689 22.756-11.378 34.133-11.378s22.756 5.689 34.133 11.378l477.867 335.644v-574.578c0-28.444-28.444-56.889-56.889-56.889z" />
<glyph unicode="&#xe920;" glyph-name="pen" horiz-adv-x="1030" d="M991.799 747.472l-173.887 173.887c-45.082 45.082-122.365 45.082-173.887 6.44l-579.623-579.623c-19.321-19.321-32.201-51.522-38.642-77.283l-25.761-270.491c0-38.642 25.761-64.403 57.962-70.843 0 0 6.44 0 6.44 0h6.44l270.491 25.761c32.201 0 57.962 12.881 77.283 38.642l579.623 579.623c45.082 51.522 45.082 128.805-6.44 173.887zM328.453 84.126l-193.208-19.321 19.321 193.208 360.654 360.654 173.887-173.887-360.654-360.654zM772.83 534.943l-173.887 173.887 122.365 128.805 180.327-180.327-128.805-122.365z" />
<glyph unicode="&#xe921;" glyph-name="clients" horiz-adv-x="1081" d="M1063.822 891.733c-22.756 22.756-56.889 17.067-79.644-5.689l-108.089-119.467-34.133 39.822c-22.756 22.756-56.889 28.444-79.644 5.689s-28.444-56.889-5.689-79.644l79.644-91.022c22.756-22.756 56.889-22.756 79.644-5.689 0 0 5.689 5.689 5.689 5.689l147.911 170.667c17.067 22.756 17.067 56.889-5.689 79.644zM398.222 504.889c125.156 0 227.556 102.4 227.556 227.556s-102.4 227.556-227.556 227.556-227.556-102.4-227.556-227.556 102.4-227.556 227.556-227.556zM398.222 846.222c62.578 0 113.778-51.2 113.778-113.778s-51.2-113.778-113.778-113.778-113.778 51.2-113.778 113.778 51.2 113.778 113.778 113.778zM398.222 391.111c-221.867 0-398.222-176.356-398.222-398.222 0-34.133 22.756-56.889 56.889-56.889s56.889 22.756 56.889 56.889c0 159.289 125.156 284.444 284.444 284.444s284.444-125.156 284.444-284.444c0-34.133 22.756-56.889 56.889-56.889s56.889 22.756 56.889 56.889c0 221.867-176.356 398.222-398.222 398.222z" />
<glyph unicode="&#xe922;" glyph-name="doc" horiz-adv-x="819" d="M563.2 243.2h-307.2c-30.72 0-51.2-20.48-51.2-51.2s20.48-51.2 51.2-51.2h307.2c30.72 0 51.2 20.48 51.2 51.2s-20.48 51.2-51.2 51.2zM256 345.6h153.6c30.72 0 51.2 20.48 51.2 51.2s-20.48 51.2-51.2 51.2h-153.6c-30.72 0-51.2-20.48-51.2-51.2s20.48-51.2 51.2-51.2zM803.84 637.44l-276.48 307.2c-10.24 10.24-25.6 15.36-35.84 15.36h-358.4c-71.68 0-133.12-56.32-133.12-128 0 0 0 0 0 0v-768c0-71.68 61.44-128 133.12-128 0 0 0 0 0 0h558.080c71.68 0 128 56.32 133.12 128 0 0 0 0 0 0v537.6c-5.12 10.24-10.24 25.6-20.48 35.84zM512 806.4l138.24-153.6h-102.4c-20.48 0-35.84 20.48-35.84 40.96 0 0 0 0 0 0v112.64zM686.080 38.4h-552.96c-15.36 0-30.72 10.24-30.72 25.6 0 0 0 0 0 0v768c0 15.36 15.36 25.6 30.72 25.6 0 0 0 0 0 0h276.48v-158.72c0-81.92 61.44-148.48 138.24-148.48h168.96v-486.4c0-15.36-15.36-25.6-30.72-25.6 0 0 0 0 0 0z" />
<glyph unicode="&#xe923;" glyph-name="clock" d="M565.158 960c-27.978 0-50.361-22.383-50.361-50.361v-408.481c0-27.978 22.383-50.361 50.361-50.361h408.481c27.978 0 50.361 22.383 50.361 50.361 0 251.803-207.038 458.842-458.842 458.842zM615.519 551.519v302.164c156.678-22.383 279.781-145.486 302.164-302.164h-302.164zM962.448 338.885c-27.978 11.191-55.956-5.596-67.148-33.574 0 0 0 0 0 0-78.339-212.634-307.76-324.546-525.989-251.803-212.634 78.339-324.546 307.76-251.803 525.989 50.361 123.104 139.891 212.634 257.399 251.803 27.978 5.596 44.765 39.169 33.574 61.552-5.596 33.574-33.574 44.765-61.552 39.169 0 0-5.596 0-5.596 0-268.59-95.126-408.481-391.694-313.355-654.689s386.098-408.481 654.689-313.355c145.486 50.361 262.995 167.869 313.355 313.355 11.191 27.978-5.596 55.956-33.574 61.552v0z" />
<glyph unicode="&#xe924;" glyph-name="bulb" d="M512 704c-139.13 0-256-116.87-256-256 0-77.913 38.957-155.826 100.174-205.913v-205.913c0-55.652 44.522-100.174 100.174-100.174v0h100.174c55.652 0 100.174 44.522 100.174 100.174v0 205.913c111.304 83.478 133.565 244.87 50.087 356.174-38.957 66.783-116.87 105.739-194.783 105.739zM589.913 314.435c-16.696-11.13-27.826-27.826-27.826-44.522v-233.739h-100.174v233.739c0 16.696-11.13 33.391-27.826 44.522-72.348 44.522-100.174 133.565-55.652 211.478s133.565 100.174 211.478 55.652 100.174-133.565 55.652-211.478c-16.696-22.261-33.391-38.957-55.652-55.652v0zM512 754.087c27.826 0 50.087 22.261 50.087 50.087v105.739c0 27.826-22.261 50.087-50.087 50.087s-50.087-22.261-50.087-50.087c0 0 0 0 0-5.565v-100.174c0-27.826 22.261-50.087 50.087-50.087zM968.348 498.087h-100.174c-27.826 0-50.087-22.261-50.087-50.087s22.261-50.087 50.087-50.087c0 0 0 0 5.565 0h100.174c27.826 0 50.087 22.261 50.087 50.087s-22.261 50.087-55.652 50.087c5.565 0 5.565 0 0 0zM155.826 498.087h-105.739c-27.826 0-50.087-22.261-50.087-50.087s22.261-50.087 50.087-50.087c0 0 0 0 5.565 0h100.174c27.826 0 50.087 22.261 50.087 50.087s-22.261 50.087-50.087 50.087c0 0 0 0 0 0zM289.391 731.826l-72.348 72.348c-22.261 22.261-55.652 16.696-72.348 0-22.261-22.261-16.696-55.652 0-72.348v0l72.348-72.348c22.261-22.261 50.087-16.696 72.348 0s22.261 55.652 0 72.348v0zM879.304 804.174c-22.261 22.261-50.087 22.261-72.348 0l-72.348-72.348c-16.696-22.261-16.696-55.652 5.565-72.348 16.696-16.696 50.087-16.696 66.783 0l72.348 72.348c16.696 16.696 16.696 50.087 0 72.348 0 0 0 0 0 0z" />
<glyph unicode="&#xe925;" glyph-name="coin" horiz-adv-x="967" d="M597.333-64c-204.8 0-369.778 164.978-369.778 369.778s164.978 369.778 369.778 369.778c204.8 0 369.778-164.978 369.778-369.778s-164.978-369.778-369.778-369.778zM603.022 561.778c-142.222 0-261.689-119.467-261.689-261.689s119.467-261.689 261.689-261.689c142.222 0 261.689 119.467 261.689 261.689s-119.467 261.689-261.689 261.689zM170.667 277.333v0c-108.089 68.267-170.667 187.733-170.667 312.889 0 204.8 164.978 369.778 369.778 369.778 153.6 0 295.822-96.711 347.022-244.622-39.822 11.378-79.644 17.067-119.467 17.067h-5.689c-51.2 73.956-130.844 113.778-216.178 113.778-142.222 0-261.689-119.467-261.689-261.689 0-68.267 22.756-130.844 68.267-176.356-5.689-34.133-11.378-68.267-11.378-102.4 0-11.378 0-17.067 0-28.444v0z" />
<glyph unicode="&#xe926;" glyph-name="sad" d="M0 445.202c0 285.377 229.421 514.798 514.798 514.798 0 0 0 0 0 0 285.377 0 514.798-229.421 514.798-514.798 0 0 0 0 0 0 0-285.377-229.421-514.798-514.798-514.798s-514.798 235.016-514.798 514.798zM100.721 445.202c0-223.825 184.656-408.481 408.481-408.481 0 0 0 0 0 0 229.421 0 408.481 184.656 408.481 408.481s-184.656 408.481-408.481 408.481c0 0 0 0 0 0-223.825 5.596-408.481-179.060-408.481-408.481v0zM290.973 249.355v83.934h447.65v-83.934h-447.65zM598.732 545.923c0 39.169 33.574 67.148 67.148 67.148 0 0 0 0 0 0 39.169 0 67.148-33.574 67.148-67.148 0 0 0 0 0 0 0-39.169-33.574-67.148-67.148-67.148s-67.148 27.978-67.148 67.148c0 0 0 0 0 0v0zM290.973 545.923c0 39.169 33.574 67.148 67.148 67.148 39.169 0 67.148-33.574 67.148-67.148v0c0-39.169-33.574-67.148-67.148-67.148-39.169-5.596-67.148 27.978-67.148 67.148v0z" />
</font>
</defs>
</svg>
