<?xml version="1.0" encoding="utf-8"?>
<!-- Generator: Adobe Illustrator 23.0.6, SVG Export Plug-In . SVG Version: 6.00 Build 0)  -->
<svg version="1.1" id="Warstwa_1" xmlns="http://www.w3.org/2000/svg" xmlns:xlink="http://www.w3.org/1999/xlink" x="0px" y="0px"
	 viewBox="0 0 20 14" style="enable-background:new 0 0 20 14;" xml:space="preserve">
<g id="align-left" transform="translate(-2 -5)">
	<g id="Line_138">
		<path d="M17,11H3c-0.6,0-1-0.4-1-1s0.4-1,1-1h14c0.6,0,1,0.4,1,1S17.6,11,17,11z"/>
	</g>
	<g id="Line_139">
		<path d="M21,7H3C2.4,7,2,6.6,2,6s0.4-1,1-1h18c0.6,0,1,0.4,1,1S21.6,7,21,7z"/>
	</g>
	<g id="Line_140">
		<path d="M21,15H3c-0.6,0-1-0.4-1-1s0.4-1,1-1h18c0.6,0,1,0.4,1,1S21.6,15,21,15z"/>
	</g>
	<g id="Line_141">
		<path d="M17,19H3c-0.6,0-1-0.4-1-1s0.4-1,1-1h14c0.6,0,1,0.4,1,1S17.6,19,17,19z"/>
	</g>
</g>
</svg>
