<?xml version="1.0" encoding="utf-8"?>
<!-- Generator: Adobe Illustrator 24.2.3, SVG Export Plug-In . SVG Version: 6.00 Build 0)  -->
<svg version="1.1" id="ico_pomysl" xmlns="http://www.w3.org/2000/svg" xmlns:xlink="http://www.w3.org/1999/xlink" x="0px" y="0px"
	 viewBox="0 0 18.4 18.4" style="enable-background:new 0 0 18.4 18.4;" xml:space="preserve">
<path id="Path_3079" d="M9.2,4.6c-2.5,0-4.6,2.1-4.6,4.6c0,1.4,0.7,2.8,1.8,3.7v3.7c0,1,0.8,1.8,1.8,1.8l0,0h1.8
	c1,0,1.8-0.8,1.8-1.8l0,0v-3.7c2-1.5,2.4-4.4,0.9-6.4C12,5.3,10.6,4.6,9.2,4.6z M10.6,11.6c-0.3,0.2-0.5,0.5-0.5,0.8v4.2H8.3v-4.2
	c0-0.3-0.2-0.6-0.5-0.8c-1.3-0.8-1.8-2.4-1-3.8s2.4-1.8,3.8-1s1.8,2.4,1,3.8C11.3,11,11,11.3,10.6,11.6L10.6,11.6z"/>
<path id="Path_3080" d="M9.2,3.7c0.5,0,0.9-0.4,0.9-0.9V0.9C10.1,0.4,9.7,0,9.2,0C8.7,0,8.3,0.4,8.3,0.9c0,0,0,0,0,0.1v1.8
	C8.3,3.3,8.7,3.7,9.2,3.7z"/>
<path id="Path_3081" d="M17.4,8.3h-1.8c-0.5,0-0.9,0.4-0.9,0.9c0,0.5,0.4,0.9,0.9,0.9c0,0,0,0,0.1,0h1.8c0.5,0,0.9-0.4,0.9-0.9
	C18.4,8.7,18,8.3,17.4,8.3C17.5,8.3,17.5,8.3,17.4,8.3z"/>
<path id="Path_3082" d="M2.8,8.3H0.9C0.4,8.3,0,8.7,0,9.2c0,0.5,0.4,0.9,0.9,0.9c0,0,0,0,0.1,0h1.8c0.5,0,0.9-0.4,0.9-0.9
	C3.7,8.7,3.3,8.3,2.8,8.3C2.8,8.3,2.8,8.3,2.8,8.3z"/>
<path id="Path_3083" d="M5.2,4.1L3.9,2.8c-0.4-0.4-1-0.3-1.3,0c-0.4,0.4-0.3,1,0,1.3l0,0l1.3,1.3c0.4,0.4,0.9,0.3,1.3,0
	S5.6,4.4,5.2,4.1L5.2,4.1z"/>
<path id="Path_3084" d="M15.8,2.8c-0.4-0.4-0.9-0.4-1.3,0l-1.3,1.3c-0.3,0.4-0.3,1,0.1,1.3c0.3,0.3,0.9,0.3,1.2,0l1.3-1.3
	C16.1,3.8,16.1,3.2,15.8,2.8C15.8,2.8,15.8,2.8,15.8,2.8z"/>
</svg>
