<?xml version="1.0" encoding="utf-8"?>
<!-- Generator: Adobe Illustrator 23.0.6, SVG Export Plug-In . SVG Version: 6.00 Build 0)  -->
<svg version="1.1" id="Warstwa_1" xmlns="http://www.w3.org/2000/svg" xmlns:xlink="http://www.w3.org/1999/xlink" x="0px" y="0px"
	 viewBox="0 0 22.4 22" style="enable-background:new 0 0 22.4 22;" xml:space="preserve">
<g id="check-circle" transform="translate(-0.998 -0.981)">
	<g id="Path_3060">
		<path d="M12,23C12,23,12,23,12,23C5.9,23,1,18.1,1,12C1,9,2.1,6.3,4.2,4.2C6.3,2.1,9.1,1,12,1c1.5,0,3.1,0.3,4.5,1
			C17,2.2,17.2,2.8,17,3.3c-0.2,0.5-0.8,0.7-1.3,0.5C14.5,3.3,13.3,3,12,3c0,0,0,0,0,0c-5,0-9,4-9,9c0,5,4,9,9,9c0,0,0,0,0,0
			c2.4,0,4.7-0.9,6.4-2.6c1.7-1.7,2.6-4,2.6-6.4v-0.9c0-0.6,0.4-1,1-1s1,0.4,1,1V12c0,2.9-1.1,5.7-3.2,7.8C17.7,21.9,14.9,23,12,23z
			"/>
	</g>
	<g id="Path_3061">
		<path d="M12,15c-0.3,0-0.5-0.1-0.7-0.3l-3-3c-0.4-0.4-0.4-1,0-1.4c0.4-0.4,1-0.4,1.4,0l2.3,2.3l9.3-9.3c0.4-0.4,1-0.4,1.4,0
			c0.4,0.4,0.4,1,0,1.4l-10,10C12.5,14.9,12.3,15,12,15z"/>
	</g>
</g>
</svg>
