<?xml version="1.0" encoding="utf-8"?>
<!-- Generator: Adobe Illustrator 24.2.3, SVG Export Plug-In . SVG Version: 6.00 Build 0)  -->
<svg version="1.1" id="ico_klient" xmlns="http://www.w3.org/2000/svg" xmlns:xlink="http://www.w3.org/1999/xlink" x="0px" y="0px"
	 viewBox="0 0 19 18" style="enable-background:new 0 0 19 18;" xml:space="preserve">
<path id="Path_3099" d="M18.7,1.2c-0.4-0.4-1-0.3-1.4,0.1l-1.9,2.1l-0.6-0.7c-0.4-0.4-1-0.5-1.4-0.1c-0.4,0.4-0.5,1-0.1,1.4l1.4,1.6
	c0.4,0.4,1,0.4,1.4,0.1c0,0,0.1-0.1,0.1-0.1l2.6-3C19.1,2.2,19.1,1.6,18.7,1.2z"/>
<path id="Path_3100" d="M7,8c2.2,0,4-1.8,4-4S9.2,0,7,0S3,1.8,3,4S4.8,8,7,8z M7,2c1.1,0,2,0.9,2,2S8.1,6,7,6S5,5.1,5,4S5.9,2,7,2z"
	/>
<path id="Path_3101" d="M7,10c-3.9,0-7,3.1-7,7c0,0.6,0.4,1,1,1s1-0.4,1-1c0-2.8,2.2-5,5-5s5,2.2,5,5c0,0.6,0.4,1,1,1
	c0.6,0,1-0.4,1-1C14,13.1,10.9,10,7,10z"/>
</svg>
