<?xml version="1.0" encoding="utf-8"?>
<!-- Generator: Adobe Illustrator 24.2.3, SVG Export Plug-In . SVG Version: 6.00 Build 0)  -->
<svg version="1.1" id="ico_korzysc" xmlns="http://www.w3.org/2000/svg" xmlns:xlink="http://www.w3.org/1999/xlink" x="0px"
	 y="0px" viewBox="0 0 18.3 18.3" style="enable-background:new 0 0 18.3 18.3;" xml:space="preserve">
<path id="Path_3097" d="M10.1,0C9.6,0,9.2,0.4,9.2,0.9v7.3c0,0.5,0.4,0.9,0.9,0.9h7.3c0.5,0,0.9-0.4,0.9-0.9C18.3,3.7,14.6,0,10.1,0
	z M11,7.3V1.9c2.8,0.4,5,2.6,5.4,5.4L11,7.3z"/>
<path id="Path_3098" d="M17.2,11.1c-0.5-0.2-1,0.1-1.2,0.6c0,0,0,0,0,0c-1.4,3.8-5.5,5.8-9.4,4.5c-3.8-1.4-5.8-5.5-4.5-9.4
	C3,4.6,4.6,3,6.7,2.3c0.5-0.1,0.8-0.7,0.6-1.1C7.2,0.6,6.7,0.4,6.2,0.5c0,0-0.1,0-0.1,0C1.3,2.2-1.2,7.5,0.5,12.2s6.9,7.3,11.7,5.6
	c2.6-0.9,4.7-3,5.6-5.6C18,11.7,17.7,11.2,17.2,11.1L17.2,11.1z"/>
</svg>
