<?xml version="1.0" encoding="utf-8"?>
<!-- Generator: Adobe Illustrator 24.2.3, SVG Export Plug-In . SVG Version: 6.00 Build 0)  -->
<svg version="1.1" id="ico_pieniadze" xmlns="http://www.w3.org/2000/svg" xmlns:xlink="http://www.w3.org/1999/xlink" x="0px"
	 y="0px" viewBox="0 0 17 18" style="enable-background:new 0 0 17 18;" xml:space="preserve">
<path id="Subtraction_4" d="M10.5,18C6.9,18,4,15.1,4,11.5C4,7.9,6.9,5,10.5,5c3.6,0,6.5,2.9,6.5,6.5C17,15.1,14.1,18,10.5,18z
	 M10.6,7C8.1,7,6,9.1,6,11.6c0,2.5,2.1,4.6,4.6,4.6c2.5,0,4.6-2.1,4.6-4.6C15.2,9.1,13.1,7,10.6,7z"/>
<path id="Subtraction_7" d="M3,12L3,12c-1.9-1.2-3-3.3-3-5.5C0,2.9,2.9,0,6.5,0c2.7,0,5.2,1.7,6.1,4.3C11.9,4.1,11.2,4,10.5,4h-0.1
	C9.5,2.7,8.1,2,6.6,2C4.1,2,2,4.1,2,6.6c0,1.2,0.4,2.3,1.2,3.1C3.1,10.3,3,10.9,3,11.5C3,11.7,3,11.8,3,12L3,12z"/>
</svg>
