<?xml version="1.0" encoding="utf-8"?>
<!-- Generator: Adobe Illustrator 24.2.3, SVG Export Plug-In . SVG Version: 6.00 Build 0)  -->
<svg version="1.1" id="ico_podstawy" xmlns="http://www.w3.org/2000/svg" xmlns:xlink="http://www.w3.org/1999/xlink" x="0px"
	 y="0px" viewBox="0 0 16 20" style="enable-background:new 0 0 16 20;" xml:space="preserve">
<path id="Path_3094" d="M11,14H5c-0.6,0-1,0.4-1,1s0.4,1,1,1h6c0.6,0,1-0.4,1-1S11.6,14,11,14z"/>
<path id="Path_3095" d="M5,12h3c0.6,0,1-0.4,1-1s-0.4-1-1-1H5c-0.6,0-1,0.4-1,1S4.4,12,5,12z"/>
<path id="Path_3096" d="M15.7,6.3l-5.4-6C10.1,0.1,9.8,0,9.6,0h-7C1.2,0,0,1.1,0,2.5c0,0,0,0,0,0v15C0,18.9,1.2,20,2.6,20
	c0,0,0,0,0,0h10.9c1.4,0,2.5-1.1,2.6-2.5c0,0,0,0,0,0V7C16,6.8,15.9,6.5,15.7,6.3z M10,3l2.7,3h-2C10.3,6,10,5.6,10,5.2c0,0,0,0,0,0
	V3z M13.4,18H2.6C2.3,18,2,17.8,2,17.5c0,0,0,0,0,0v-15C2,2.2,2.3,2,2.6,2c0,0,0,0,0,0H8v3.1C8,6.7,9.2,8,10.7,8H14v9.5
	C14,17.8,13.7,18,13.4,18C13.4,18,13.4,18,13.4,18z"/>
</svg>
