<?xml version="1.0" encoding="utf-8"?>
<!-- Generator: Adobe Illustrator 24.2.3, SVG Export Plug-In . SVG Version: 6.00 Build 0)  -->
<svg version="1.1" id="Layer_1" xmlns="http://www.w3.org/2000/svg" xmlns:xlink="http://www.w3.org/1999/xlink" x="0px" y="0px"
	 viewBox="0 0 20 20" style="enable-background:new 0 0 20 20;" xml:space="preserve">
<path d="M10,0C4.5,0,0,4.5,0,10v2v4v1c0,1.7,1.3,3,3,3h1c1.7,0,3-1.3,3-3v-3c0-1.7-1.3-3-3-3H2v-1c0-4.4,3.6-8,8-8s8,3.6,8,8v1h-2
	c-1.7,0-3,1.3-3,3v3c0,1.7,1.3,3,3,3h1c1.7,0,3-1.3,3-3v-1v-4v-2C20,4.5,15.5,0,10,0z M4,13c0.6,0,1,0.4,1,1v3c0,0.6-0.4,1-1,1H3
	c-0.6,0-1-0.4-1-1v-1v-3H4z M18,17c0,0.6-0.4,1-1,1h-1c-0.6,0-1-0.4-1-1v-3c0-0.6,0.4-1,1-1h2v3V17z"/>
</svg>
