<?xml version="1.0" encoding="utf-8"?>
<!-- Generator: Adobe Illustrator 24.2.3, SVG Export Plug-In . SVG Version: 6.00 Build 0)  -->
<svg version="1.1" id="Layer_1" xmlns="http://www.w3.org/2000/svg" xmlns:xlink="http://www.w3.org/1999/xlink" x="0px" y="0px"
	 viewBox="0 0 22 18" style="enable-background:new 0 0 22 18;" xml:space="preserve">
<style type="text/css">
	.st0{fill:#1A1A1A;}
</style>
<path class="st0" d="M19,0H3c0,0,0,0,0,0C1.3,0,0,1.3,0,3v12c0,1.6,1.3,3,3,3h16c1.6,0,3-1.3,3-3V3C22,1.3,20.7,0,19,0z M3,2h16
	c0.4,0,0.7,0.2,0.9,0.6L11,8.8L2.1,2.6C2.3,2.2,2.6,2,3,2z M19,16H3c-0.6,0-1-0.5-1-1V4.9l8.4,5.9c0.2,0.1,0.4,0.2,0.6,0.2
	s0.4-0.1,0.6-0.2L20,4.9V15C20,15.5,19.5,16,19,16z"/>
</svg>
