<?xml version="1.0" encoding="utf-8"?>
<!-- Generator: Adobe Illustrator 23.0.6, SVG Export Plug-In . SVG Version: 6.00 Build 0)  -->
<svg version="1.1" id="Warstwa_1" xmlns="http://www.w3.org/2000/svg" xmlns:xlink="http://www.w3.org/1999/xlink" x="0px" y="0px"
	 viewBox="0 0 20 20" style="enable-background:new 0 0 20 20;" xml:space="preserve">
<g id="message-square">
	<path d="M1,20c-0.1,0-0.3,0-0.4-0.1C0.2,19.8,0,19.4,0,19V3c0-1.7,1.3-3,3-3h14c1.7,0,3,1.3,3,3v10c0,1.7-1.3,3-3,3H5.4l-3.7,3.7
		C1.5,19.9,1.3,20,1,20z M3,2C2.4,2,2,2.4,2,3v13.6l2.3-2.3C4.5,14.1,4.7,14,5,14h12c0.6,0,1-0.4,1-1V3c0-0.6-0.4-1-1-1H3z"/>
</g>
</svg>
