<?xml version="1.0" encoding="utf-8"?>
<!-- Generator: Adobe Illustrator 24.2.3, SVG Export Plug-In . SVG Version: 6.00 Build 0)  -->
<svg version="1.1" id="ico_prostota" xmlns="http://www.w3.org/2000/svg" xmlns:xlink="http://www.w3.org/1999/xlink" x="0px"
	 y="0px" viewBox="0 0 16 15.9" style="enable-background:new 0 0 16 15.9;" xml:space="preserve">
<path id="Path_3108" d="M15.4,3.3l-2.7-2.7c-0.7-0.7-1.9-0.7-2.7-0.1l-9,9c-0.3,0.3-0.5,0.8-0.6,1.2L0,14.9c0,0.6,0.4,1,0.9,1.1
	c0,0,0.1,0,0.1,0h0.1l4.2-0.4c0.5,0,0.9-0.2,1.2-0.6l9-9C16.2,5.2,16.2,4,15.4,3.3z M5.1,13.6l-3,0.3l0.3-3L8,5.3L10.7,8L5.1,13.6z
	 M12,6.6L9.3,3.9l1.9-2L14,4.7L12,6.6z"/>
</svg>
