<?xml version="1.0" encoding="utf-8"?>
<!-- Generator: Adobe Illustrator 23.0.6, SVG Export Plug-In . SVG Version: 6.00 Build 0)  -->
<svg version="1.1" id="Warstwa_1" xmlns="http://www.w3.org/2000/svg" xmlns:xlink="http://www.w3.org/1999/xlink" x="0px" y="0px"
	 viewBox="0 0 114.8 83.4" style="enable-background:new 0 0 114.8 83.4;" xml:space="preserve">
<style type="text/css">
	.st0{enable-background:new    ;}
	.st1{fill:#1A1A1A;}
</style>
<g class="st0">
	<g>
		<path class="st1" d="M78.1,83.4l-9.3-14.2l0.4-0.3C79.9,62.2,87,54.5,90.3,46c-1.3,0.7-3,1-5.2,1c-7,0-13-2.3-17.8-6.7
			C62.4,35.8,60,30.1,60,23.5c0-6.7,2.5-12.3,7.5-16.8C72.4,2.3,78.7,0,86.3,0c8.6,0,15.6,3,20.8,8.8c5.1,5.8,7.7,12.9,7.7,21.1
			c0,9.1-3.2,18.8-9.4,28.8c-6.2,10-15.3,18.2-26.9,24.5L78.1,83.4z M70.2,69.5L78.5,82c11.3-6.2,20.1-14.2,26.1-23.9
			c6.1-9.8,9.2-19.3,9.2-28.2c0-8-2.5-14.9-7.5-20.5C101.4,3.8,94.6,1,86.3,1C79,1,72.9,3.2,68.1,7.5c-4.7,4.3-7.1,9.7-7.1,16
			c0,6.4,2.3,11.8,6.9,16c4.6,4.3,10.4,6.5,17.2,6.5c2.8,0,4.8-0.6,5.8-1.7l0.8,0.5C88.7,54,81.5,62.3,70.2,69.5z M18.1,83.4
			L8.8,69.2l0.4-0.3C20,61.7,27.1,54,30.3,46c-1.3,0.6-3,1-5.2,1c-7,0-13-2.3-17.8-6.7C2.4,35.8,0,30.1,0,23.5
			c0-6.7,2.5-12.3,7.5-16.8C12.4,2.3,18.7,0,26.3,0c8.6,0,15.6,3,20.8,8.8c5.1,5.8,7.7,12.9,7.7,21.1c0,9.1-3.2,18.8-9.4,28.8
			c-6.2,10-15.3,18.2-26.9,24.5L18.1,83.4z M10.2,69.4L18.5,82c11.3-6.2,20.1-14.2,26.1-23.9c6.1-9.8,9.2-19.3,9.2-28.2
			c0-8-2.5-14.9-7.5-20.5C41.4,3.8,34.6,1,26.3,1C19,1,12.9,3.2,8.1,7.5C3.4,11.7,1,17.1,1,23.5c0,6.4,2.3,11.8,6.9,16
			c4.6,4.3,10.4,6.5,17.2,6.5c2.8,0,4.7-0.6,5.8-1.7l0.8,0.5C28.9,53.5,21.6,61.8,10.2,69.4z"/>
	</g>
</g>
</svg>
