<?xml version="1.0" encoding="utf-8"?>
<!-- Generator: Adobe Illustrator 24.2.3, SVG Export Plug-In . SVG Version: 6.00 Build 0)  -->
<svg version="1.1" id="ico_dla_mnie" xmlns="http://www.w3.org/2000/svg" xmlns:xlink="http://www.w3.org/1999/xlink" x="0px"
	 y="0px" viewBox="0 0 18.3 18.3" style="enable-background:new 0 0 18.3 18.3;" xml:space="preserve">
<path id="Union_1" d="M0,9.2C0,4.1,4.1,0,9.2,0c0,0,0,0,0,0c5.1,0,9.2,4.1,9.2,9.2c0,0,0,0,0,0c0,5.1-4.1,9.2-9.2,9.2S0,14.2,0,9.2z
	 M1.8,9.2c0,4,3.3,7.3,7.3,7.3c0,0,0,0,0,0c4.1,0,7.3-3.3,7.3-7.3c0-4-3.3-7.3-7.3-7.3c0,0,0,0,0,0C5.1,1.8,1.8,5.1,1.8,9.2L1.8,9.2
	z M5.2,12.7v-1.5h8v1.5H5.2z M10.7,7.4c0-0.7,0.6-1.2,1.2-1.2c0,0,0,0,0,0c0.7,0,1.2,0.6,1.2,1.2c0,0,0,0,0,0c0,0.7-0.6,1.2-1.2,1.2
	S10.7,8.1,10.7,7.4C10.7,7.4,10.7,7.4,10.7,7.4L10.7,7.4z M5.2,7.4c0-0.7,0.6-1.2,1.2-1.2c0.7,0,1.2,0.6,1.2,1.2l0,0
	c0,0.7-0.6,1.2-1.2,1.2C5.7,8.7,5.2,8.1,5.2,7.4L5.2,7.4z"/>
</svg>
